<svg xmlns="http://www.w3.org/2000/svg" width="928" height="620" fill="none" viewBox="0 0 928 620">
  <g opacity=".75">
    <path stroke="#1F77B4" stroke-width="1.5" d="m331.819 506.843-1.681-103.369m-19.151-24.891L459.13 270.972m23.23 104.354-23.23-104.354M315.184 334.53l143.946-63.558M284.178 372.271 459.13 270.972m10.008-163.417 111.198 115.174m-136.981-88.537 136.981 88.537m-136.981-88.537-86.522-60.627m241.494 379.867L544.83 305.535M343.91 407.12l-52.966 117.767M343.91 407.12l115.22-136.148M343.91 407.12l63.283-96.094m203.218 52.286-89.675 75.257m-20.881 101.75 20.881-101.75m-218.72-172.53 97.962-53.114m-97.962 53.114-42.635 107.637m42.635-107.637 157.114 4.933m-111.613-69.604 111.613 69.604m19.026-100.647L459.13 270.972m19.026-100.647-70.963 140.701m-.47-135.016 52.407 94.962m20.757-134.566L459.13 270.972m-94.48 232.873-34.512-100.371m159.34-196.308-30.348 63.806M438.337 433.55l20.793-162.578m-74.618 230.845-54.374-98.343m226.811-189.622-97.819 57.12m127.243 43.105L459.13 270.972m-198.235 38.795 69.243 93.707m17.107-117.179 111.885-15.323M442.448 164.91l16.682 106.062m-122.226 55.364-13.382 122.065m13.382-122.065 122.226-55.364m115.968 48.483L459.13 270.972m-56.927 238.407-72.065-105.905m238.636-117.96L459.13 270.972m135.925-5.079-135.925 5.079m164.348-72.629L544.83 305.535m78.648-107.192L459.13 270.972m96.855-92.392-96.855 92.392m-64.424 179.08-64.568-46.578m240.196-211.536L459.13 270.972m32.522 74.815-32.522-74.815m-29.346-147.008 29.346 147.008M588.717 169.78l-63.66-74.569m63.66 74.569L544.83 305.535m32.34 39.561 108.288 79.844M577.17 345.096l-118.04-74.124M344.773 108.677l81.252-66.31m-81.252 66.31L452.789 52.12m258.499 198.931 50.786 87.458m-242.06 78.192 24.816-111.166m-111.645-17.932 111.645 17.932m-22.767 67.858L459.13 270.972m-4.234 98.948 89.934-64.385m-89.934 64.385 4.234-98.948m169.269 129.21-107.663 38.387m41.812-170.558-103.418 2.961m106.776 85.858L459.13 270.972m147.544 259.416-84.254 58.415M350.19 301.854l108.94-30.882m138.236-30.726L459.13 270.972m-96.134 97.966 96.134-97.966m-40.365 121.49 40.365-121.49m-92.157 67.672 92.157-67.672m16.298 155.302L459.13 270.972m78.243 92.275-78.243-92.275m-139.092-39.601 224.792 74.164M359.07 464.968l-68.126 59.919m245.117-117.625 123.412 75.56m-123.412-75.56-76.931-136.29m-216.393 44.554-14.836-113.883m14.836 113.883 87.401 87.948m141.246-47.425-12.254-85.077m11.752 122.431L459.13 270.972m-32.268-79.571L398.676 70.654m28.186 120.747 32.268 79.571m-32.268-79.571-97.969 22.853m241.713 94.659-49.87 129.656M298.889 251.937l-43.268-94.554m43.268 94.554 160.241 19.035m1.871-39.385 83.829 73.948m-175.134-19.8-39.558 117.739m39.558-117.739-110.315 87.942m108.72-110.023-37.963 139.82m167.428-277.199-71.541-83.907m71.541 83.907L459.13 270.972m-44.87 93.783 44.87-93.783m-44.87 93.783 106.476 73.814m88.137-153.238L459.13 270.972m-145.078 35.524 145.078-35.524m-89.92-60.11 89.92 60.11m235.061-85.464 58.36 89.136m-420.877-22.568 127.456 18.896M341.224 375.906 459.13 270.972m-90.525 49.092 90.525-49.092m-1.237-107.15 1.237 107.15m118.755 101.324L459.13 270.972m212.439 96.326-12.096 115.524m12.096-115.524L544.83 305.535m-141.844 84.132 56.144-118.695m-58.522 190.382L544.83 305.535m23.568-238.139L452.789 52.12m115.609 15.276 75.294 82.178M503.773 356.865l-44.643-85.893m245.625 120.97 47.796-117.298m-583.35 52.877 90.18 46.155m135.084-190.034 64.665 87.33M328.406 283.4l-69.025 90.277m69.025-90.278 130.724-12.427m17.803 262.18 43.803-94.583m99.762-17.037 79.683 62.97m-79.683-62.97L544.83 305.535m122.366 124.794-86.86-207.6M451.061 512.21l-127.539-63.809m66.333-88.748 69.275-88.681m-261.582 67.145 132.59 65.357m259.663-107.359L459.13 270.972m-60.74 26.059 146.44 8.504m-146.44-8.504 60.74-26.059M668.015 528.92l17.443-103.98m-123.373 6.227L544.83 305.535M230.322 423.217l99.816-19.743m253.578 7.85L544.83 305.535m-117.346 75.009 31.646-109.572m-31.646 109.572 93.252 58.025m-44.762-223.585 68.856 90.551m-290.221 164.5 75.529-66.561m32.877-182.179 96.115 49.677m-50.004-118.463 50.004 118.463m-102.093-36.454 102.093 36.454m17.57-149.831-17.57 149.831m130.394-56.608L459.13 270.972m36.492-125.91-36.492 125.91m-21.41 135.747 21.41-135.747m-65.812 133.325 65.812-133.325m208.109-8.757-122.409 43.32m-88.326 256.873 87.705 46.282m102.876-392.474L544.83 305.535M305.564 405.669 459.13 270.972m-81.424-116.643 81.424 116.643m217.588-61.752 75.833 65.424M449.965 341.64l94.865-36.105m-59.51 155.636-26.19-190.199m109.994 171.447L544.83 305.535M429.036 326.85l115.794-21.315m-115.794 21.316L328.893 214.254m331.838 106.337 91.82-45.947m-114.144-46.873 114.144 46.873m-114.144-46.873-93.577 77.764m-108.465-94.441 88.692-115.883m-88.692 115.883 108.465 94.441m-99.277 267.497 98.656 35.659M421.66 169.753l37.47 101.219m122.278 191.435L544.83 305.535m-192.691 31.912 106.991-66.475m144.008 80.37-58.308-45.807m58.308 45.807-144.008-80.37m143.015-84.202L459.13 270.972m-119.441 88.957 119.441-88.957m-97.475-96.507 97.475 96.507m-103.937-15.811 103.937 15.811m-64.845 52.515-134.904 50.19m253.542-195.143-53.793 92.438m-78.004 127.446 163.704-92.883M461.206 140.79l-2.076 130.182m109.158 132.382-23.458-97.819m-122.218 99.936 36.518-134.499m70.072 67.249-70.072-67.249m-114.161 80.32 114.161-80.32m-131.956 26.909 131.956-26.909m89.662 119.608L459.13 270.972m-55.776 106.505 141.476-71.942m-208.497-71.631 122.797 37.068m61.863 184.755 23.837-150.192m-45.016 26.037-169.676 71.902m181.206-13.171 33.486-84.768m-33.486 84.768L459.13 270.972m-11.876-1.937 97.576 36.5m-9.222 124.477 9.222-124.477M259.609 435.8l31.335 89.087m229.299-363.779L459.13 270.972M237.869 115.686l-42.238 92.493M549.22 333.073l-90.09-62.101m-121.414-.857 121.414.857m51.042-60.031 34.658 94.594m51.6 201.379-121.799-33.311M301.236 117.931l98.742 94.994m-98.742-94.994-73.335 83.712m351.701 291.629-104.971-19.669m-18.182-78.362 2.681-124.269m-22.674-14.162 108.374 48.725m6.6-41.497-92.3 6.934m166.557 12.814L459.13 270.972m166.557 12.814 18.005-134.212M525.706 352.56l-66.576-81.588m-6.436-250.071 72.363 74.31m-60.008 189.713 79.781 20.611m-.27-108.473-85.43 73.91m172.067 157.139L544.83 305.535m-84.422-103.28-1.278 68.717m170.815 64.685 55.513 89.283m-55.513-89.283L459.13 270.972m195.983-20.071L544.83 305.535m9.719 12.423-95.419-46.986m95.42 46.986 25.786-95.229m-258.392-19.782 137.186 68.025m157.43-53.564-71.73 88.127m-167.398 53.349 81.698-87.912m-12.522-156.276-86.856-58.957m86.856 58.957 12.522 156.276m-14.36 45.997 100.06-11.434m75.299 186.942-99.393-53.908m152.478-143.698L544.83 305.535M466.609 376.2l78.221-70.665M466.609 376.2l-7.479-105.228m-111.632 57.68-23.976 119.749m23.976-119.749 111.632-57.68m65.9 249.51 19.179 88.208m-62.441-216.578 63.062-86.577m-63.062 86.577-22.638-121.14M573.713 98.556 459.13 270.972M573.713 98.556l6.623 124.173M380.007 336.954l79.123-65.982m106.007 279.14L330.138 403.474m127.369-70.01 87.323-27.929m-298.013-1.653 83.321 99.592m-10.984 113.522-75.695-25.782m269.77-206.893-38.598 189.282m-68.654-352.499 53.153 149.868m280.422 146.924-80.079 64.926M460.212 299.727l84.618 5.808m60.972-142.086 91.278-39.375m-91.278 39.375L544.83 305.535m-35.726-142.044L459.13 270.972m-11.121-33.744 96.821 68.307M402.39 435.999l-72.252-32.525m72.252 32.525 4.803-124.973m81.784-42.743L330.138 403.474m158.839-135.191 50.79-105.32m-41.345 265.641L459.13 270.972m68.082-74.007 17.618 108.57m-17.618-108.57-68.082 74.007m-55.469 255.569-112.717-1.654m32.254-164.44 135.932-89.475m244.106-.478L544.83 305.535m-98.592 301.58-96.645-21.454m266.276-264.696-95.133 117.604m126.472-41.038 12.265 85.291M534.981 182.207l9.849 123.328M346.958 183.488l112.172 87.484m124.538 173.056L544.83 305.535m-239.444-20.481 153.744-14.082m47.651-75.564-47.651 75.564m-32.942 209.184-96.05-76.682M569.83 211.005l-110.7 59.967M670.9 329.75l-126.07-24.215m7.596 120.413-7.596-120.413m-155.446-45.488 69.746 10.925m231.895 53.891 61.526-50.219M643.32 165.47l-98.49 140.065m98.49-140.065L459.13 270.972m-69.035-108.724L359.752 55.739m30.343 106.509 69.035 108.724m129.765-74.923L544.83 305.535m48.985 127.402L544.83 305.535m110.921-35.332 96.8 4.441m-96.799-4.441L544.83 305.535m53.451-52.941L459.13 270.972m-83.094-69.703 83.094 69.703m93.09-82.944-7.39 117.507m7.39-117.507-93.09 82.944M336.993 467.061l137.639 6.542m-137.639-6.542-77.612-93.384m278.154-139.482 7.295 71.34M422.963 447.01l36.167-176.038m103.034 25.098L459.13 270.972m-56.337 210.217-72.655-77.715m72.655 77.715 117.943-42.62m-136.84-246.56 75.234 78.963m138.437 126.176-52.737-91.613m-53.672-147.806L459.13 270.972M257.959 364.27l72.179 39.204m164.957 91.441L459.13 270.972m-29.749-114.634-30.705-85.684m30.705 85.684 29.749 114.634m36.963 108.9-36.963-108.9m151.714-65.93-85.787-109.83m85.787 109.83L544.83 305.535m6.93 148.534-6.93-148.534m-160.198-61.283-110.957-18.461m110.957 18.461 160.198 61.283m-160.198-61.283 74.498 26.72m92.158-128.868-6.458 163.431M308.428 566.481l-64.969-75.267m277.828-185.969-.551 133.324m79.761-19.493L544.83 305.535m-344.278-8.863 58.829 77.005m-58.976 32.154 43.054 85.383m268.273-174.559-111.754-103.73m-23.079 263.406-133.44 14.883" opacity=".75"/>
    <path stroke="#E377C2" stroke-width="1.5" d="m394.706 450.052 76.678-94.003m-94.485 120.282-71.335-70.662m71.335 70.662 108.421-15.16M377.706 154.329l98.269 60.655m-190.126 86.404 55.375 74.518m59.384 85.448-77.41-100.907m260.47 83.581-85.246-15.424M257.959 364.27l85.951 42.85m15.59 28.003 115.928-8.849M346.747 152.083l42.637 107.964m-42.637-107.964 42.637 107.964m123.845 24.274 42.757-105.741M400.608 461.354l-89.621-82.771m210.3-73.338-131.903-45.198m194.284 183.981 63.54-46.497M402.39 435.999l123.316-83.439m-116.58-200.051-24.494 91.743m-37.115-42.884-84.316-69.02m137.407 329.006-10.753-101.701m10.753 101.701-23.176-102.469m23.176 102.469 84.712-.183M361.655 174.465l107.483-66.91M285.849 301.388l55.375 74.518m240.184 86.501-86.313 32.508m86.313-32.508 65.8-64.876m-252.502 52.521 76.678-94.003m105.786-10.952 93.729-15.347m32.743-40.38-108.587-23.477m-15.453 227.379-104.174-66.998m121.002 80.639-101.335-11.998m70.042 55.197-70.042-55.197m-94.487-33.561-37.612-92.416m-61.76-251.007 104.741 3.173m105.755 195.551 37.06 73.925m-37.06-73.925 135.476 80.876m-135.476-80.876L485.32 461.171m26.412-144.516-51.324-114.4m76.965 160.992 60.954 90.185m-33.19 96.68-70.042-55.197m2.471-368.64 44.572-90.987m161.098 235.206-105.87-30.248m105.87 30.248-104.955-17.9m104.955 17.9-73.291 65.163m41.624 31.641 31.667-96.804m-104.955-17.9 113.007-1.543m-81.343 84.606 81.343-84.606m-113.922-10.805 113.922 10.805M402.39 435.999l244.818-38.468m-78.084 44.888-74.029 52.496m74.029-52.496L451.061 512.21M344.773 108.677l-7.057 161.438m56.569 53.372-83.298 55.096m91.403 57.416-91.403-57.416m91.403 57.416-91.403-57.416m-110.435-81.911 113.5 9.824m-113.5-9.824 83.626 75.599m278.37-104.26 43.254-104.562m-3.657 23.321-28.432-88.214m-95.557 71.769 95.557-71.77m-84.736 169.728 113.168-81.513m-240.49-12.305-75.806 126.923m75.806-126.923 107.483-66.91M436.456 256.81l-150.607 44.578m112.541-4.357 72.994 59.018m-11.172-56.322-174.363 1.661m174.363-1.661-108.073 37.72m108.073-37.72L315.184 334.53m145.028-34.803-70.828-39.68m-69.346-28.676-34.189 70.017m34.189-70.017 32.101 106.076m-32.101-106.076-4.854 103.159m4.854-103.159 69.346 28.676m-8.258 138.371-96.948-26.147m96.948 26.147-96.948-26.147m34.976 144.725-34.976-144.725m37.766-169.324 121.411-68.755m-13.571-10.228 121.504 18.14m-51.474 189.468 56.172-152.992m14.62 130.333-14.62-130.333m-42.757 105.741 42.757-105.741m-85.104 214.823 112.834 17.921M257.959 364.27l-60.411-26.153m351.672-5.044-104.45-16.104m104.45 16.104 3.206 92.875m-52.612-94.376 147.394 65.959m-21.521-113.745 21.521 113.745m-21.521-113.745 21.521 113.745m-21.521-113.745 21.521 113.745m-31.339-76.566 31.339 76.566m-133.979-113.21 42.757-105.741M246.817 303.882l89.516-69.978m65.87 275.475 118.79-53.652m99.136 36.75-99.136-36.75m-7.764-171.406 42.757-105.741m-187.885 85.074 76.669 53.315m-50.485 6.518-88.721 82.182m96.826 30.33-96.826-30.33m259.573 144.443-70.042-55.197m-92.705-58.916L285.849 301.388M402.39 435.999l-50.251-98.552m50.251 98.552L315.184 334.53m87.206 101.469-13.006-175.952m13.006 175.952-79.192-75.552m292.671-39.482 31.339 76.566m-27.079 94.946 27.079-94.946M402.39 435.999l244.818-38.468m-23.73-199.188L670.9 329.75M495.622 145.062l-35.41 154.665m35.41-154.665 41.913 89.133m-238.646 17.742-101.341 86.18m365-70.106 43.254-104.562M350.19 301.854l80.414 71.465M643.32 165.47l-69.607-66.914m69.607 66.914-69.607-66.914M429.036 326.85l56.284 134.321M242.737 315.526l98.487 60.38M596.43 506.914l50.778-109.383m-27.079 94.946 27.079-94.946m-65.8 64.876 65.8-64.876m26.006-102.66-26.006 102.66M488.977 268.283l6.118 226.632M658.26 163.332l-101.311 50.52M220.63 355.857l106.544-57.976m57.338 203.936 18.474-112.15m162.151 160.445 28.678-117.175m-28.678 117.175-70.042-55.197m244.456-77.019-48.526-93.033M461.206 140.79l91.014 47.238M257.959 364.27l-60.411-26.153m291.93-130.951 127.082 10.242m-96.317-56.3 96.317 56.3m-91.53 303.074 11.031-113.22m-262.409-208.42-93.502-20.298m323.623 178.321 99.533-24.949m-131.922 24.133 131.922-24.133m-13.782-117.552 13.782 117.552m-143.094-32.189-105.019-44.566m105.019 44.566L315.184 334.53m308.294-136.187-49.765-99.787M465.049 284.924l10.379 141.35m-73.038 9.725 73.038-9.725m-49.24 53.882 49.24-53.882m-155.39-194.903-4.854 103.159m31.774-151.042-83.757-51.14m104.9 131.306-62.715 21.4m-84.756 70.803 102.568 4.59m57.928 37.971-96.948-26.147m83.923-108.617 46.159 101.101m-46.159-101.101-125.364 51.872m183.451 164.63 103.014-141.935m59.693-142.172-59.693 142.172m100.743-2.564-94.337 94.355m-142.29-25.715 142.29 25.715m26.94-162.001 114.17-58.791m-106.384-17.282 106.384 17.282m-187.24-2.054-119.782 78.569m253.782-87.392-88.497-16.136M422.612 405.471l-18.951 121.07m34.059-119.822-34.059 119.822m226.284-190.884 80.694 68.182m-189.352-98.594 139.444 15.346M346.958 183.488l-83.757-51.14m225.776 135.935L362.996 368.938M568.398 67.396 555.986 178.58m9.151 371.532-70.042-55.197m-92.892 14.464 83.117-48.208m94.282 32.101 67.606-95.741m-82.071 152.581-79.817-88.941m-126.25 3.797L257.959 364.27m126.553 137.547 110.583-6.902m-6.118-226.632 84.736-169.727m-8.576 451.556-70.042-55.197m105.402-75.839-105.402 75.839m70.042 55.197-70.042-55.197M359.5 435.123l115.928-8.849M359.5 435.123l115.928-8.849m102.457-53.978 93.014-42.546m-42.5 70.432L525.706 352.56m18.854-155.498 102.525 19.154M257.959 364.27l85.951 42.85m221.227 142.992-79.817-88.941m0 0-54.716-87.852m-98.93-121.243 104.692-40.982m-91.397 140.198 88.216-63.689m186.944 204.874-125.034 2.438m70.042 55.197-70.042-55.197m0 0 103.232-41.483m-103.232 41.483 103.232-41.483m-76.264-80.038 76.264 80.038m8.347 76.956-111.579-35.473M362.108 126.358l74.258 84.736m-98.882-60.982 98.882 60.982m-104.692 40.982 104.692-40.982M359.07 464.968l136.025 29.947M246.817 303.882l92.872 56.047m302.456 170.677 25.051-100.277M565.137 550.112l-79.817-88.941m59.24-264.109 102.525 19.154M481.768 392.112l69.992 61.957m-128.797-7.059-123.914 25.965m123.914-25.965 33.541 115.398M422.963 447.01l22.59 126.022m-86.099-35.962-60.405-64.095m60.405 64.095 97.05 25.339m-97.05-25.339 86.099 35.962M331.674 252.076l71.68 125.401m-43.9 159.592 43.9-159.592m-56.109-91.182 56.109 91.182m-.964 58.522-39.394-67.061m21.516 132.879-21.516-132.879m98.21-228.148 91.014 47.238m37.581 108.087-6.085 115.209m-21.168-143.313 6.576 174.408M476.7 121.141l97.013-22.585m28.432 88.214-28.432-88.214m28.432 88.214-28.432-88.214m46.416 393.921 27.079-94.946m-287.709 37.592-21.783-165.008m227.421 279.997-70.042-55.197m208.141-224.421-31.667 96.804m-51.071 54.234-125.403 73.383m125.403-73.382 114.022-50.777M320.038 231.371l-4.854 103.159M643.32 165.47l-69.607-66.914m69.607 66.914-69.607-66.914m-62.369 291.747-73.007 43.247M643.32 165.47l-69.607-66.914m69.607 66.914-69.607-66.914m69.607 66.914-69.607-66.914m69.607 66.914-69.607-66.914m15.811 115.807L573.713 98.556m49.765 99.787-49.765-99.787m-78.091 46.506 93.273 50.987m54.425-30.579-69.607-66.914m-78.091 46.506 110.18 18.387m-332.149 35.393 110.979 45.41m45.152-120.288 46.19 91.02m15.678 130.803-15.678-130.803m127.164 136.358L551.76 454.069m13.377 96.043-70.042-55.197m-6.118-226.632L362.996 368.938m162.71-16.378 145.193-22.81M489.478 207.166l-119.782 78.569m195.441 264.377-79.817-88.941m-90.614-11.119 76.678-94.003m-149.44-153.102 126.065 34.281m117.128 312.884-70.042-55.197m82.79-122.619 93.014-42.546M402.39 435.999l-35.417-97.355m35.82 142.545-63.104-121.26m151.469-202.2 82.555-59.173m94.302 430.364-.819-98.591m-105.111.838 41.053-79.825m-41.053 79.825-70.433-85.38m230.919-26.378-113.698-34.078m113.698 34.078L751.593 224m-29.022 95.409-113.698-34.078m113.698 34.078L751.593 224M569.124 442.419l-74.029 52.496m125.034-2.438-71.337-101.896m-167.666 7.837-67.074-91.922m67.074 91.922-96.948-26.147m154.159 61.279-75.341-64.612m-77.147-67.55 77.147 67.55m75.341 64.612 97.724-26.288m-97.724 26.288 53.315-87.763m-96.946 104.265-26.101-129.988m61.179-196.1 46.19 91.02m86.574 53.027 104.691-5.796M643.32 165.47l23.919 96.745M467.757 35.22l-61.78 85.884m61.78-85.884-61.78 85.884m223.968 214.553 73.291-65.163m-73.291 65.163 37.251 94.672m-210.747-35.088 95.311 58.828M321.944 202.947l-36.095 98.441m344.096 34.269-169.733-35.93m-66.894 104.57L259.609 435.8m118.097-281.471-114.505-21.981m365.198 267.834L525.706 352.56m71.861 44.588-101.474-17.276m-295.688 25.959 105.159-.162m-105.159.162 105.159-.162m245.724-263.565-104.68-27.408m104.68 27.408-104.68-27.408m163.803 248.616 56.785 67.017m-60.522 100.059 60.522-100.059m-56.785-67.017 56.785 67.017M479.887 136.406l93.826-37.85m-93.826 37.85 93.826-37.85m32.961 431.832 60.522-100.059m-56.785-67.017 56.785 67.017m-87.594 62.943-1.717-120.976m0 0 93.014-42.546m-47.421-131.407-49.765-99.787m64.694 129.215-131.626-32.363m-122.149 48.844 122.149-48.844M344.969 351.292l-85.36 84.508M643.32 165.47l-69.607-66.914m-4.589 343.863L451.061 512.21M643.32 165.47l-69.607-66.914M402.39 435.999l-14.828 107.41m14.828-107.41-14.828 107.41m316.08-254.039-108.587-23.477M402.39 435.999l79.97-60.673m82.777 174.786-70.042-55.197m-92.705-58.916 82.93 25.172m84.51-250.166 124.361-25.497M503.773 356.865 436.456 256.81m34.928 99.239-34.928-99.239m153.068-42.446L436.456 256.81m138.642 62.645 115.927 5.408m-101.224-28.748 101.224 28.748M643.32 165.47l-69.607-66.914m-146.851 92.845 44.522 164.648m126.182 41.099-35.402-101.077m-41.921-134.963-55.194 123.816m-96.444 35.14 92.396-88.477M476.7 121.141l-15.699 110.446m168.944 104.07 73.291-65.163m-31.667 96.804 31.667-96.804M384.512 501.817l110.583-6.902m94.429-280.552L573.713 98.556M384.632 244.252l-61.434 116.195m296.931 132.03-60.325 81.329M394.285 323.487l168.263-55.476M359.499 435.123l-48.512-56.54m309.142 113.894 84.626-100.535m-104.258 27.134 60.234-98.485M643.32 165.47l-69.607-66.914m69.607 66.914-69.607-66.914m28.432 88.214-28.432-88.214m-242.039 153.52 104.692-40.982m128.771 339.018-70.042-55.197m-175.941 22.081L259.609 435.8m59.545 81.196L259.609 435.8m59.545 81.196L259.609 435.8m59.545 81.196 131.907-4.786m44.561-367.148 93.273 50.987M402.39 435.999l96.032-7.395m112.422-223.562-59.414 58.996m59.414-58.996 19.101 130.615m-245.433 166.16 34.253-109.355m201.364 100.015-121.707-63.873m139.985-200.833-131.626-32.363m123.164 140.249-169.733-35.93m169.733 35.93 1.252 92.454m-1.252-92.454 1.252 92.454m-60.863-236.173 85.418 78.264m17.462 24.669 61.306 75.885M623.478 198.343l-37.105 115.734m-17.249 128.342 17.249-128.342m-266.335-82.706-4.854 103.159m253.104 68.824 78.92-5.823m-36.364-192.489-101.74-41.551m101.74 41.551L491.652 345.787m105.914 51.361-126.182-41.099m-35.019-144.955 89.341 141.466m-36.228-145.394 99.239-37.386m.807 44.584 101.501 110.499M476.7 121.141l97.013-22.585m28.432 88.214-28.432-88.214m-4.589 343.863 60.821-106.762m43.269-40.786 61.306 75.885m-277.013-37.292 27.813 127.707m-27.813-127.707 2.901-131.209M449.965 341.64l35.355 119.531M449.965 341.64l10.443-139.385m-59.8 259.099-95.044-55.685m95.044 55.685 84.712-.183m-84.712.183 94.487 33.561m-6.118-226.632 84.736-169.727M321.944 202.947l-61.049 106.82m349.516 53.545-74.803 66.7m74.803-66.7-90.397 53.389m90.397-53.389-150.199-63.585m150.2 63.585-72.877-129.117m-235.519 31.844-17.838 106.232m284.11 31.083.486-117.84M364.65 503.845l-59.086-98.176m59.086 98.176 120.67-42.674m80.586-104.341 101.29 73.499M368.101 263.654l138.68-68.246m59.125 161.422-19.392-104.25m16.034 15.431-114.539-30.783m-71.11 239.103 114.753-130.544m70.896-77.776 92.565-17.11" opacity=".75"/>
  </g>
  <path fill="#A6D854" stroke="#EEE" stroke-width="1.5" d="M685.458 430.231a5.291 5.291 0 1 0 .001-10.583 5.291 5.291 0 0 0-.001 10.583ZM273.675 230.89a5.1 5.1 0 1 0 0-10.198 5.1 5.1 0 0 0 0 10.198Zm49.847 222.803a5.291 5.291 0 1 0 0-10.583 5.291 5.291 0 0 0 0 10.583Zm373.557-324.52a5.098 5.098 0 1 0 .001-10.197 5.098 5.098 0 0 0-.001 10.197Zm-297.101 89.044a5.292 5.292 0 1 0-.002-10.584 5.292 5.292 0 0 0 .002 10.584Zm26.047-170.653a5.196 5.196 0 1 0 0-10.392 5.196 5.196 0 0 0 0 10.392Zm274.156 442.037a5.098 5.098 0 1 0 .001-10.197 5.098 5.098 0 0 0-.001 10.197Zm61.893-145.993a5.098 5.098 0 1 0 .001-10.197 5.098 5.098 0 0 0-.001 10.197ZM359.752 60.935a5.196 5.196 0 1 0 0-10.391 5.196 5.196 0 0 0 0 10.391Zm165.306 39.661a5.385 5.385 0 1 0 0-10.77 5.385 5.385 0 1 0 0 10.77Zm227.493 179.705a5.657 5.657 0 1 0 0-11.315 5.657 5.657 0 0 0 0 11.315Zm-524.65-73.462a5.196 5.196 0 1 0 0-10.392 5.196 5.196 0 0 0 0 10.392Zm63.043 323.433a5.385 5.385 0 1 0 .001-10.77 5.385 5.385 0 0 0-.001 10.77Zm368.529-42.065a5.385 5.385 0 1 0 0-10.77 5.385 5.385 0 0 0 0 10.77Zm-184.841-9.219a5.385 5.385 0 1 0 0-10.77 5.385 5.385 0 0 0 0 10.77ZM349.593 590.76a5.1 5.1 0 1 0 0-10.198 5.1 5.1 0 0 0 0 10.198ZM195.631 213.278a5.1 5.1 0 1 0 0-10.198 5.1 5.1 0 0 0 0 10.198ZM544.83 314.916a9.381 9.381 0 1 0 0-18.762 9.381 9.381 0 0 0 0 18.762ZM398.676 75.85a5.196 5.196 0 1 0 0-10.392 5.196 5.196 0 0 0 0 10.392Zm-68.538 334.332a6.708 6.708 0 1 0 0-13.416 6.708 6.708 0 1 0 0 13.416Zm-70.757-30.849a5.656 5.656 0 0 0 5.656-5.656 5.656 5.656 0 1 0-5.656 5.656Zm284.828 234.649a5.291 5.291 0 1 0 0-10.583 5.291 5.291 0 0 0 0 10.583Zm-300.75-117.383a5.385 5.385 0 1 0 0-10.77 5.385 5.385 0 0 0 0 10.77Zm12.162-334.117a5.1 5.1 0 1 0 0-10.198 5.1 5.1 0 0 0 0 10.198ZM522.42 593.903a5.1 5.1 0 1 0 0-10.198 5.1 5.1 0 0 0 0 10.198Zm-63.29-310.521c6.853 0 12.409-5.556 12.409-12.41s-5.556-12.41-12.409-12.41c-6.854 0-12.41 5.556-12.41 12.41s5.556 12.41 12.41 12.41Zm80.637-115.32a5.1 5.1 0 1 0 0-10.198 5.1 5.1 0 0 0 0 10.198Zm40.569 60.144a5.477 5.477 0 1 0 0-10.954 5.477 5.477 0 0 0 0 10.954ZM452.789 57.316a5.196 5.196 0 1 0 0-10.392 5.196 5.196 0 0 0 0 10.392Zm190.903 97.454a5.196 5.196 0 1 0 0-10.392 5.196 5.196 0 0 0 0 10.392ZM407.193 316.318a5.291 5.291 0 1 0 0-10.583 5.291 5.291 0 0 0 0 10.583Zm-78.3-96.867a5.196 5.196 0 1 0 0-10.393 5.196 5.196 0 0 0 0 10.393Zm191.843 225.118a6 6 0 1 0 0-12 6 6 0 0 0 0 12ZM356.833 78.665a5.1 5.1 0 1 0 0-10.199 5.1 5.1 0 0 0 0 10.199Z"/>
  <path fill="#E78AC3" stroke="#EEE" stroke-width="1.5" d="M331.819 511.942a5.1 5.1 0 1 0 0-10.198 5.1 5.1 0 0 0 0 10.198Zm-20.832-127.791a5.568 5.568 0 1 0 0-11.136 5.568 5.568 0 0 0 0 11.136Zm171.373-3.629a5.196 5.196 0 1 0 .001-10.393 5.196 5.196 0 0 0-.001 10.393Zm-167.176-40.247a5.745 5.745 0 1 0 0-11.49 5.745 5.745 0 0 0 0 11.49Zm-31.006 37.74a5.745 5.745 0 1 0-.001-11.489 5.745 5.745 0 0 0 .001 11.489Zm184.96-265.168a5.292 5.292 0 1 0 0-10.583 5.292 5.292 0 0 0 0 10.583Z"/>
  <path fill="#FC8D62" stroke="#EEE" stroke-width="1.5" d="M443.355 139.484a5.291 5.291 0 1 0 0-10.583 5.291 5.291 0 0 0 0 10.583Zm154.972 319.425a5.478 5.478 0 1 0-.001-10.955 5.478 5.478 0 0 0 .001 10.955ZM467.757 40.416a5.196 5.196 0 1 0 0-10.392 5.196 5.196 0 0 0 0 10.392ZM343.91 412.598a5.478 5.478 0 1 0-.001-10.955 5.478 5.478 0 0 0 .001 10.955Zm266.501-43.541a5.745 5.745 0 1 0 0-11.49 5.745 5.745 0 0 0 0 11.49ZM499.855 545.418a5.1 5.1 0 1 0 0-10.198 5.1 5.1 0 0 0 0 10.198ZM302.016 271.424a5.385 5.385 0 1 0 0-10.77 5.385 5.385 0 0 0 0 10.77Zm45.501-64.86a5.196 5.196 0 1 0 0-10.392 5.196 5.196 0 0 0 0 10.392Zm130.639-30.947a5.291 5.291 0 1 0 0-10.583 5.291 5.291 0 0 0 0 10.583Zm-71.433 5.492a5.098 5.098 0 1 0 .001-10.197 5.098 5.098 0 0 0-.001 10.197Zm73.164-39.412a5.291 5.291 0 1 0 .001-10.583 5.291 5.291 0 0 0-.001 10.583ZM364.65 509.137a5.291 5.291 0 1 0 0-10.583 5.291 5.291 0 0 0 0 10.583Zm124.828-296.494a5.478 5.478 0 1 0-.001-10.955 5.478 5.478 0 0 0 .001 10.955Zm-51.141 226.384a5.478 5.478 0 1 0 0-10.955 5.478 5.478 0 0 0 0 10.955Zm-53.825 68.358a5.568 5.568 0 1 0 0-11.136 5.568 5.568 0 0 0 0 11.136Z"/>
  <path fill="#66C2A5" stroke="#EEE" stroke-width="1.5" d="M556.949 219.048a5.196 5.196 0 1 0 0-10.391 5.196 5.196 0 0 0 0 10.391Z"/>
  <path fill="#FC8D62" stroke="#EEE" stroke-width="1.5" d="M586.373 319.369a5.292 5.292 0 1 0 0-10.584 5.292 5.292 0 0 0 0 10.584Zm165.22-90.173a5.196 5.196 0 1 0 0-10.391 5.196 5.196 0 0 0 0 10.391Zm-490.698 85.767a5.196 5.196 0 1 0 0-10.391 5.196 5.196 0 0 0 0 10.391Zm86.35-23.471a5.196 5.196 0 1 0 0-10.392 5.196 5.196 0 0 0 0 10.392Zm95.203-121.483a5.1 5.1 0 1 0 0-10.198 5.1 5.1 0 0 0 0 10.198Z"/>
  <path fill="#66C2A5" stroke="#EEE" stroke-width="1.5" d="M336.904 331.532a5.197 5.197 0 1 0 0-10.394 5.197 5.197 0 0 0 0 10.394Z"/>
  <path fill="#FC8D62" stroke="#EEE" stroke-width="1.5" d="M542.138 40.387a5.1 5.1 0 1 0 0-10.198 5.1 5.1 0 0 0 0 10.198Zm32.96 284.264a5.196 5.196 0 1 0 0-10.391 5.196 5.196 0 0 0 0 10.391Zm-172.895 190.02a5.291 5.291 0 1 0 0-10.583 5.291 5.291 0 0 0 0 10.583ZM568.774 290.71a5.196 5.196 0 1 0 0-10.391 5.196 5.196 0 0 0 0 10.391Zm26.281-19.526a5.291 5.291 0 1 0 .001-10.583 5.291 5.291 0 0 0-.001 10.583Zm28.423-67.096a5.745 5.745 0 1 0 0-11.49 5.745 5.745 0 0 0 0 11.49Zm-67.492-19.763a5.745 5.745 0 1 0-.001-11.49 5.745 5.745 0 0 0 .001 11.49ZM394.706 455.53a5.478 5.478 0 1 0-.001-10.955 5.478 5.478 0 0 0 .001 10.955Zm175.628-258.3a5.292 5.292 0 1 0 0-10.583 5.292 5.292 0 0 0 0 10.583Zm-78.682 154.125a5.568 5.568 0 1 0 0-11.136 5.568 5.568 0 0 0 0 11.136Z"/>
  <path fill="#66C2A5" stroke="#EEE" stroke-width="1.5" d="M429.784 129.349a5.385 5.385 0 1 0 0-10.77 5.385 5.385 0 0 0 0 10.77Z"/>
  <path fill="#FC8D62" stroke="#EEE" stroke-width="1.5" d="M588.717 175.071a5.291 5.291 0 1 0 .001-10.583 5.291 5.291 0 0 0-.001 10.583ZM577.17 350.388a5.291 5.291 0 1 0 .001-10.583 5.291 5.291 0 0 0-.001 10.583Zm-232.397-236.42a5.291 5.291 0 1 0 0-10.582 5.291 5.291 0 0 0 0 10.582Zm366.515 142.468a5.385 5.385 0 1 0 0-10.77 5.385 5.385 0 0 0 0 10.77ZM520.014 421.897a5.196 5.196 0 1 0 0-10.391 5.196 5.196 0 0 0 0 10.391Z"/>
  <path fill="#66C2A5" stroke="#EEE" stroke-width="1.5" d="M433.185 292.799a5.196 5.196 0 1 0 .001-10.393 5.196 5.196 0 0 0-.001 10.393Z"/>
  <path fill="#FC8D62" stroke="#EEE" stroke-width="1.5" d="M522.063 378.59a5.197 5.197 0 1 0-.002-10.394 5.197 5.197 0 0 0 .002 10.394Zm-67.168-3.474a5.196 5.196 0 1 0 .001-10.393 5.196 5.196 0 0 0-.001 10.393Z"/>
  <path fill="#66C2A5" stroke="#EEE" stroke-width="1.5" d="M628.399 405.474a5.291 5.291 0 1 0 0-10.583 5.291 5.291 0 0 0 0 10.583Z"/>
  <path fill="#FC8D62" stroke="#EEE" stroke-width="1.5" d="M562.548 273.842a5.831 5.831 0 1 0-.001-11.663 5.831 5.831 0 0 0 .001 11.663Zm3.358 88.279a5.291 5.291 0 1 0 0-10.582 5.291 5.291 0 0 0 0 10.582Zm40.768 173.652a5.385 5.385 0 1 0 0-10.77 5.385 5.385 0 0 0 0 10.77ZM350.19 307.051a5.196 5.196 0 1 0 0-10.393 5.196 5.196 0 0 0 0 10.393Zm247.176-61.514a5.291 5.291 0 1 0 0-10.582 5.291 5.291 0 0 0 0 10.582Z"/>
  <path fill="#66C2A5" stroke="#EEE" stroke-width="1.5" d="M362.108 131.457a5.098 5.098 0 1 0 .001-10.197 5.098 5.098 0 0 0-.001 10.197Z"/>
  <path fill="#FC8D62" stroke="#EEE" stroke-width="1.5" d="M362.996 374.682a5.744 5.744 0 1 0 0-11.489 5.745 5.745 0 1 0 0 11.489Zm55.769 22.976a5.196 5.196 0 1 0 0-10.391 5.196 5.196 0 0 0 0 10.391Zm-51.792-53.817a5.196 5.196 0 1 0 0-10.393 5.196 5.196 0 0 0 0 10.393Zm108.455 88.178a5.745 5.745 0 1 0 0-11.49 5.745 5.745 0 0 0 0 11.49Zm61.945-63.576a5.197 5.197 0 1 0 0-10.394 5.197 5.197 0 0 0 0 10.394ZM320.038 237.116a5.745 5.745 0 1 0-.001-11.49 5.745 5.745 0 0 0 .001 11.49Zm39.032 233.143a5.291 5.291 0 1 0 0-10.582 5.291 5.291 0 0 0 0 10.582Zm176.991-57.612a5.385 5.385 0 1 0 .001-10.77 5.385 5.385 0 0 0-.001 10.77Zm-293.324-91.736a5.385 5.385 0 1 0 0-10.77 5.385 5.385 0 0 0 0 10.77Zm228.647 40.969a5.831 5.831 0 1 0-.001-11.663 5.831 5.831 0 0 0 .001 11.663Zm-.502 36.72a5.196 5.196 0 1 0 0-10.392 5.196 5.196 0 0 0 0 10.392Zm-44.02-201.814a5.385 5.385 0 1 0 0-10.77 5.385 5.385 0 0 0 0 10.77Z"/>
  <path fill="#66C2A5" stroke="#EEE" stroke-width="1.5" d="M570.606 314.109a5.197 5.197 0 1 0-.002-10.394 5.197 5.197 0 0 0 .002 10.394Z"/>
  <path fill="#FC8D62" stroke="#EEE" stroke-width="1.5" d="M298.889 257.228a5.292 5.292 0 1 0 0-10.584 5.292 5.292 0 0 0 0 10.584Zm162.112-20.35a5.291 5.291 0 1 0 .001-10.583 5.291 5.291 0 0 0-.001 10.583Zm-91.305 54.242a5.385 5.385 0 1 0 0-10.77 5.385 5.385 0 0 0 0 10.77Zm-1.595-21.898a5.568 5.568 0 1 0 0-11.136 5.568 5.568 0 0 0 0 11.136Zm129.465-137.656a5.291 5.291 0 1 0 0-10.582 5.291 5.291 0 0 0 0 10.582Zm-83.306 238.48a5.291 5.291 0 1 0 0-10.582 5.291 5.291 0 0 0 0 10.582Zm194.613-79.423a5.291 5.291 0 1 0 0-10.583 5.291 5.291 0 0 0 0 10.583Zm-294.821 21.165a5.292 5.292 0 1 0 0-10.583 5.292 5.292 0 0 0 0 10.583Zm55.158-95.827a5.098 5.098 0 1 0 .001-10.197 5.098 5.098 0 0 0-.001 10.197Zm324.981-25.256a5.197 5.197 0 1 0 0-10.395 5.197 5.197 0 0 0 0 10.395Zm-362.517 66.848a5.478 5.478 0 1 0 0-10.955 5.478 5.478 0 0 0 0 10.955Z"/>
  <path fill="#66C2A5" stroke="#EEE" stroke-width="1.5" d="M387.562 548.605a5.196 5.196 0 1 0 0-10.391 5.196 5.196 0 0 0 0 10.391Z"/>
  <path fill="#FC8D62" stroke="#EEE" stroke-width="1.5" d="M341.224 381.291a5.385 5.385 0 1 0 .001-10.77 5.385 5.385 0 0 0-.001 10.77Zm27.381-55.935a5.292 5.292 0 1 0 0-10.583 5.292 5.292 0 0 0 0 10.583Zm89.288-156.435a5.1 5.1 0 1 0 0-10.198 5.1 5.1 0 0 0 0 10.198Zm119.992 208.852a5.477 5.477 0 1 0 0-10.954 5.477 5.477 0 0 0 0 10.954Zm93.684-4.998a5.477 5.477 0 1 0 0-10.954 5.477 5.477 0 0 0 0 10.954Zm-268.583 22.088a5.196 5.196 0 1 0 0-10.391 5.196 5.196 0 0 0 0 10.391Zm-2.378 72.407a5.916 5.916 0 1 0 0-11.832 5.916 5.916 0 0 0 0 11.832Zm167.79-394.582a5.291 5.291 0 1 0 0-10.583 5.291 5.291 0 0 0 0 10.583ZM359.499 440.6a5.478 5.478 0 1 0 0-10.955 5.478 5.478 0 0 0 0 10.955Zm144.274-78.444a5.291 5.291 0 1 0 0-10.582 5.291 5.291 0 0 0 0 10.582Zm200.982 34.982a5.196 5.196 0 1 0 .001-10.393 5.196 5.196 0 0 0-.001 10.393ZM169.201 332.62a5.1 5.1 0 1 0 0-10.198 5.1 5.1 0 0 0 0 10.198Zm225.264-143.879a5.1 5.1 0 1 0 0-10.198 5.1 5.1 0 0 0 0 10.198Zm-66.059 99.855a5.196 5.196 0 1 0 0-10.392 5.196 5.196 0 0 0 0 10.392Zm148.527 249.655a5.098 5.098 0 1 0 .001-10.197 5.098 5.098 0 0 0-.001 10.197Zm143.565-111.333a5.385 5.385 0 1 0 0-10.77 5.385 5.385 0 0 0 0 10.77Zm46.698 9.327a5.916 5.916 0 1 0 0-11.832 5.916 5.916 0 0 0 0 11.832Zm-216.135 81.35a5.385 5.385 0 1 0 0-10.77 5.385 5.385 0 0 0 0 10.77ZM389.855 364.85a5.196 5.196 0 1 0 0-10.393 5.196 5.196 0 0 0 0 10.393Zm-192.307-21.348a5.385 5.385 0 1 0 0-10.77 5.385 5.385 0 0 0 0 10.77Zm392.253-42.095a5.292 5.292 0 1 0 0-10.584 5.292 5.292 0 0 0 0 10.584Z"/>
  <path fill="#66C2A5" stroke="#EEE" stroke-width="1.5" d="M337.484 155.211a5.098 5.098 0 1 0 .001-10.197 5.098 5.098 0 0 0-.001 10.197Z"/>
  <path fill="#FC8D62" stroke="#EEE" stroke-width="1.5" d="M398.39 302.322a5.291 5.291 0 1 0 0-10.582 5.291 5.291 0 0 0 0 10.582Zm269.625 231.794a5.196 5.196 0 1 0 0-10.392 5.196 5.196 0 0 0 0 10.392Zm-105.93-97.657a5.291 5.291 0 1 0 0-10.583 5.291 5.291 0 0 0 0 10.583Zm-331.763-8.143a5.1 5.1 0 1 0 0-10.198 5.1 5.1 0 0 0 0 10.198Zm353.394-11.701a5.291 5.291 0 1 0 0-10.582 5.291 5.291 0 0 0 0 10.582ZM427.484 385.74a5.196 5.196 0 1 0 0-10.391 5.196 5.196 0 0 0 0 10.391Zm48.491-165.279a5.477 5.477 0 1 0 0-10.954 5.478 5.478 0 1 0 0 10.954ZM254.609 475.134a5.1 5.1 0 1 0 0-10.198 5.1 5.1 0 0 0 0 10.198Z"/>
  <path fill="#66C2A5" stroke="#EEE" stroke-width="1.5" d="M363.015 226.394a5.1 5.1 0 1 0 0-10.198 5.1 5.1 0 0 0 0 10.198Zm46.111-68.689a5.196 5.196 0 1 0 0-10.392 5.196 5.196 0 0 0 0 10.392Z"/>
  <path fill="#FC8D62" stroke="#EEE" stroke-width="1.5" d="M357.037 239.617a5.098 5.098 0 1 0 .001-10.197 5.098 5.098 0 0 0-.001 10.197ZM476.7 126.526a5.385 5.385 0 1 0 0-10.77 5.385 5.385 0 0 0 0 10.77Z"/>
  <path fill="#66C2A5" stroke="#EEE" stroke-width="1.5" d="M589.524 219.931a5.567 5.567 0 1 0 0-11.135 5.568 5.568 0 0 0 0 11.135Z"/>
  <path fill="#FC8D62" stroke="#EEE" stroke-width="1.5" d="M495.622 150.63a5.568 5.568 0 1 0 0-11.136 5.568 5.568 0 0 0 0 11.136Z"/>
  <path fill="#66C2A5" stroke="#EEE" stroke-width="1.5" d="M437.72 411.915a5.197 5.197 0 1 0-.002-10.394 5.197 5.197 0 0 0 .002 10.394Z"/>
  <path fill="#FC8D62" stroke="#EEE" stroke-width="1.5" d="M393.318 409.589a5.291 5.291 0 1 0 0-10.583 5.291 5.291 0 0 0 0 10.583Zm273.921-142.082a5.291 5.291 0 1 0 0-10.583 5.291 5.291 0 0 0 0 10.583ZM456.504 567.7a5.291 5.291 0 1 0 0-10.582 5.291 5.291 0 0 0 0 10.582ZM263.201 137.733a5.385 5.385 0 1 0 0-10.77 5.385 5.385 0 0 0 0 10.77Z"/>
  <path fill="#66C2A5" stroke="#EEE" stroke-width="1.5" d="M647.085 221.508a5.291 5.291 0 1 0 0-10.583 5.291 5.291 0 0 0 0 10.583Z"/>
  <path fill="#FC8D62" stroke="#EEE" stroke-width="1.5" d="M305.564 411.413a5.745 5.745 0 1 0 0-11.49 5.745 5.745 0 0 0 0 11.49Zm72.142-251.792a5.291 5.291 0 1 0 0-10.583 5.291 5.291 0 0 0 0 10.583Zm299.012 54.891a5.291 5.291 0 1 0 0-10.583 5.291 5.291 0 0 0 0 10.583Zm-226.753 132.42a5.292 5.292 0 1 0 0-10.583 5.292 5.292 0 0 0 0 10.583Zm35.355 120.642a6.403 6.403 0 1 0 0-12.805 6.403 6.403 0 0 0 0 12.805Zm83.804-19.41a5.745 5.745 0 1 0-.001-11.49 5.745 5.745 0 0 0 .001 11.49ZM429.036 332.142a5.291 5.291 0 1 0 .001-10.583 5.291 5.291 0 0 0-.001 10.583Zm231.695-6.26a5.291 5.291 0 1 0 0-10.582 5.291 5.291 0 0 0 0 10.582Zm-22.324-92.725a5.385 5.385 0 1 0 0-10.77 5.385 5.385 0 0 0 0 10.77Z"/>
  <path fill="#66C2A5" stroke="#EEE" stroke-width="1.5" d="M436.366 216.838a5.745 5.745 0 1 0-.001-11.489 5.745 5.745 0 0 0 .001 11.489Z"/>
  <path fill="#FC8D62" stroke="#EEE" stroke-width="1.5" d="M445.553 578.323a5.291 5.291 0 1 0 0-10.582 5.291 5.291 0 0 0 0 10.582ZM285.849 307.219a5.83 5.83 0 1 0 0-11.662 5.83 5.83 0 0 0 0 11.662ZM421.66 174.852a5.1 5.1 0 1 0 0-10.198 5.1 5.1 0 0 0 0 10.198Zm159.748 292.941a5.385 5.385 0 1 0 0-10.77 5.385 5.385 0 0 0 0 10.77ZM352.139 342.832a5.385 5.385 0 1 0 .001-10.77 5.385 5.385 0 0 0-.001 10.77Zm250.999 13.895a5.385 5.385 0 1 0 0-10.77 5.385 5.385 0 0 0 0 10.77ZM359.454 542.455a5.385 5.385 0 1 0 0-10.77 5.385 5.385 0 0 0 0 10.77Zm-85.801-338.417a5.196 5.196 0 1 0 0-10.392 5.196 5.196 0 0 0 0 10.392Zm328.492-11.611a5.656 5.656 0 0 0 5.656-5.657 5.656 5.656 0 1 0-11.313 0 5.657 5.657 0 0 0 5.657 5.657ZM339.689 365.22a5.291 5.291 0 1 0 0-10.582 5.291 5.291 0 0 0 0 10.582Zm21.966-185.37a5.385 5.385 0 1 0 0-10.77 5.385 5.385 0 0 0 0 10.77Zm-6.462 80.507a5.196 5.196 0 1 0 .001-10.393 5.196 5.196 0 0 0-.001 10.393Zm39.092 68.515a5.385 5.385 0 1 0 0-10.77 5.385 5.385 0 0 0 0 10.77Zm118.638-145.239a5.1 5.1 0 1 0 0-10.198 5.1 5.1 0 0 0 0 10.198ZM381.126 403.986a5.567 5.567 0 0 0 5.567-5.568 5.567 5.567 0 1 0-11.135 0 5.568 5.568 0 0 0 5.568 5.568Zm80.08-257.904a5.291 5.291 0 1 0 0-10.582 5.291 5.291 0 0 0 0 10.582Zm107.082 262.563a5.291 5.291 0 1 0 .001-10.583 5.291 5.291 0 0 0-.001 10.583Zm-145.676 2.022a5.196 5.196 0 1 0 0-10.391 5.196 5.196 0 0 0 0 10.391Zm106.59-67.155a5.291 5.291 0 1 0 .001-10.583 5.291 5.291 0 0 0-.001 10.583Z"/>
  <path fill="#FC8D62" stroke="#EEE" stroke-width="1.5" d="M344.969 356.584a5.291 5.291 0 1 0 0-10.583 5.291 5.291 0 0 0 0 10.583Zm-17.795-53.507a5.196 5.196 0 1 0 0-10.392 5.196 5.196 0 0 0 0 10.392Zm221.618 92.795a5.291 5.291 0 1 0 .001-10.583 5.291 5.291 0 0 0-.001 10.583Zm-145.438-13.009a5.385 5.385 0 1 0 0-10.77 5.385 5.385 0 0 0 0 10.77ZM336.333 239.1a5.196 5.196 0 1 0 0-10.392 5.196 5.196 0 0 0 0 10.392Zm184.66 221.919a5.291 5.291 0 1 0 0-10.583 5.291 5.291 0 0 0 0 10.583Zm-21.179-124.156a5.292 5.292 0 1 0 0-10.584 5.292 5.292 0 0 0 0 10.584Zm11.53 58.731a5.291 5.291 0 1 0 0-10.582 5.291 5.291 0 0 0 0 10.582Zm-64.09-121.46a5.1 5.1 0 1 0 0-10.198 5.1 5.1 0 0 0 0 10.198Zm99.26-16.455a5.1 5.1 0 1 0 0-10.198 5.1 5.1 0 0 0 0 10.198Z"/>
  <path fill="#66C2A5" stroke="#EEE" stroke-width="1.5" d="M535.608 435.397a5.385 5.385 0 1 0 0-10.77 5.385 5.385 0 0 0 0 10.77Z"/>
  <path fill="#FC8D62" stroke="#EEE" stroke-width="1.5" d="M259.609 441.368a5.568 5.568 0 1 0 0-11.136 5.568 5.568 0 0 0 0 11.136ZM520.243 166.4a5.292 5.292 0 1 0-.002-10.584 5.292 5.292 0 0 0 .002 10.584ZM299.049 478.171a5.196 5.196 0 1 0 0-10.391 5.196 5.196 0 0 0 0 10.391Zm-61.18-357.386a5.1 5.1 0 1 0 0-10.198 5.1 5.1 0 0 0 0 10.198Zm311.351 217.58a5.291 5.291 0 1 0 0-10.583 5.291 5.291 0 0 0 0 10.583Zm-211.504-62.958a5.291 5.291 0 1 0 0-10.583 5.291 5.291 0 0 0 0 10.583Zm172.456-59.367a5.098 5.098 0 1 0 .001-10.197 5.098 5.098 0 0 0-.001 10.197Zm86.258 296.165a5.291 5.291 0 1 0 0-10.582 5.291 5.291 0 0 0 0 10.582ZM301.236 123.222a5.291 5.291 0 1 0 0-10.582 5.291 5.291 0 0 0 0 10.582Zm278.366 375.435a5.385 5.385 0 1 0 0-10.77 5.385 5.385 0 0 0 0 10.77Zm-123.153-98.22a5.196 5.196 0 1 0 0-10.391 5.196 5.196 0 0 0 0 10.391Zm-19.993-138.149a5.478 5.478 0 1 0-.001-10.955 5.478 5.478 0 0 0 .001 10.955Zm114.974 6.946a5.196 5.196 0 1 0 0-10.391 5.196 5.196 0 0 0 0 10.391Zm74.257 20.029a5.477 5.477 0 1 0 0-10.954 5.477 5.477 0 0 0 0 10.954Zm-99.981 68.865a5.567 5.567 0 1 0 0-11.135 5.567 5.567 0 0 0 0 11.135ZM452.694 26a5.1 5.1 0 1 0 0-10.198 5.1 5.1 0 0 0 0 10.198Zm12.355 264.216a5.292 5.292 0 1 0 0-10.583 5.292 5.292 0 0 0 0 10.583Z"/>
  <path fill="#66C2A5" stroke="#EEE" stroke-width="1.5" d="M544.56 202.354a5.292 5.292 0 1 0 0-10.583 5.292 5.292 0 0 0 0 10.583Z"/>
  <path fill="#FC8D62" stroke="#EEE" stroke-width="1.5" d="M631.197 433.403a5.291 5.291 0 1 0 0-10.583 5.291 5.291 0 0 0 0 10.583ZM460.408 207.641a5.385 5.385 0 1 0 0-10.77 5.385 5.385 0 0 0 0 10.77Zm169.537 134.341a6.325 6.325 0 1 0 0-12.65 6.325 6.325 0 0 0 0 12.65Zm104.575 34.065a5.291 5.291 0 1 0 0-10.582 5.291 5.291 0 0 0 0 10.582Zm-79.407-119.949a5.197 5.197 0 1 0-.002-10.394 5.197 5.197 0 0 0 .002 10.394ZM554.55 323.154a5.196 5.196 0 1 0 0-10.392 5.196 5.196 0 0 0 0 10.392Zm-232.606-114.73a5.477 5.477 0 1 0 0-10.954 5.478 5.478 0 1 0 0 10.954ZM616.56 222.7a5.292 5.292 0 1 0 0-10.583 5.292 5.292 0 0 0 0 10.583ZM377.432 364.081a5.196 5.196 0 1 0 0-10.392 5.196 5.196 0 0 0 0 10.392Zm69.176-244a5.385 5.385 0 1 0 0-10.77 5.385 5.385 0 0 0 0 10.77ZM444.77 322.26a5.291 5.291 0 1 0 0-10.582 5.291 5.291 0 0 0 0 10.582Zm175.359 176.133a5.916 5.916 0 1 0 0-11.832 5.916 5.916 0 0 0 0 11.832Zm53.085-198.137a5.385 5.385 0 1 0 0-10.77 5.385 5.385 0 0 0 0 10.77Z"/>
  <path fill="#66C2A5" stroke="#EEE" stroke-width="1.5" d="M466.609 381.397a5.197 5.197 0 1 0 0-10.395 5.197 5.197 0 0 0 0 10.395Z"/>
  <path fill="#FC8D62" stroke="#EEE" stroke-width="1.5" d="M347.498 333.848a5.196 5.196 0 1 0 0-10.392 5.196 5.196 0 0 0 0 10.392Zm177.532 191.83a5.196 5.196 0 1 0 0-10.392 5.196 5.196 0 0 0 0 10.392Zm-43.262-128.274a5.292 5.292 0 1 0 0-10.583 5.292 5.292 0 0 0 0 10.583Zm91.945-291.167a7.681 7.681 0 0 0 0-15.362 7.681 7.681 0 1 0 0 15.362ZM380.007 342.053a5.1 5.1 0 1 0 0-10.198 5.1 5.1 0 0 0 0 10.198Zm179.797 236.852a5.1 5.1 0 1 0 0-10.198 5.1 5.1 0 0 0 0 10.198Z"/>
  <path fill="#8DA0CB" stroke="#EEE" stroke-width="1.5" d="M565.137 556.745a6.633 6.633 0 1 0 0-13.267 6.633 6.633 0 0 0 0 13.267Z"/>
  <path fill="#FC8D62" stroke="#EEE" stroke-width="1.5" d="M457.507 338.755a5.291 5.291 0 1 0 0-10.582 5.291 5.291 0 0 0 0 10.582Zm-210.69-29.581a5.292 5.292 0 1 0 0-10.583 5.292 5.292 0 0 0 0 10.583Zm72.337 213.389a5.568 5.568 0 1 0 0-11.136 5.568 5.568 0 0 0 0 11.136Zm194.075-232.764a5.478 5.478 0 1 0-.001-10.955 5.478 5.478 0 0 0 .001 10.955Zm-107.252-163.31a5.385 5.385 0 1 0 0-10.77 5.385 5.385 0 0 0 0 10.77Zm333.574 296.604a5.197 5.197 0 1 0 0-10.395 5.197 5.197 0 0 0 0 10.395ZM460.212 305.727a6 6 0 1 0 0-12 6 6 0 0 0 0 12Zm145.59-136.801a5.477 5.477 0 1 0 0-10.954 5.477 5.477 0 0 0 0 10.954Zm-96.698-.239a5.196 5.196 0 1 0 0-10.392 5.196 5.196 0 0 0 0 10.392Z"/>
  <path fill="#66C2A5" stroke="#EEE" stroke-width="1.5" d="M448.009 242.519a5.291 5.291 0 1 0 0-10.582 5.291 5.291 0 0 0 0 10.582Z"/>
  <path fill="#FC8D62" stroke="#EEE" stroke-width="1.5" d="M402.39 442.781a6.781 6.781 0 0 0 6.782-6.782 6.781 6.781 0 0 0-6.782-6.782 6.781 6.781 0 0 0-6.782 6.782 6.781 6.781 0 0 0 6.782 6.782Zm86.587-168.753a5.745 5.745 0 1 0-.001-11.49 5.745 5.745 0 0 0 .001 11.49ZM658.26 168.431a5.1 5.1 0 1 0 0-10.198 5.1 5.1 0 0 0 0 10.198ZM498.422 433.99a5.385 5.385 0 1 0 0-10.77 5.385 5.385 0 0 0 0 10.77Zm28.79-231.829a5.196 5.196 0 1 0 0-10.391 5.196 5.196 0 0 0 0 10.391ZM403.661 531.832a5.291 5.291 0 1 0 .001-10.583 5.291 5.291 0 0 0-.001 10.583Zm-80.463-165.907a5.478 5.478 0 1 0-.001-10.955 5.478 5.478 0 0 0 .001 10.955Zm380.038-89.6a5.83 5.83 0 1 0 0-11.662 5.83 5.83 0 0 0 0 11.662ZM446.238 612.214a5.1 5.1 0 1 0 0-10.198 5.1 5.1 0 0 0 0 10.198Zm169.631-285.957a5.291 5.291 0 1 0 0-10.583 5.291 5.291 0 0 0 0 10.583Zm31.339 77.982a6.708 6.708 0 1 0 0-13.416 6.708 6.708 0 1 0 0 13.416ZM534.981 187.403a5.196 5.196 0 1 0 0-10.391 5.196 5.196 0 0 0 0 10.391Zm-188.023 1.376a5.292 5.292 0 1 0 0-10.584 5.292 5.292 0 0 0 0 10.584Z"/>
  <path fill="#66C2A5" stroke="#EEE" stroke-width="1.5" d="M583.668 449.32a5.292 5.292 0 1 0 0-10.583 5.292 5.292 0 0 0 0 10.583Z"/>
  <path fill="#FC8D62" stroke="#EEE" stroke-width="1.5" d="M305.386 290.251a5.196 5.196 0 1 0 0-10.393 5.196 5.196 0 0 0 0 10.393Zm201.395-89.365a5.478 5.478 0 1 0-.001-10.955 5.478 5.478 0 0 0 .001 10.955Zm-80.593 284.562a5.292 5.292 0 1 0 0-10.584 5.292 5.292 0 0 0 0 10.584ZM569.83 216.201a5.196 5.196 0 1 0 0-10.392 5.196 5.196 0 0 0 0 10.392ZM670.9 335.406a5.656 5.656 0 0 0 5.656-5.656 5.656 5.656 0 1 0-5.656 5.656Zm-118.474 95.738a5.196 5.196 0 1 0 .001-10.393 5.196 5.196 0 0 0-.001 10.393Zm-163.042-165.44a5.657 5.657 0 1 0 0-11.313 5.657 5.657 0 0 0 0 11.313Zm301.641 64.636a5.478 5.478 0 1 0 0-10.955 5.478 5.478 0 0 0 0 10.955Z"/>
  <path fill="#66C2A5" stroke="#EEE" stroke-width="1.5" d="M180.15 183.643a5.1 5.1 0 1 0 0-10.198 5.1 5.1 0 0 0 0 10.198Z"/>
  <path fill="#FC8D62" stroke="#EEE" stroke-width="1.5" d="M643.32 171.951a6.48 6.48 0 1 0 0-12.962 6.48 6.48 0 0 0 0 12.962Z"/>
  <path fill="#66C2A5" stroke="#EEE" stroke-width="1.5" d="M390.095 167.444a5.196 5.196 0 1 0 .001-10.393 5.196 5.196 0 0 0-.001 10.393Z"/>
  <path fill="#FC8D62" stroke="#EEE" stroke-width="1.5" d="M588.895 201.434a5.385 5.385 0 1 0 0-10.77 5.385 5.385 0 0 0 0 10.77Zm14.411 135.774a5.292 5.292 0 1 0 0-10.583 5.292 5.292 0 0 0 0 10.583Zm-9.491 100.925a5.196 5.196 0 1 0 0-10.391 5.196 5.196 0 0 0 0 10.391Zm61.936-162.639a5.291 5.291 0 1 0 .001-10.583 5.291 5.291 0 0 0-.001 10.583Zm-57.47-17.609a5.291 5.291 0 1 0 .001-10.583 5.291 5.291 0 0 0-.001 10.583Zm-222.245-51.517a5.1 5.1 0 1 0 0-10.198 5.1 5.1 0 0 0 0 10.198Zm176.184-12.955a5.385 5.385 0 1 0 0-10.77 5.385 5.385 0 0 0 0 10.77ZM336.993 472.257a5.196 5.196 0 1 0 0-10.391 5.196 5.196 0 0 0 0 10.391Zm200.542-232.77a5.292 5.292 0 1 0-.002-10.584 5.292 5.292 0 0 0 .002 10.584ZM430.604 378.515a5.196 5.196 0 1 0 .001-10.393 5.196 5.196 0 0 0-.001 10.393Zm-7.641 73.88a5.385 5.385 0 1 0 0-10.77 5.385 5.385 0 0 0 0 10.77Zm139.201-151.128a5.196 5.196 0 1 0 0-10.392 5.196 5.196 0 0 0 0 10.392ZM402.793 486.48a5.291 5.291 0 1 0 .001-10.583 5.291 5.291 0 0 0-.001 10.583Zm-18.897-289.372a5.1 5.1 0 1 0 0-10.198 5.1 5.1 0 0 0 0 10.198Zm213.671 205.425a5.385 5.385 0 1 0 0-10.77 5.385 5.385 0 0 0 0 10.77ZM491.159 162.925a5.197 5.197 0 1 0-.002-10.394 5.197 5.197 0 0 0 .002 10.394Zm-233.2 206.913a5.568 5.568 0 1 0 0-11.136 5.568 5.568 0 0 0 0 11.136Zm237.136 132.425a7.348 7.348 0 1 0 0-14.696 7.348 7.348 0 0 0 0 14.696Zm-65.714-340.729a5.196 5.196 0 1 0 0-10.392 5.196 5.196 0 0 0 0 10.392Zm281.258 247.405a5.1 5.1 0 1 0 0-10.198 5.1 5.1 0 0 0 0 10.198Zm-214.546-23.871a5.196 5.196 0 1 0 0-10.391 5.196 5.196 0 0 0 0 10.391ZM610.844 210.61a5.568 5.568 0 1 0 0-11.136 5.568 5.568 0 0 0 0 11.136ZM551.76 459.454a5.385 5.385 0 1 0 0-10.77 5.385 5.385 0 0 0 0 10.77Z"/>
  <path fill="#66C2A5" stroke="#EEE" stroke-width="1.5" d="M384.632 249.909a5.656 5.656 0 0 0 5.656-5.657 5.656 5.656 0 0 0-5.656-5.656 5.656 5.656 0 1 0 0 11.313Zm166.656-102.42a5.385 5.385 0 1 0 0-10.77 5.385 5.385 0 0 0 0 10.77Z"/>
  <path fill="#FC8D62" stroke="#EEE" stroke-width="1.5" d="M308.428 571.58a5.1 5.1 0 1 0 0-10.198 5.1 5.1 0 0 0 0 10.198Zm212.859-261.044a5.291 5.291 0 1 0 .001-10.583 5.291 5.291 0 0 0-.001 10.583Z"/>
  <path fill="#8DA0CB" stroke="#EEE" stroke-width="1.5" d="M600.497 424.368a5.291 5.291 0 1 0 0-10.583 5.291 5.291 0 0 0 0 10.583Zm-253.75-267.089a5.196 5.196 0 1 0 0-10.392 5.196 5.196 0 0 0 0 10.392ZM200.552 301.963a5.291 5.291 0 1 0 0-10.582 5.291 5.291 0 0 0 0 10.582Zm20.078 59.09a5.196 5.196 0 1 0 0-10.392 5.196 5.196 0 0 0 0 10.392Zm-20.225 50.07a5.291 5.291 0 1 0 .001-10.583 5.291 5.291 0 0 0-.001 10.583Zm503.237-116.557a5.196 5.196 0 1 0 0-10.391 5.196 5.196 0 0 0 0 10.391Zm-61.497 241.139a5.1 5.1 0 1 0 0-10.198 5.1 5.1 0 0 0 0 10.198ZM511.732 322.132a5.478 5.478 0 1 0-.001-10.955 5.478 5.478 0 0 0 .001 10.955Zm210.839 2.662a5.385 5.385 0 1 0 0-10.77 5.385 5.385 0 0 0 0 10.77ZM376.899 481.716a5.385 5.385 0 1 0 .001-10.77 5.385 5.385 0 0 0-.001 10.77Z"/>
  <path stroke="#000" stroke-width="2" d="m458.211 271.385 159-204m-73 237 159-204"/>
  <path fill="#000" d="M624.21 57.636c0 .57-.093 1.05-.28 1.442a2.46 2.46 0 0 1-.742.938 2.942 2.942 0 0 1-1.092.504c-.42.103-.868.154-1.344.154h-1.736V65h-1.148V54.248h2.842a5.3 5.3 0 0 1 1.442.182c.429.121.798.317 1.106.588.308.261.541.607.7 1.036.168.43.252.957.252 1.582Zm-1.148-.056c0-.336-.047-.649-.14-.938a2.111 2.111 0 0 0-.406-.742 1.754 1.754 0 0 0-.63-.504 1.977 1.977 0 0 0-.868-.182h-2.002v4.48h1.96c.681 0 1.199-.191 1.554-.574.355-.383.532-.896.532-1.54Zm8.328 7.238a1.559 1.559 0 0 1-.952.294c-.606 0-.91-.471-.91-1.414a1.9 1.9 0 0 1-.364.714 1.99 1.99 0 0 1-.532.448 1.984 1.984 0 0 1-.588.238 2.59 2.59 0 0 1-.574.07c-.728 0-1.288-.2-1.68-.602-.392-.401-.588-.966-.588-1.694 0-.327.056-.62.168-.882.112-.261.266-.495.462-.7.206-.205.444-.383.714-.532.28-.159.579-.29.896-.392a6.796 6.796 0 0 1 1.26-.308l.77-.098c0-.476-.028-.863-.084-1.162-.056-.299-.144-.532-.266-.7a.865.865 0 0 0-.476-.336 2.141 2.141 0 0 0-.7-.098c-.28 0-.508.037-.686.112a.945.945 0 0 0-.392.266.848.848 0 0 0-.182.392 2.21 2.21 0 0 0-.042.434c0 .065.005.13.014.196.01.065.024.121.042.168l-1.134.098a8.623 8.623 0 0 1-.042-.252 5.177 5.177 0 0 1-.014-.35c0-.616.21-1.106.63-1.47.42-.364 1.036-.546 1.848-.546.42 0 .789.047 1.106.14.327.084.598.233.812.448.215.205.374.485.476.84.112.345.168.784.168 1.316v4.018c0 .215.038.383.112.504.075.112.257.168.546.168h.182v.672Zm-1.918-3.934c-.056 0-.14.01-.252.028-.112.01-.233.023-.364.042-.13.019-.261.047-.392.084-.13.028-.247.056-.35.084-.662.215-1.129.471-1.4.77-.27.299-.406.672-.406 1.12 0 .392.112.681.336.868.224.177.565.266 1.022.266.224 0 .444-.047.658-.14.215-.103.406-.243.574-.42.178-.177.318-.383.42-.616.103-.233.154-.49.154-.77v-1.316Zm6.664-2.002c0-.121-.014-.243-.042-.364a.671.671 0 0 0-.14-.336.702.702 0 0 0-.308-.252c-.13-.065-.312-.098-.546-.098-.317 0-.616.145-.896.434-.27.29-.471.695-.602 1.218v5.53h-1.106v-8.036h1.064v1.078c.056-.14.145-.28.266-.42.131-.15.285-.285.462-.406.178-.13.369-.233.574-.308a1.83 1.83 0 0 1 .672-.126c.327 0 .598.051.812.154.224.093.402.224.532.392.14.159.234.345.28.56.056.215.075.439.056.672l-1.078.308Zm2.046-3.276v-1.358h1.232v1.358h-1.232Zm.07 9.394v-8.036h1.092V65h-1.092Zm7.732-2.422c0 .85-.21 1.493-.63 1.932-.42.439-1.083.658-1.988.658-.878 0-1.512-.168-1.904-.504-.392-.345-.588-.812-.588-1.4 0-.177.018-.35.056-.518a4.2 4.2 0 0 1 .126-.476l.952.112c-.019.093-.042.2-.07.322a2.036 2.036 0 0 0-.028.308c0 .392.098.7.294.924.205.215.578.322 1.12.322.513 0 .914-.117 1.204-.35.298-.243.448-.593.448-1.05 0-.196-.028-.36-.084-.49a.902.902 0 0 0-.28-.35 2.133 2.133 0 0 0-.504-.308 11.082 11.082 0 0 0-.77-.308l-.868-.322a3.532 3.532 0 0 1-.63-.294 2.059 2.059 0 0 1-.49-.406 1.819 1.819 0 0 1-.308-.546 2.585 2.585 0 0 1-.098-.756c0-.728.2-1.302.602-1.722.401-.43.966-.644 1.694-.644.392 0 .742.051 1.05.154.308.093.564.229.77.406.205.168.359.373.462.616.112.233.168.485.168.756v.21c0 .056-.01.112-.028.168l-1.092.14c0-.075.004-.154.014-.238a1.455 1.455 0 0 0 0-.28 1.095 1.095 0 0 0-.336-.714c-.206-.205-.523-.308-.952-.308-.448 0-.789.112-1.022.336-.234.224-.35.527-.35.91 0 .317.093.565.28.742.196.168.504.331.924.49l.952.364c.298.112.564.233.798.364.242.13.443.28.602.448.168.159.294.345.378.56.084.215.126.462.126.742ZM702.868 98V87.248h1.148v9.772h3.948V98h-5.096Zm12.348-4.06c0 .747-.08 1.39-.238 1.932-.159.532-.378.97-.658 1.316-.28.336-.612.583-.994.742a3.049 3.049 0 0 1-1.204.238c-.43 0-.836-.08-1.218-.238a2.579 2.579 0 0 1-.98-.742c-.28-.345-.5-.784-.658-1.316-.159-.541-.238-1.185-.238-1.932 0-.756.079-1.4.238-1.932.158-.532.378-.966.658-1.302.28-.345.606-.597.98-.756a3.143 3.143 0 0 1 1.218-.238c.429 0 .83.08 1.204.238.382.159.714.41.994.756.28.336.499.77.658 1.302.158.532.238 1.176.238 1.932Zm-1.092 0c0-.345-.028-.71-.084-1.092a3.44 3.44 0 0 0-.294-1.05 2.108 2.108 0 0 0-.602-.812c-.262-.215-.602-.322-1.022-.322-.42 0-.761.107-1.022.322a2.225 2.225 0 0 0-.616.812c-.14.317-.238.667-.294 1.05-.047.383-.07.747-.07 1.092 0 .336.023.695.07 1.078.056.383.154.737.294 1.064.149.317.354.583.616.798.261.205.602.308 1.022.308.42 0 .76-.103 1.022-.308a2.13 2.13 0 0 0 .602-.798c.149-.327.247-.681.294-1.064a7.47 7.47 0 0 0 .084-1.078Zm6.64 4.06v-5.222c0-.383-.028-.7-.084-.952a1.428 1.428 0 0 0-.266-.602.847.847 0 0 0-.434-.308 1.87 1.87 0 0 0-.644-.098c-.261 0-.49.065-.686.196-.196.13-.364.308-.504.532a2.73 2.73 0 0 0-.294.77 4.14 4.14 0 0 0-.098.91V98h-1.092v-8.036h1.092v1.176c.178-.43.434-.756.77-.98a2.14 2.14 0 0 1 1.19-.336c.29 0 .56.042.812.126.262.075.49.215.686.42.196.205.35.48.462.826.122.336.182.765.182 1.288V98h-1.092Zm7.34.014v-1.106c-.149.355-.41.649-.784.882-.373.233-.826.35-1.358.35a2.9 2.9 0 0 1-1.022-.182 2.159 2.159 0 0 1-.868-.658c-.242-.308-.438-.714-.588-1.218-.149-.513-.224-1.153-.224-1.918 0-.784.07-1.447.21-1.988.14-.55.336-.999.588-1.344.252-.345.546-.593.882-.742a2.62 2.62 0 0 1 1.106-.238c.43 0 .826.098 1.19.294.364.187.64.476.826.868v-3.766h1.092v10.766h-1.05Zm-.042-4.018a4.96 4.96 0 0 0-.168-1.358c-.112-.401-.261-.733-.448-.994a1.749 1.749 0 0 0-.63-.602 1.395 1.395 0 0 0-.728-.21c-.298 0-.555.06-.77.182-.214.112-.392.299-.532.56-.14.261-.242.602-.308 1.022-.065.42-.098.933-.098 1.54 0 .56.042 1.031.126 1.414.084.383.206.69.364.924.168.233.369.401.602.504.234.103.5.154.798.154.262 0 .5-.051.714-.154.224-.103.416-.27.574-.504.159-.243.28-.565.364-.966.094-.41.14-.915.14-1.512Zm8.728-.056c0 .747-.079 1.39-.238 1.932-.159.532-.378.97-.658 1.316-.28.336-.611.583-.994.742a3.045 3.045 0 0 1-1.204.238 3.15 3.15 0 0 1-1.218-.238 2.586 2.586 0 0 1-.98-.742c-.28-.345-.499-.784-.658-1.316-.159-.541-.238-1.185-.238-1.932 0-.756.079-1.4.238-1.932.159-.532.378-.966.658-1.302a2.54 2.54 0 0 1 .98-.756 3.15 3.15 0 0 1 1.218-.238c.429 0 .831.08 1.204.238a2.5 2.5 0 0 1 .994.756c.28.336.499.77.658 1.302.159.532.238 1.176.238 1.932Zm-1.092 0c0-.345-.028-.71-.084-1.092a3.44 3.44 0 0 0-.294-1.05 2.108 2.108 0 0 0-.602-.812c-.261-.215-.602-.322-1.022-.322-.42 0-.761.107-1.022.322a2.236 2.236 0 0 0-.616.812c-.14.317-.238.667-.294 1.05-.047.383-.07.747-.07 1.092 0 .336.023.695.07 1.078.056.383.154.737.294 1.064.149.317.355.583.616.798.261.205.602.308 1.022.308.42 0 .761-.103 1.022-.308a2.13 2.13 0 0 0 .602-.798c.149-.327.247-.681.294-1.064a7.47 7.47 0 0 0 .084-1.078Zm6.64 4.06v-5.222c0-.383-.028-.7-.084-.952a1.428 1.428 0 0 0-.266-.602.847.847 0 0 0-.434-.308 1.87 1.87 0 0 0-.644-.098c-.261 0-.49.065-.686.196-.196.13-.364.308-.504.532a2.73 2.73 0 0 0-.294.77 4.14 4.14 0 0 0-.098.91V98h-1.092v-8.036h1.092v1.176c.178-.43.434-.756.77-.98a2.14 2.14 0 0 1 1.19-.336c.29 0 .56.042.812.126.262.075.49.215.686.42.196.205.35.48.462.826.122.336.182.765.182 1.288V98h-1.092Z"/>
</svg>
