<svg viewBox="-464,-384.5,928,769" xmlns="http://www.w3.org/2000/svg" xmlns:xlink="http://www.w3.org/1999/xlink"><defs><marker id="arrow" viewBox="0 0 10 10" refX="25" refY="5" markerWidth="3" markerHeight="3" orient="auto"><path d="M 0 0 L 10 5 L 0 10 z"/></marker></defs><g id="root" transform="translate(0,0) scale(1)"><g opacity="0.75"><line stroke="#d62728" stroke-width="1.5" marker-end="url(#arrow)" x1="84.05933959109528" y1="83.51062997039135" x2="-15.27750816469371" y2="67.98114078682681"/><line stroke="#2ca02c" stroke-width="1.5" marker-end="url(#arrow)" x1="-131.05614072679023" y1="26.87166446496049" x2="-218.1072129927913" y2="-0.6462087122349357"/><line stroke="#2ca02c" stroke-width="1.5" marker-end="url(#arrow)" x1="-32.691753614840174" y1="149.89665574009305" x2="56.21606864162146" y2="206.32094034636324"/><line stroke="#2ca02c" stroke-width="1.5" marker-end="url(#arrow)" x1="-32.691753614840174" y1="149.89665574009305" x2="35.75362464263158" y2="209.15297739838996"/><line stroke="#2ca02c" stroke-width="1.5" marker-end="url(#arrow)" x1="-32.691753614840174" y1="149.89665574009305" x2="56.021712509764576" y2="114.55911986129068"/><line stroke="#2ca02c" stroke-width="1.5" marker-end="url(#arrow)" x1="-32.691753614840174" y1="149.89665574009305" x2="90.62898233961148" y2="138.0105699238798"/><line stroke="#d62728" stroke-width="1.5" marker-end="url(#arrow)" x1="-32.691753614840174" y1="149.89665574009305" x2="22.72970534082593" y2="96.4866891472492"/><line stroke="#d62728" stroke-width="1.5" marker-end="url(#arrow)" x1="46.79318327564028" y1="-164.7318192197584" x2="-31.216455576821392" y2="-103.99916986682769"/><line stroke="#2ca02c" stroke-width="1.5" marker-end="url(#arrow)" x1="8.379776325261721" y1="78.7586596976998" x2="14.753025382544502" y2="11.165688901935123"/><line stroke="#2ca02c" stroke-width="1.5" marker-end="url(#arrow)" x1="8.379776325261721" y1="78.7586596976998" x2="45.51363726734069" y2="-19.733136119297374"/><line stroke="#2ca02c" stroke-width="1.5" marker-end="url(#arrow)" x1="52.74778169540627" y1="10.62095425853328" x2="-25.784808714418997" y2="-45.551115184547804"/><line stroke="#2ca02c" stroke-width="1.5" marker-end="url(#arrow)" x1="52.74778169540627" y1="10.62095425853328" x2="-34.42907523319083" y2="63.58332908542933"/><line stroke="#2ca02c" stroke-width="1.5" marker-end="url(#arrow)" x1="52.74778169540627" y1="10.62095425853328" x2="-51.14870465687613" y2="1.97240081559159"/><line stroke="#2ca02c" stroke-width="1.5" marker-end="url(#arrow)" x1="16.579179952405244" y1="-57.106782315738634" x2="118.46808947952657" y2="-53.21467181895509"/><line stroke="#2ca02c" stroke-width="1.5" marker-end="url(#arrow)" x1="16.579179952405244" y1="-57.106782315738634" x2="125.62807257269728" y2="-75.14608868745762"/><line stroke="#2ca02c" stroke-width="1.5" marker-end="url(#arrow)" x1="16.579179952405244" y1="-57.106782315738634" x2="-84.11422339024239" y2="-17.66269198086997"/><line stroke="#2ca02c" stroke-width="1.5" marker-end="url(#arrow)" x1="46.78564718580072" y1="81.42370371310432" x2="139.69014487130028" y2="39.992797628995774"/><line stroke="#2ca02c" stroke-width="1.5" marker-end="url(#arrow)" x1="46.78564718580072" y1="81.42370371310432" x2="102.09880500948657" y2="163.51336622857067"/><line stroke="#2ca02c" stroke-width="1.5" marker-end="url(#arrow)" x1="-25.784808714418997" y1="-45.551115184547804" x2="52.74778169540627" y2="10.62095425853328"/><line stroke="#2ca02c" stroke-width="1.5" marker-end="url(#arrow)" x1="-25.784808714418997" y1="-45.551115184547804" x2="-34.42907523319083" y2="63.58332908542933"/><line stroke="#2ca02c" stroke-width="1.5" marker-end="url(#arrow)" x1="-25.784808714418997" y1="-45.551115184547804" x2="-132.5355721153496" y2="-51.305029994724904"/><line stroke="#2ca02c" stroke-width="1.5" marker-end="url(#arrow)" x1="-25.784808714418997" y1="-45.551115184547804" x2="-49.20751100153741" y2="-143.28607304004197"/><line stroke="#2ca02c" stroke-width="1.5" marker-end="url(#arrow)" x1="-34.42907523319083" y1="63.58332908542933" x2="52.74778169540627" y2="10.62095425853328"/><line stroke="#2ca02c" stroke-width="1.5" marker-end="url(#arrow)" x1="-34.42907523319083" y1="63.58332908542933" x2="-25.784808714418997" y2="-45.551115184547804"/><line stroke="#2ca02c" stroke-width="1.5" marker-end="url(#arrow)" x1="-39.322795578890904" y1="-196.70034821086432" x2="35.5959481746242" y2="-128.9229280678101"/><line stroke="#d62728" stroke-width="1.5" marker-end="url(#arrow)" x1="-39.322795578890904" y1="-196.70034821086432" x2="-31.216455576821392" y2="-103.99916986682769"/><line stroke="#2ca02c" stroke-width="1.5" marker-end="url(#arrow)" x1="118.46808947952657" y1="-53.21467181895509" x2="16.579179952405244" y2="-57.106782315738634"/><line stroke="#2ca02c" stroke-width="1.5" marker-end="url(#arrow)" x1="-55.38741275042886" y1="-61.521952881288854" x2="-73.07762919107618" y2="41.224946855100654"/><line stroke="#2ca02c" stroke-width="1.5" marker-end="url(#arrow)" x1="-55.38741275042886" y1="-61.521952881288854" x2="16.466175885734962" y2="-10.975537694313905"/><line stroke="#2ca02c" stroke-width="1.5" marker-end="url(#arrow)" x1="-149.12187586376257" y1="-15.852735260650787" x2="-114.51842146427543" y2="-115.33291334801007"/><line stroke="#2ca02c" stroke-width="1.5" marker-end="url(#arrow)" x1="-83.69266623801396" y1="-43.83381932519378" x2="11.145022192955453" y2="-86.09508005580665"/><line stroke="#2ca02c" stroke-width="1.5" marker-end="url(#arrow)" x1="47.243568830373306" y1="-86.96656684727841" x2="114.09840572928364" y2="-153.58490014761406"/><line stroke="#2ca02c" stroke-width="1.5" marker-end="url(#arrow)" x1="47.243568830373306" y1="-86.96656684727841" x2="14.753025382544502" y2="11.165688901935123"/><line stroke="#2ca02c" stroke-width="1.5" marker-end="url(#arrow)" x1="47.243568830373306" y1="-86.96656684727841" x2="125.62807257269728" y2="-75.14608868745762"/><line stroke="#2ca02c" stroke-width="1.5" marker-end="url(#arrow)" x1="47.243568830373306" y1="-86.96656684727841" x2="112.14057704487587" y2="7.0983812185861455"/><line stroke="#2ca02c" stroke-width="1.5" marker-end="url(#arrow)" x1="47.243568830373306" y1="-86.96656684727841" x2="159.85212075231703" y2="-72.81699830252512"/><line stroke="#2ca02c" stroke-width="1.5" marker-end="url(#arrow)" x1="-8.692581426737647" y1="204.05795249586902" x2="32.436412178848364" y2="117.26726574401562"/><line stroke="#2ca02c" stroke-width="1.5" marker-end="url(#arrow)" x1="11.145022192955453" y1="-86.09508005580665" x2="-83.69266623801396" y2="-43.83381932519378"/><line stroke="#2ca02c" stroke-width="1.5" marker-end="url(#arrow)" x1="11.145022192955453" y1="-86.09508005580665" x2="89.48422067113373" y2="-146.8616223859566"/><line stroke="#2ca02c" stroke-width="1.5" marker-end="url(#arrow)" x1="-51.14870465687613" y1="1.97240081559159" x2="52.74778169540627" y2="10.62095425853328"/><line stroke="#2ca02c" stroke-width="1.5" marker-end="url(#arrow)" x1="-73.07762919107618" y1="41.224946855100654" x2="-55.38741275042886" y2="-61.521952881288854"/><line stroke="#2ca02c" stroke-width="1.5" marker-end="url(#arrow)" x1="-73.07762919107618" y1="41.224946855100654" x2="16.466175885734962" y2="-10.975537694313905"/><line stroke="#2ca02c" stroke-width="1.5" marker-end="url(#arrow)" x1="-56.97664987796735" y1="-31.475277437327776" x2="14.753025382544502" y2="11.165688901935123"/><line stroke="#2ca02c" stroke-width="1.5" marker-end="url(#arrow)" x1="-56.97664987796735" y1="-31.475277437327776" x2="38.889112964929545" y2="-60.34985709003222"/><line stroke="#d62728" stroke-width="1.5" marker-end="url(#arrow)" x1="-56.97664987796735" y1="-31.475277437327776" x2="-69.57410444784601" y2="71.63807360051378"/><line stroke="#2ca02c" stroke-width="1.5" marker-end="url(#arrow)" x1="16.466175885734962" y1="-10.975537694313905" x2="-55.38741275042886" y2="-61.521952881288854"/><line stroke="#2ca02c" stroke-width="1.5" marker-end="url(#arrow)" x1="16.466175885734962" y1="-10.975537694313905" x2="-73.07762919107618" y2="41.224946855100654"/><line stroke="#2ca02c" stroke-width="1.5" marker-end="url(#arrow)" x1="16.466175885734962" y1="-10.975537694313905" x2="-19.04473534794372" y2="109.63777948734712"/><line stroke="#2ca02c" stroke-width="1.5" marker-end="url(#arrow)" x1="16.466175885734962" y1="-10.975537694313905" x2="-83.31783803363555" y2="19.239673447531217"/><line stroke="#2ca02c" stroke-width="1.5" marker-end="url(#arrow)" x1="-132.5355721153496" y1="-51.305029994724904" x2="-25.784808714418997" y2="-45.551115184547804"/><line stroke="#2ca02c" stroke-width="1.5" marker-end="url(#arrow)" x1="56.21606864162146" y1="206.32094034636324" x2="-32.691753614840174" y2="149.89665574009305"/><line stroke="#2ca02c" stroke-width="1.5" marker-end="url(#arrow)" x1="56.21606864162146" y1="206.32094034636324" x2="56.021712509764576" y2="114.55911986129068"/><line stroke="#2ca02c" stroke-width="1.5" marker-end="url(#arrow)" x1="56.21606864162146" y1="206.32094034636324" x2="-28.62035148235079" y2="170.22518103842148"/><line stroke="#2ca02c" stroke-width="1.5" marker-end="url(#arrow)" x1="56.21606864162146" y1="206.32094034636324" x2="-8.696701119560997" y2="152.75699181350458"/><line stroke="#2ca02c" stroke-width="1.5" marker-end="url(#arrow)" x1="56.21606864162146" y1="206.32094034636324" x2="90.62898233961148" y2="138.0105699238798"/><line stroke="#d62728" stroke-width="1.5" marker-end="url(#arrow)" x1="56.21606864162146" y1="206.32094034636324" x2="-42.572805050892775" y2="195.99022014586834"/><line stroke="#d62728" stroke-width="1.5" marker-end="url(#arrow)" x1="56.21606864162146" y1="206.32094034636324" x2="22.72970534082593" y2="96.4866891472492"/><line stroke="#2ca02c" stroke-width="1.5" marker-end="url(#arrow)" x1="114.09840572928364" y1="-153.58490014761406" x2="47.243568830373306" y2="-86.96656684727841"/><line stroke="#2ca02c" stroke-width="1.5" marker-end="url(#arrow)" x1="114.09840572928364" y1="-153.58490014761406" x2="125.62807257269728" y2="-75.14608868745762"/><line stroke="#2ca02c" stroke-width="1.5" marker-end="url(#arrow)" x1="114.09840572928364" y1="-153.58490014761406" x2="159.85212075231703" y2="-72.81699830252512"/><line stroke="#2ca02c" stroke-width="1.5" marker-end="url(#arrow)" x1="-17.51089279706138" y1="-127.72291387272874" x2="-16.712635168167086" y2="-26.64306463560495"/><line stroke="#2ca02c" stroke-width="1.5" marker-end="url(#arrow)" x1="-16.712635168167086" y1="-26.64306463560495" x2="-17.51089279706138" y2="-127.72291387272874"/><line stroke="#2ca02c" stroke-width="1.5" marker-end="url(#arrow)" x1="-16.712635168167086" y1="-26.64306463560495" x2="-119.94310002363933" y2="-9.794154152355816"/><line stroke="#2ca02c" stroke-width="1.5" marker-end="url(#arrow)" x1="-16.712635168167086" y1="-26.64306463560495" x2="81.13002048995067" y2="-42.47563105257712"/><line stroke="#2ca02c" stroke-width="1.5" marker-end="url(#arrow)" x1="-114.51842146427543" y1="-115.33291334801007" x2="-149.12187586376257" y2="-15.852735260650787"/><line stroke="#2ca02c" stroke-width="1.5" marker-end="url(#arrow)" x1="-94.87676228915363" y1="70.18511873711812" x2="-84.11422339024239" y2="-17.66269198086997"/><line stroke="#2ca02c" stroke-width="1.5" marker-end="url(#arrow)" x1="-119.94310002363933" y1="-9.794154152355816" x2="-16.712635168167086" y2="-26.64306463560495"/><line stroke="#2ca02c" stroke-width="1.5" marker-end="url(#arrow)" x1="14.62093597630566" y1="-120.90197432137177" x2="-75.20571136677171" y2="-110.88113561835657"/><line stroke="#2ca02c" stroke-width="1.5" marker-end="url(#arrow)" x1="-19.04473534794372" y1="109.63777948734712" x2="16.466175885734962" y2="-10.975537694313905"/><line stroke="#2ca02c" stroke-width="1.5" marker-end="url(#arrow)" x1="-19.04473534794372" y1="109.63777948734712" x2="-110.6272496425486" y2="49.60424762515737"/><line stroke="#2ca02c" stroke-width="1.5" marker-end="url(#arrow)" x1="-19.04473534794372" y1="109.63777948734712" x2="14.753025382544502" y2="11.165688901935123"/><line stroke="#2ca02c" stroke-width="1.5" marker-end="url(#arrow)" x1="-19.04473534794372" y1="109.63777948734712" x2="-83.31783803363555" y2="19.239673447531217"/><line stroke="#2ca02c" stroke-width="1.5" marker-end="url(#arrow)" x1="-110.6272496425486" y1="49.60424762515737" x2="-19.04473534794372" y2="109.63777948734712"/><line stroke="#2ca02c" stroke-width="1.5" marker-end="url(#arrow)" x1="-110.6272496425486" y1="49.60424762515737" x2="-168.56103199283564" y2="-38.581441561233774"/><line stroke="#2ca02c" stroke-width="1.5" marker-end="url(#arrow)" x1="100.67251625340883" y1="-31.748243697433864" x2="111.42354553432443" y2="69.32809666049582"/><line stroke="#2ca02c" stroke-width="1.5" marker-end="url(#arrow)" x1="100.67251625340883" y1="-31.748243697433864" x2="4.008466883414869" y2="-68.00972997149142"/><line stroke="#2ca02c" stroke-width="1.5" marker-end="url(#arrow)" x1="111.42354553432443" y1="69.32809666049582" x2="100.67251625340883" y2="-31.748243697433864"/><line stroke="#2ca02c" stroke-width="1.5" marker-end="url(#arrow)" x1="-49.20751100153741" y1="-143.28607304004197" x2="-25.784808714418997" y2="-45.551115184547804"/><line stroke="#2ca02c" stroke-width="1.5" marker-end="url(#arrow)" x1="-49.20751100153741" y1="-143.28607304004197" x2="-141.8338460542563" y2="-103.65774753231074"/><line stroke="#2ca02c" stroke-width="1.5" marker-end="url(#arrow)" x1="-67.70423683664775" y1="99.67108572239194" x2="56.021712509764576" y2="114.55911986129068"/><line stroke="#2ca02c" stroke-width="1.5" marker-end="url(#arrow)" x1="-67.70423683664775" y1="99.67108572239194" x2="-28.62035148235079" y2="170.22518103842148"/><line stroke="#2ca02c" stroke-width="1.5" marker-end="url(#arrow)" x1="-67.70423683664775" y1="99.67108572239194" x2="-8.696701119560997" y2="152.75699181350458"/><line stroke="#d62728" stroke-width="1.5" marker-end="url(#arrow)" x1="-67.70423683664775" y1="99.67108572239194" x2="-42.572805050892775" y2="195.99022014586834"/><line stroke="#2ca02c" stroke-width="1.5" marker-end="url(#arrow)" x1="102.0806757090524" y1="38.69486125195087" x2="14.753025382544502" y2="11.165688901935123"/><line stroke="#2ca02c" stroke-width="1.5" marker-end="url(#arrow)" x1="-148.7529354720882" y1="88.80901707745299" x2="-25.429684653591025" y2="97.85848985027728"/><line stroke="#2ca02c" stroke-width="1.5" marker-end="url(#arrow)" x1="-148.7529354720882" y1="88.80901707745299" x2="-100.5181936324123" y2="-3.6836223828229793"/><line stroke="#d62728" stroke-width="1.5" marker-end="url(#arrow)" x1="-148.7529354720882" y1="88.80901707745299" x2="-69.57410444784601" y2="71.63807360051378"/><line stroke="#2ca02c" stroke-width="1.5" marker-end="url(#arrow)" x1="126.29885376724499" y1="63.73669540742741" x2="102.09880500948657" y2="163.51336622857067"/><line stroke="#2ca02c" stroke-width="1.5" marker-end="url(#arrow)" x1="139.69014487130028" y1="39.992797628995774" x2="46.78564718580072" y2="81.42370371310432"/><line stroke="#2ca02c" stroke-width="1.5" marker-end="url(#arrow)" x1="139.69014487130028" y1="39.992797628995774" x2="81.13002048995067" y2="-42.47563105257712"/><line stroke="#2ca02c" stroke-width="1.5" marker-end="url(#arrow)" x1="144.2624796240794" y1="4.646505007679583" x2="186.5863778869119" y2="88.40161051156406"/><line stroke="#2ca02c" stroke-width="1.5" marker-end="url(#arrow)" x1="102.09880500948657" y1="163.51336622857067" x2="46.78564718580072" y2="81.42370371310432"/><line stroke="#2ca02c" stroke-width="1.5" marker-end="url(#arrow)" x1="102.09880500948657" y1="163.51336622857067" x2="126.29885376724499" y2="63.73669540742741"/><line stroke="#2ca02c" stroke-width="1.5" marker-end="url(#arrow)" x1="-171.0444208385902" y1="-121.87005297873746" x2="-87.01096860444196" y2="-63.115882413104686"/><line stroke="#2ca02c" stroke-width="1.5" marker-end="url(#arrow)" x1="-171.0444208385902" y1="-121.87005297873746" x2="-85.96676261774822" y2="-140.47667941104385"/><line stroke="#2ca02c" stroke-width="1.5" marker-end="url(#arrow)" x1="-171.0444208385902" y1="-121.87005297873746" x2="-168.56103199283564" y2="-38.581441561233774"/><line stroke="#2ca02c" stroke-width="1.5" marker-end="url(#arrow)" x1="186.5863778869119" y1="88.40161051156406" x2="144.2624796240794" y2="4.646505007679583"/><line stroke="#2ca02c" stroke-width="1.5" marker-end="url(#arrow)" x1="-95.77156832825192" y1="-32.747879139594914" x2="4.008466883414869" y2="-68.00972997149142"/><line stroke="#2ca02c" stroke-width="1.5" marker-end="url(#arrow)" x1="81.13002048995067" y1="-42.47563105257712" x2="-16.712635168167086" y2="-26.64306463560495"/><line stroke="#2ca02c" stroke-width="1.5" marker-end="url(#arrow)" x1="81.13002048995067" y1="-42.47563105257712" x2="139.69014487130028" y2="39.992797628995774"/><line stroke="#2ca02c" stroke-width="1.5" marker-end="url(#arrow)" x1="-87.01096860444196" y1="-63.115882413104686" x2="-171.0444208385902" y2="-121.87005297873746"/><line stroke="#2ca02c" stroke-width="1.5" marker-end="url(#arrow)" x1="-87.01096860444196" y1="-63.115882413104686" x2="-85.96676261774822" y2="-140.47667941104385"/><line stroke="#2ca02c" stroke-width="1.5" marker-end="url(#arrow)" x1="-87.01096860444196" y1="-63.115882413104686" x2="-168.56103199283564" y2="-38.581441561233774"/><line stroke="#2ca02c" stroke-width="1.5" marker-end="url(#arrow)" x1="-218.1072129927913" y1="-0.6462087122349357" x2="-131.05614072679023" y2="26.87166446496049"/><line stroke="#2ca02c" stroke-width="1.5" marker-end="url(#arrow)" x1="1.3416393934476973" y1="-200.0264414917986" x2="-88.05753955809584" y2="-186.0324952191899"/><line stroke="#2ca02c" stroke-width="1.5" marker-end="url(#arrow)" x1="35.75362464263158" y1="209.15297739838996" x2="-32.691753614840174" y2="149.89665574009305"/><line stroke="#2ca02c" stroke-width="1.5" marker-end="url(#arrow)" x1="35.75362464263158" y1="209.15297739838996" x2="56.021712509764576" y2="114.55911986129068"/><line stroke="#2ca02c" stroke-width="1.5" marker-end="url(#arrow)" x1="35.75362464263158" y1="209.15297739838996" x2="-28.62035148235079" y2="170.22518103842148"/><line stroke="#2ca02c" stroke-width="1.5" marker-end="url(#arrow)" x1="35.75362464263158" y1="209.15297739838996" x2="90.62898233961148" y2="138.0105699238798"/><line stroke="#d62728" stroke-width="1.5" marker-end="url(#arrow)" x1="35.75362464263158" y1="209.15297739838996" x2="22.72970534082593" y2="96.4866891472492"/><line stroke="#2ca02c" stroke-width="1.5" marker-end="url(#arrow)" x1="-88.05753955809584" y1="-186.0324952191899" x2="1.3416393934476973" y2="-200.0264414917986"/><line stroke="#2ca02c" stroke-width="1.5" marker-end="url(#arrow)" x1="89.48422067113373" y1="-146.8616223859566" x2="11.145022192955453" y2="-86.09508005580665"/><line stroke="#2ca02c" stroke-width="1.5" marker-end="url(#arrow)" x1="14.753025382544502" y1="11.165688901935123" x2="8.379776325261721" y2="78.7586596976998"/><line stroke="#2ca02c" stroke-width="1.5" marker-end="url(#arrow)" x1="14.753025382544502" y1="11.165688901935123" x2="47.243568830373306" y2="-86.96656684727841"/><line stroke="#2ca02c" stroke-width="1.5" marker-end="url(#arrow)" x1="14.753025382544502" y1="11.165688901935123" x2="-56.97664987796735" y2="-31.475277437327776"/><line stroke="#2ca02c" stroke-width="1.5" marker-end="url(#arrow)" x1="14.753025382544502" y1="11.165688901935123" x2="-19.04473534794372" y2="109.63777948734712"/><line stroke="#2ca02c" stroke-width="1.5" marker-end="url(#arrow)" x1="14.753025382544502" y1="11.165688901935123" x2="102.0806757090524" y2="38.69486125195087"/><line stroke="#2ca02c" stroke-width="1.5" marker-end="url(#arrow)" x1="14.753025382544502" y1="11.165688901935123" x2="-25.429684653591025" y2="97.85848985027728"/><line stroke="#2ca02c" stroke-width="1.5" marker-end="url(#arrow)" x1="14.753025382544502" y1="11.165688901935123" x2="112.14057704487587" y2="7.0983812185861455"/><line stroke="#2ca02c" stroke-width="1.5" marker-end="url(#arrow)" x1="14.753025382544502" y1="11.165688901935123" x2="38.889112964929545" y2="-60.34985709003222"/><line stroke="#2ca02c" stroke-width="1.5" marker-end="url(#arrow)" x1="14.753025382544502" y1="11.165688901935123" x2="-100.5181936324123" y2="-3.6836223828229793"/><line stroke="#d62728" stroke-width="1.5" marker-end="url(#arrow)" x1="14.753025382544502" y1="11.165688901935123" x2="-69.57410444784601" y2="71.63807360051378"/><line stroke="#2ca02c" stroke-width="1.5" marker-end="url(#arrow)" x1="4.008466883414869" y1="-68.00972997149142" x2="100.67251625340883" y2="-31.748243697433864"/><line stroke="#2ca02c" stroke-width="1.5" marker-end="url(#arrow)" x1="4.008466883414869" y1="-68.00972997149142" x2="-95.77156832825192" y2="-32.747879139594914"/><line stroke="#2ca02c" stroke-width="1.5" marker-end="url(#arrow)" x1="4.008466883414869" y1="-68.00972997149142" x2="125.62807257269728" y2="-75.14608868745762"/><line stroke="#2ca02c" stroke-width="1.5" marker-end="url(#arrow)" x1="4.008466883414869" y1="-68.00972997149142" x2="-84.11422339024239" y2="-17.66269198086997"/><line stroke="#2ca02c" stroke-width="1.5" marker-end="url(#arrow)" x1="56.021712509764576" y1="114.55911986129068" x2="-32.691753614840174" y2="149.89665574009305"/><line stroke="#2ca02c" stroke-width="1.5" marker-end="url(#arrow)" x1="56.021712509764576" y1="114.55911986129068" x2="56.21606864162146" y2="206.32094034636324"/><line stroke="#2ca02c" stroke-width="1.5" marker-end="url(#arrow)" x1="56.021712509764576" y1="114.55911986129068" x2="-67.70423683664775" y2="99.67108572239194"/><line stroke="#2ca02c" stroke-width="1.5" marker-end="url(#arrow)" x1="56.021712509764576" y1="114.55911986129068" x2="35.75362464263158" y2="209.15297739838996"/><line stroke="#2ca02c" stroke-width="1.5" marker-end="url(#arrow)" x1="56.021712509764576" y1="114.55911986129068" x2="-28.62035148235079" y2="170.22518103842148"/><line stroke="#2ca02c" stroke-width="1.5" marker-end="url(#arrow)" x1="56.021712509764576" y1="114.55911986129068" x2="-8.696701119560997" y2="152.75699181350458"/><line stroke="#d62728" stroke-width="1.5" marker-end="url(#arrow)" x1="56.021712509764576" y1="114.55911986129068" x2="-42.572805050892775" y2="195.99022014586834"/><line stroke="#2ca02c" stroke-width="1.5" marker-end="url(#arrow)" x1="-28.62035148235079" y1="170.22518103842148" x2="56.21606864162146" y2="206.32094034636324"/><line stroke="#2ca02c" stroke-width="1.5" marker-end="url(#arrow)" x1="-28.62035148235079" y1="170.22518103842148" x2="-67.70423683664775" y2="99.67108572239194"/><line stroke="#2ca02c" stroke-width="1.5" marker-end="url(#arrow)" x1="-28.62035148235079" y1="170.22518103842148" x2="35.75362464263158" y2="209.15297739838996"/><line stroke="#2ca02c" stroke-width="1.5" marker-end="url(#arrow)" x1="-28.62035148235079" y1="170.22518103842148" x2="56.021712509764576" y2="114.55911986129068"/><line stroke="#2ca02c" stroke-width="1.5" marker-end="url(#arrow)" x1="-28.62035148235079" y1="170.22518103842148" x2="90.62898233961148" y2="138.0105699238798"/><line stroke="#d62728" stroke-width="1.5" marker-end="url(#arrow)" x1="-28.62035148235079" y1="170.22518103842148" x2="22.72970534082593" y2="96.4866891472492"/><line stroke="#2ca02c" stroke-width="1.5" marker-end="url(#arrow)" x1="125.62807257269728" y1="-75.14608868745762" x2="16.579179952405244" y2="-57.106782315738634"/><line stroke="#2ca02c" stroke-width="1.5" marker-end="url(#arrow)" x1="125.62807257269728" y1="-75.14608868745762" x2="47.243568830373306" y2="-86.96656684727841"/><line stroke="#2ca02c" stroke-width="1.5" marker-end="url(#arrow)" x1="125.62807257269728" y1="-75.14608868745762" x2="114.09840572928364" y2="-153.58490014761406"/><line stroke="#2ca02c" stroke-width="1.5" marker-end="url(#arrow)" x1="125.62807257269728" y1="-75.14608868745762" x2="4.008466883414869" y2="-68.00972997149142"/><line stroke="#2ca02c" stroke-width="1.5" marker-end="url(#arrow)" x1="-25.429684653591025" y1="97.85848985027728" x2="-148.7529354720882" y2="88.80901707745299"/><line stroke="#2ca02c" stroke-width="1.5" marker-end="url(#arrow)" x1="-25.429684653591025" y1="97.85848985027728" x2="14.753025382544502" y2="11.165688901935123"/><line stroke="#d62728" stroke-width="1.5" marker-end="url(#arrow)" x1="-25.429684653591025" y1="97.85848985027728" x2="-69.57410444784601" y2="71.63807360051378"/><line stroke="#2ca02c" stroke-width="1.5" marker-end="url(#arrow)" x1="45.51363726734069" y1="-19.733136119297374" x2="8.379776325261721" y2="78.7586596976998"/><line stroke="#2ca02c" stroke-width="1.5" marker-end="url(#arrow)" x1="112.14057704487587" y1="7.0983812185861455" x2="47.243568830373306" y2="-86.96656684727841"/><line stroke="#2ca02c" stroke-width="1.5" marker-end="url(#arrow)" x1="112.14057704487587" y1="7.0983812185861455" x2="14.753025382544502" y2="11.165688901935123"/><line stroke="#2ca02c" stroke-width="1.5" marker-end="url(#arrow)" x1="112.14057704487587" y1="7.0983812185861455" x2="38.889112964929545" y2="-60.34985709003222"/><line stroke="#2ca02c" stroke-width="1.5" marker-end="url(#arrow)" x1="-83.31783803363555" y1="19.239673447531217" x2="16.466175885734962" y2="-10.975537694313905"/><line stroke="#2ca02c" stroke-width="1.5" marker-end="url(#arrow)" x1="-83.31783803363555" y1="19.239673447531217" x2="-19.04473534794372" y2="109.63777948734712"/><line stroke="#2ca02c" stroke-width="1.5" marker-end="url(#arrow)" x1="38.889112964929545" y1="-60.34985709003222" x2="-56.97664987796735" y2="-31.475277437327776"/><line stroke="#2ca02c" stroke-width="1.5" marker-end="url(#arrow)" x1="38.889112964929545" y1="-60.34985709003222" x2="14.753025382544502" y2="11.165688901935123"/><line stroke="#2ca02c" stroke-width="1.5" marker-end="url(#arrow)" x1="38.889112964929545" y1="-60.34985709003222" x2="112.14057704487587" y2="7.0983812185861455"/><line stroke="#d62728" stroke-width="1.5" marker-end="url(#arrow)" x1="38.889112964929545" y1="-60.34985709003222" x2="-69.57410444784601" y2="71.63807360051378"/><line stroke="#2ca02c" stroke-width="1.5" marker-end="url(#arrow)" x1="32.436412178848364" y1="117.26726574401562" x2="-8.692581426737647" y2="204.05795249586902"/><line stroke="#2ca02c" stroke-width="1.5" marker-end="url(#arrow)" x1="-100.5181936324123" y1="-3.6836223828229793" x2="-148.7529354720882" y2="88.80901707745299"/><line stroke="#2ca02c" stroke-width="1.5" marker-end="url(#arrow)" x1="-100.5181936324123" y1="-3.6836223828229793" x2="14.753025382544502" y2="11.165688901935123"/><line stroke="#d62728" stroke-width="1.5" marker-end="url(#arrow)" x1="-100.5181936324123" y1="-3.6836223828229793" x2="-69.57410444784601" y2="71.63807360051378"/><line stroke="#2ca02c" stroke-width="1.5" marker-end="url(#arrow)" x1="159.85212075231703" y1="-72.81699830252512" x2="47.243568830373306" y2="-86.96656684727841"/><line stroke="#2ca02c" stroke-width="1.5" marker-end="url(#arrow)" x1="159.85212075231703" y1="-72.81699830252512" x2="114.09840572928364" y2="-153.58490014761406"/><line stroke="#2ca02c" stroke-width="1.5" marker-end="url(#arrow)" x1="-84.11422339024239" y1="-17.66269198086997" x2="16.579179952405244" y2="-57.106782315738634"/><line stroke="#2ca02c" stroke-width="1.5" marker-end="url(#arrow)" x1="-84.11422339024239" y1="-17.66269198086997" x2="-94.87676228915363" y2="70.18511873711812"/><line stroke="#2ca02c" stroke-width="1.5" marker-end="url(#arrow)" x1="-84.11422339024239" y1="-17.66269198086997" x2="4.008466883414869" y2="-68.00972997149142"/><line stroke="#2ca02c" stroke-width="1.5" marker-end="url(#arrow)" x1="-84.11422339024239" y1="-17.66269198086997" x2="-95.79202374703692" y2="-98.17760909232398"/><line stroke="#d62728" stroke-width="1.5" marker-end="url(#arrow)" x1="-84.11422339024239" y1="-17.66269198086997" x2="-15.27750816469371" y2="67.98114078682681"/><line stroke="#2ca02c" stroke-width="1.5" marker-end="url(#arrow)" x1="-85.96676261774822" y1="-140.47667941104385" x2="-171.0444208385902" y2="-121.87005297873746"/><line stroke="#2ca02c" stroke-width="1.5" marker-end="url(#arrow)" x1="-85.96676261774822" y1="-140.47667941104385" x2="-87.01096860444196" y2="-63.115882413104686"/><line stroke="#2ca02c" stroke-width="1.5" marker-end="url(#arrow)" x1="-85.96676261774822" y1="-140.47667941104385" x2="-168.56103199283564" y2="-38.581441561233774"/><line stroke="#2ca02c" stroke-width="1.5" marker-end="url(#arrow)" x1="-8.696701119560997" y1="152.75699181350458" x2="56.21606864162146" y2="206.32094034636324"/><line stroke="#2ca02c" stroke-width="1.5" marker-end="url(#arrow)" x1="-8.696701119560997" y1="152.75699181350458" x2="-67.70423683664775" y2="99.67108572239194"/><line stroke="#2ca02c" stroke-width="1.5" marker-end="url(#arrow)" x1="-8.696701119560997" y1="152.75699181350458" x2="56.021712509764576" y2="114.55911986129068"/><line stroke="#2ca02c" stroke-width="1.5" marker-end="url(#arrow)" x1="-141.8338460542563" y1="-103.65774753231074" x2="-49.20751100153741" y2="-143.28607304004197"/><line stroke="#2ca02c" stroke-width="1.5" marker-end="url(#arrow)" x1="35.5959481746242" y1="-128.9229280678101" x2="-39.322795578890904" y2="-196.70034821086432"/><line stroke="#d62728" stroke-width="1.5" marker-end="url(#arrow)" x1="-126.17521107010363" y1="-145.09039033735354" x2="-30.12807691098623" y2="-171.2903660690845"/><line stroke="#2ca02c" stroke-width="1.5" marker-end="url(#arrow)" x1="-75.20571136677171" y1="-110.88113561835657" x2="14.62093597630566" y2="-120.90197432137177"/><line stroke="#2ca02c" stroke-width="1.5" marker-end="url(#arrow)" x1="-95.79202374703692" y1="-98.17760909232398" x2="-84.11422339024239" y2="-17.66269198086997"/><line stroke="#2ca02c" stroke-width="1.5" marker-end="url(#arrow)" x1="90.62898233961148" y1="138.0105699238798" x2="-32.691753614840174" y2="149.89665574009305"/><line stroke="#2ca02c" stroke-width="1.5" marker-end="url(#arrow)" x1="90.62898233961148" y1="138.0105699238798" x2="56.21606864162146" y2="206.32094034636324"/><line stroke="#2ca02c" stroke-width="1.5" marker-end="url(#arrow)" x1="90.62898233961148" y1="138.0105699238798" x2="35.75362464263158" y2="209.15297739838996"/><line stroke="#2ca02c" stroke-width="1.5" marker-end="url(#arrow)" x1="90.62898233961148" y1="138.0105699238798" x2="-28.62035148235079" y2="170.22518103842148"/><line stroke="#d62728" stroke-width="1.5" marker-end="url(#arrow)" x1="90.62898233961148" y1="138.0105699238798" x2="22.72970534082593" y2="96.4866891472492"/><line stroke="#2ca02c" stroke-width="1.5" marker-end="url(#arrow)" x1="-168.56103199283564" y1="-38.581441561233774" x2="-110.6272496425486" y2="49.60424762515737"/><line stroke="#2ca02c" stroke-width="1.5" marker-end="url(#arrow)" x1="-168.56103199283564" y1="-38.581441561233774" x2="-171.0444208385902" y2="-121.87005297873746"/><line stroke="#2ca02c" stroke-width="1.5" marker-end="url(#arrow)" x1="-168.56103199283564" y1="-38.581441561233774" x2="-87.01096860444196" y2="-63.115882413104686"/><line stroke="#2ca02c" stroke-width="1.5" marker-end="url(#arrow)" x1="-168.56103199283564" y1="-38.581441561233774" x2="-85.96676261774822" y2="-140.47667941104385"/><line stroke="#d62728" stroke-width="1.5" marker-end="url(#arrow)" x1="193.69474297932243" y1="-94.17647953065779" x2="98.99456827782022" y2="-89.82048700899531"/><line stroke="#e377c2" stroke-width="1.5" marker-end="url(#arrow)" x1="-94.87676228915363" y1="70.18511873711812" x2="-84.11422339024239" y2="-17.66269198086997"/><line stroke="#e377c2" stroke-width="1.5" marker-end="url(#arrow)" x1="-126.44042116357917" y1="155.6988971627563" x2="-179.05445888817658" y2="71.25016753521065"/><line stroke="#e377c2" stroke-width="1.5" marker-end="url(#arrow)" x1="178.5946804142835" y1="51.55898343681652" x2="90.85697421106208" y2="100.26419009076096"/><line stroke="#e377c2" stroke-width="1.5" marker-end="url(#arrow)" x1="46.78564718580072" y1="81.42370371310432" x2="-27.897739266177645" y2="26.21617064168791"/><line stroke="#e377c2" stroke-width="1.5" marker-end="url(#arrow)" x1="-110.16550788574976" y1="89.95858376312988" x2="-84.11422339024239" y2="-17.66269198086997"/><line stroke="#e377c2" stroke-width="1.5" marker-end="url(#arrow)" x1="135.27036948264285" y1="132.58514434538233" x2="45.14398723680589" y2="173.75673485873665"/><line stroke="#e377c2" stroke-width="1.5" marker-end="url(#arrow)" x1="-94.87676228915363" y1="70.18511873711812" x2="-95.79202374703692" y2="-98.17760909232398"/><line stroke="#e377c2" stroke-width="1.5" marker-end="url(#arrow)" x1="-67.70423683664775" y1="99.67108572239194" x2="46.78564718580072" y2="81.42370371310432"/><line stroke="#e377c2" stroke-width="1.5" marker-end="url(#arrow)" x1="-84.11422339024239" y1="-17.66269198086997" x2="-128.37122503379797" y2="63.5250445392209"/><line stroke="#e377c2" stroke-width="1.5" marker-end="url(#arrow)" x1="35.5959481746242" y1="-128.9229280678101" x2="-39.322795578890904" y2="-196.70034821086432"/><line stroke="#e377c2" stroke-width="1.5" marker-end="url(#arrow)" x1="92.13151090512584" y1="-113.58885544054418" x2="41.628222756682135" y2="-197.38636398978454"/><line stroke="#9467bd" stroke-width="1.5" marker-end="url(#arrow)" x1="22.72970534082593" y1="96.4866891472492" x2="90.62898233961148" y2="138.0105699238798"/><line stroke="#9467bd" stroke-width="1.5" marker-end="url(#arrow)" x1="89.56196665007693" y1="-67.48710224446754" x2="150.11185639032448" y2="-142.12796426916861"/><line stroke="#9467bd" stroke-width="1.5" marker-end="url(#arrow)" x1="89.56196665007693" y1="-67.48710224446754" x2="150.11185639032448" y2="-142.12796426916861"/><line stroke="#9467bd" stroke-width="1.5" marker-end="url(#arrow)" x1="193.69474297932243" y1="-94.17647953065779" x2="166.0879091240302" y2="-6.557543130090547"/><line stroke="#9467bd" stroke-width="1.5" marker-end="url(#arrow)" x1="98.99456827782022" y1="-89.82048700899531" x2="166.0879091240302" y2="-6.557543130090547"/><line stroke="#9467bd" stroke-width="1.5" marker-end="url(#arrow)" x1="-19.04473534794372" y1="109.63777948734712" x2="73.77625749109492" y2="143.32009549451016"/><line stroke="#9467bd" stroke-width="1.5" marker-end="url(#arrow)" x1="-34.42907523319083" y1="63.58332908542933" x2="-113.9745007493568" y2="131.67732897042572"/><line stroke="#9467bd" stroke-width="1.5" marker-end="url(#arrow)" x1="-19.04473534794372" y1="109.63777948734712" x2="-113.9745007493568" y2="131.67732897042572"/><line stroke="#9467bd" stroke-width="1.5" marker-end="url(#arrow)" x1="-19.04473534794372" y1="109.63777948734712" x2="-113.9745007493568" y2="131.67732897042572"/><line stroke="#9467bd" stroke-width="1.5" marker-end="url(#arrow)" x1="14.753025382544502" y1="11.165688901935123" x2="-56.97664987796735" y2="-31.475277437327776"/><line stroke="#9467bd" stroke-width="1.5" marker-end="url(#arrow)" x1="8.379776325261721" y1="78.7586596976998" x2="-56.97664987796735" y2="-31.475277437327776"/><line stroke="#9467bd" stroke-width="1.5" marker-end="url(#arrow)" x1="-19.04473534794372" y1="109.63777948734712" x2="73.77625749109492" y2="143.32009549451016"/><line stroke="#9467bd" stroke-width="1.5" marker-end="url(#arrow)" x1="-69.57410444784601" y1="71.63807360051378" x2="-126.44042116357917" y2="155.6988971627563"/><line stroke="#9467bd" stroke-width="1.5" marker-end="url(#arrow)" x1="4.008466883414869" y1="-68.00972997149142" x2="-84.11422339024239" y2="-17.66269198086997"/><line stroke="#9467bd" stroke-width="1.5" marker-end="url(#arrow)" x1="47.243568830373306" y1="-86.96656684727841" x2="-56.97664987796735" y2="-31.475277437327776"/><line stroke="#9467bd" stroke-width="1.5" marker-end="url(#arrow)" x1="-69.57410444784601" y1="71.63807360051378" x2="-126.44042116357917" y2="155.6988971627563"/><line stroke="#9467bd" stroke-width="1.5" marker-end="url(#arrow)" x1="14.753025382544502" y1="11.165688901935123" x2="102.0806757090524" y2="38.69486125195087"/><line stroke="#9467bd" stroke-width="1.5" marker-end="url(#arrow)" x1="8.379776325261721" y1="78.7586596976998" x2="102.0806757090524" y2="38.69486125195087"/><line stroke="#9467bd" stroke-width="1.5" marker-end="url(#arrow)" x1="-30.12807691098623" y1="-171.2903660690845" x2="-126.17521107010363" y2="-145.09039033735354"/><line stroke="#9467bd" stroke-width="1.5" marker-end="url(#arrow)" x1="-15.27750816469371" y1="67.98114078682681" x2="-128.37122503379797" y2="63.5250445392209"/><line stroke="#9467bd" stroke-width="1.5" marker-end="url(#arrow)" x1="-83.69266623801396" y1="-43.83381932519378" x2="-128.37122503379797" y2="63.5250445392209"/><line stroke="#9467bd" stroke-width="1.5" marker-end="url(#arrow)" x1="-155.40310214499874" y1="48.18581404835036" x2="-67.70423683664775" y2="99.67108572239194"/><line stroke="#9467bd" stroke-width="1.5" marker-end="url(#arrow)" x1="-131.05614072679023" y1="26.87166446496049" x2="-155.03325055294943" y2="-72.75006106570947"/><line stroke="#9467bd" stroke-width="1.5" marker-end="url(#arrow)" x1="-218.1072129927913" y1="-0.6462087122349357" x2="-155.03325055294943" y2="-72.75006106570947"/><line stroke="#9467bd" stroke-width="1.5" marker-end="url(#arrow)" x1="47.243568830373306" y1="-86.96656684727841" x2="145.03482172571196" y2="-55.653135740986635"/><line stroke="#9467bd" stroke-width="1.5" marker-end="url(#arrow)" x1="14.753025382544502" y1="11.165688901935123" x2="-56.97664987796735" y2="-31.475277437327776"/><line stroke="#9467bd" stroke-width="1.5" marker-end="url(#arrow)" x1="8.379776325261721" y1="78.7586596976998" x2="-56.97664987796735" y2="-31.475277437327776"/><line stroke="#9467bd" stroke-width="1.5" marker-end="url(#arrow)" x1="4.008466883414869" y1="-68.00972997149142" x2="102.0806757090524" y2="38.69486125195087"/><line stroke="#9467bd" stroke-width="1.5" marker-end="url(#arrow)" x1="14.753025382544502" y1="11.165688901935123" x2="102.0806757090524" y2="38.69486125195087"/><line stroke="#9467bd" stroke-width="1.5" marker-end="url(#arrow)" x1="8.379776325261721" y1="78.7586596976998" x2="102.0806757090524" y2="38.69486125195087"/><line stroke="#9467bd" stroke-width="1.5" marker-end="url(#arrow)" x1="14.753025382544502" y1="11.165688901935123" x2="102.0806757090524" y2="38.69486125195087"/><line stroke="#9467bd" stroke-width="1.5" marker-end="url(#arrow)" x1="8.379776325261721" y1="78.7586596976998" x2="102.0806757090524" y2="38.69486125195087"/><line stroke="#9467bd" stroke-width="1.5" marker-end="url(#arrow)" x1="102.09880500948657" y1="163.51336622857067" x2="46.78564718580072" y2="81.42370371310432"/><line stroke="#9467bd" stroke-width="1.5" marker-end="url(#arrow)" x1="-42.572805050892775" y1="195.99022014586834" x2="-67.70423683664775" y2="99.67108572239194"/><line stroke="#9467bd" stroke-width="1.5" marker-end="url(#arrow)" x1="159.00517946323095" y1="-101.26627667508377" x2="89.88584036621037" y2="-173.79347623037515"/><line stroke="#9467bd" stroke-width="1.5" marker-end="url(#arrow)" x1="144.2624796240794" y1="4.646505007679583" x2="90.85697421106208" y2="100.26419009076096"/><line stroke="#9467bd" stroke-width="1.5" marker-end="url(#arrow)" x1="186.5863778869119" y1="88.40161051156406" x2="90.85697421106208" y2="100.26419009076096"/><line stroke="#9467bd" stroke-width="1.5" marker-end="url(#arrow)" x1="-15.27750816469371" y1="67.98114078682681" x2="90.85697421106208" y2="100.26419009076096"/><line stroke="#9467bd" stroke-width="1.5" marker-end="url(#arrow)" x1="154.5561863183701" y1="85.50109588387177" x2="194.4032508609083" y2="-6.531109895533569"/><line stroke="#9467bd" stroke-width="1.5" marker-end="url(#arrow)" x1="154.5561863183701" y1="85.50109588387177" x2="194.4032508609083" y2="-6.531109895533569"/><line stroke="#9467bd" stroke-width="1.5" marker-end="url(#arrow)" x1="16.466175885734962" y1="-10.975537694313905" x2="-48.154194595814275" y2="-86.78296080583048"/><line stroke="#9467bd" stroke-width="1.5" marker-end="url(#arrow)" x1="-83.31783803363555" y1="19.239673447531217" x2="-48.154194595814275" y2="-86.78296080583048"/><line stroke="#9467bd" stroke-width="1.5" marker-end="url(#arrow)" x1="12.572955477611524" y1="27.79586559371506" x2="56.021712509764576" y2="114.55911986129068"/><line stroke="#9467bd" stroke-width="1.5" marker-end="url(#arrow)" x1="71.87698500195847" y1="-59.42776200679926" x2="102.0806757090524" y2="38.69486125195087"/><line stroke="#9467bd" stroke-width="1.5" marker-end="url(#arrow)" x1="-56.97664987796735" y1="-31.475277437327776" x2="30.954941023113207" y2="48.29994296899531"/><line stroke="#9467bd" stroke-width="1.5" marker-end="url(#arrow)" x1="-148.7529354720882" y1="88.80901707745299" x2="-52.52235408457158" y2="78.60817728129855"/><line stroke="#9467bd" stroke-width="1.5" marker-end="url(#arrow)" x1="-95.77156832825192" y1="-32.747879139594914" x2="-52.52235408457158" y2="78.60817728129855"/><line stroke="#9467bd" stroke-width="1.5" marker-end="url(#arrow)" x1="16.466175885734962" y1="-10.975537694313905" x2="-48.154194595814275" y2="-86.78296080583048"/><line stroke="#9467bd" stroke-width="1.5" marker-end="url(#arrow)" x1="-83.31783803363555" y1="19.239673447531217" x2="-48.154194595814275" y2="-86.78296080583048"/><line stroke="#9467bd" stroke-width="1.5" marker-end="url(#arrow)" x1="14.753025382544502" y1="11.165688901935123" x2="102.0806757090524" y2="38.69486125195087"/><line stroke="#9467bd" stroke-width="1.5" marker-end="url(#arrow)" x1="8.379776325261721" y1="78.7586596976998" x2="102.0806757090524" y2="38.69486125195087"/><line stroke="#9467bd" stroke-width="1.5" marker-end="url(#arrow)" x1="14.753025382544502" y1="11.165688901935123" x2="102.0806757090524" y2="38.69486125195087"/><line stroke="#9467bd" stroke-width="1.5" marker-end="url(#arrow)" x1="8.379776325261721" y1="78.7586596976998" x2="102.0806757090524" y2="38.69486125195087"/><line stroke="#9467bd" stroke-width="1.5" marker-end="url(#arrow)" x1="38.889112964929545" y1="-60.34985709003222" x2="102.0806757090524" y2="38.69486125195087"/><line stroke="#9467bd" stroke-width="1.5" marker-end="url(#arrow)" x1="8.379776325261721" y1="78.7586596976998" x2="102.0806757090524" y2="38.69486125195087"/><line stroke="#9467bd" stroke-width="1.5" marker-end="url(#arrow)" x1="4.008466883414869" y1="-68.00972997149142" x2="-38.458302621185474" y2="34.65274529367019"/><line stroke="#9467bd" stroke-width="1.5" marker-end="url(#arrow)" x1="52.74778169540627" y1="10.62095425853328" x2="-38.458302621185474" y2="34.65274529367019"/><line stroke="#9467bd" stroke-width="1.5" marker-end="url(#arrow)" x1="102.09880500948657" y1="163.51336622857067" x2="46.78564718580072" y2="81.42370371310432"/><line stroke="#9467bd" stroke-width="1.5" marker-end="url(#arrow)" x1="173.2694932050067" y1="24.627267433712376" x2="123.64844385103642" y2="112.21727053489252"/><line stroke="#9467bd" stroke-width="1.5" marker-end="url(#arrow)" x1="173.2694932050067" y1="24.627267433712376" x2="185.3955909872883" y2="121.91309926413763"/><line stroke="#9467bd" stroke-width="1.5" marker-end="url(#arrow)" x1="118.46808947952657" y1="-53.21467181895509" x2="66.36957921855675" y2="-140.10560393539728"/><line stroke="#9467bd" stroke-width="1.5" marker-end="url(#arrow)" x1="16.579179952405244" y1="-57.106782315738634" x2="66.36957921855675" y2="-140.10560393539728"/><line stroke="#9467bd" stroke-width="1.5" marker-end="url(#arrow)" x1="114.09840572928364" y1="-153.58490014761406" x2="108.63432406701455" y2="-8.227149875978718"/><line stroke="#9467bd" stroke-width="1.5" marker-end="url(#arrow)" x1="47.243568830373306" y1="-86.96656684727841" x2="108.63432406701455" y2="-8.227149875978718"/><line stroke="#9467bd" stroke-width="1.5" marker-end="url(#arrow)" x1="125.62807257269728" y1="-75.14608868745762" x2="108.63432406701455" y2="-8.227149875978718"/><line stroke="#9467bd" stroke-width="1.5" marker-end="url(#arrow)" x1="159.85212075231703" y1="-72.81699830252512" x2="108.63432406701455" y2="-8.227149875978718"/><line stroke="#9467bd" stroke-width="1.5" marker-end="url(#arrow)" x1="-16.712635168167086" y1="-26.64306463560495" x2="46.78564718580072" y2="81.42370371310432"/><line stroke="#9467bd" stroke-width="1.5" marker-end="url(#arrow)" x1="-148.7529354720882" y1="88.80901707745299" x2="-86.70494288644745" y2="164.79032461655666"/><line stroke="#9467bd" stroke-width="1.5" marker-end="url(#arrow)" x1="-7.956820379768428" y1="-157.78269865877073" x2="89.88584036621037" y2="-173.79347623037515"/><line stroke="#9467bd" stroke-width="1.5" marker-end="url(#arrow)" x1="-149.12187586376257" y1="-15.852735260650787" x2="-203.6919461612278" y2="-87.6586047276374"/><line stroke="#9467bd" stroke-width="1.5" marker-end="url(#arrow)" x1="-114.51842146427543" y1="-115.33291334801007" x2="-203.6919461612278" y2="-87.6586047276374"/><line stroke="#9467bd" stroke-width="1.5" marker-end="url(#arrow)" x1="-144.26156881405055" y1="126.25544268939001" x2="-187.72469346321358" y2="36.6166835098991"/><line stroke="#9467bd" stroke-width="1.5" marker-end="url(#arrow)" x1="46.79318327564028" y1="-164.7318192197584" x2="127.49110200616953" y2="-109.41194709011683"/><line stroke="#9467bd" stroke-width="1.5" marker-end="url(#arrow)" x1="38.889112964929545" y1="-60.34985709003222" x2="127.49110200616953" y2="-109.41194709011683"/><line stroke="#9467bd" stroke-width="1.5" marker-end="url(#arrow)" x1="102.09880500948657" y1="163.51336622857067" x2="46.78564718580072" y2="81.42370371310432"/><line stroke="#9467bd" stroke-width="1.5" marker-end="url(#arrow)" x1="32.436412178848364" y1="117.26726574401562" x2="-70.4127702611206" y2="130.90194082090275"/><line stroke="#9467bd" stroke-width="1.5" marker-end="url(#arrow)" x1="-8.692581426737647" y1="204.05795249586902" x2="-70.4127702611206" y2="130.90194082090275"/><line stroke="#9467bd" stroke-width="1.5" marker-end="url(#arrow)" x1="4.008466883414869" y1="-68.00972997149142" x2="-84.11422339024239" y2="-17.66269198086997"/><line stroke="#9467bd" stroke-width="1.5" marker-end="url(#arrow)" x1="16.579179952405244" y1="-57.106782315738634" x2="-84.11422339024239" y2="-17.66269198086997"/><line stroke="#9467bd" stroke-width="1.5" marker-end="url(#arrow)" x1="-15.27750816469371" y1="67.98114078682681" x2="-110.16550788574976" y2="89.95858376312988"/><line stroke="#9467bd" stroke-width="1.5" marker-end="url(#arrow)" x1="-42.572805050892775" y1="195.99022014586834" x2="-67.70423683664775" y2="99.67108572239194"/><line stroke="#9467bd" stroke-width="1.5" marker-end="url(#arrow)" x1="38.889112964929545" y1="-60.34985709003222" x2="-64.85018686448251" y2="-5.769398569063808"/><line stroke="#9467bd" stroke-width="1.5" marker-end="url(#arrow)" x1="14.753025382544502" y1="11.165688901935123" x2="-64.85018686448251" y2="-5.769398569063808"/><line stroke="#9467bd" stroke-width="1.5" marker-end="url(#arrow)" x1="8.379776325261721" y1="78.7586596976998" x2="-64.85018686448251" y2="-5.769398569063808"/><line stroke="#9467bd" stroke-width="1.5" marker-end="url(#arrow)" x1="8.379776325261721" y1="78.7586596976998" x2="-64.85018686448251" y2="-5.769398569063808"/><line stroke="#9467bd" stroke-width="1.5" marker-end="url(#arrow)" x1="-17.51089279706138" y1="-127.72291387272874" x2="-106.71465428145055" y2="-80.32063958952716"/><line stroke="#9467bd" stroke-width="1.5" marker-end="url(#arrow)" x1="-16.712635168167086" y1="-26.64306463560495" x2="-106.71465428145055" y2="-80.32063958952716"/><line stroke="#9467bd" stroke-width="1.5" marker-end="url(#arrow)" x1="38.889112964929545" y1="-60.34985709003222" x2="-39.52863565665331" y2="-5.661662170704368"/><line stroke="#9467bd" stroke-width="1.5" marker-end="url(#arrow)" x1="36.98347808947899" y1="153.09307589862632" x2="135.27036948264285" y2="132.58514434538233"/><line stroke="#9467bd" stroke-width="1.5" marker-end="url(#arrow)" x1="14.753025382544502" y1="11.165688901935123" x2="102.0806757090524" y2="38.69486125195087"/><line stroke="#9467bd" stroke-width="1.5" marker-end="url(#arrow)" x1="8.379776325261721" y1="78.7586596976998" x2="102.0806757090524" y2="38.69486125195087"/><line stroke="#9467bd" stroke-width="1.5" marker-end="url(#arrow)" x1="102.09880500948657" y1="163.51336622857067" x2="185.3955909872883" y2="121.91309926413763"/><line stroke="#9467bd" stroke-width="1.5" marker-end="url(#arrow)" x1="126.29885376724499" y1="63.73669540742741" x2="185.3955909872883" y2="121.91309926413763"/><line stroke="#9467bd" stroke-width="1.5" marker-end="url(#arrow)" x1="1.3416393934476973" y1="-200.0264414917986" x2="-75.20571136677171" y2="-110.88113561835657"/><line stroke="#9467bd" stroke-width="1.5" marker-end="url(#arrow)" x1="1.3416393934476973" y1="-200.0264414917986" x2="14.62093597630566" y2="-120.90197432137177"/><line stroke="#9467bd" stroke-width="1.5" marker-end="url(#arrow)" x1="-88.05753955809584" y1="-186.0324952191899" x2="-75.20571136677171" y2="-110.88113561835657"/><line stroke="#9467bd" stroke-width="1.5" marker-end="url(#arrow)" x1="-88.05753955809584" y1="-186.0324952191899" x2="14.62093597630566" y2="-120.90197432137177"/><line stroke="#9467bd" stroke-width="1.5" marker-end="url(#arrow)" x1="-25.429684653591025" y1="97.85848985027728" x2="30.954941023113207" y2="48.29994296899531"/><line stroke="#9467bd" stroke-width="1.5" marker-end="url(#arrow)" x1="16.537922570631352" y1="-33.20289162787375" x2="63.4652139614732" y2="56.98624776471381"/><line stroke="#9467bd" stroke-width="1.5" marker-end="url(#arrow)" x1="-34.42907523319083" y1="63.58332908542933" x2="63.4652139614732" y2="56.98624776471381"/><line stroke="#9467bd" stroke-width="1.5" marker-end="url(#arrow)" x1="16.466175885734962" y1="-10.975537694313905" x2="63.4652139614732" y2="56.98624776471381"/><line stroke="#9467bd" stroke-width="1.5" marker-end="url(#arrow)" x1="-19.04473534794372" y1="109.63777948734712" x2="63.4652139614732" y2="56.98624776471381"/><line stroke="#9467bd" stroke-width="1.5" marker-end="url(#arrow)" x1="-25.784808714418997" y1="-45.551115184547804" x2="63.4652139614732" y2="56.98624776471381"/><line stroke="#9467bd" stroke-width="1.5" marker-end="url(#arrow)" x1="4.008466883414869" y1="-68.00972997149142" x2="-84.11422339024239" y2="-17.66269198086997"/><line stroke="#9467bd" stroke-width="1.5" marker-end="url(#arrow)" x1="-15.27750816469371" y1="67.98114078682681" x2="-84.11422339024239" y2="-17.66269198086997"/><line stroke="#9467bd" stroke-width="1.5" marker-end="url(#arrow)" x1="-100.5181936324123" y1="-3.6836223828229793" x2="-52.52235408457158" y2="78.60817728129855"/><line stroke="#9467bd" stroke-width="1.5" marker-end="url(#arrow)" x1="4.008466883414869" y1="-68.00972997149142" x2="-95.79202374703692" y2="-98.17760909232398"/><line stroke="#9467bd" stroke-width="1.5" marker-end="url(#arrow)" x1="-69.57410444784601" y1="71.63807360051378" x2="-126.44042116357917" y2="155.6988971627563"/><line stroke="#9467bd" stroke-width="1.5" marker-end="url(#arrow)" x1="-42.572805050892775" y1="195.99022014586834" x2="-8.696701119560997" y2="152.75699181350458"/><line stroke="#9467bd" stroke-width="1.5" marker-end="url(#arrow)" x1="16.579179952405244" y1="-57.106782315738634" x2="60.14346830821498" y2="35.12448902101455"/><line stroke="#9467bd" stroke-width="1.5" marker-end="url(#arrow)" x1="14.753025382544502" y1="11.165688901935123" x2="102.0806757090524" y2="38.69486125195087"/><line stroke="#9467bd" stroke-width="1.5" marker-end="url(#arrow)" x1="8.379776325261721" y1="78.7586596976998" x2="102.0806757090524" y2="38.69486125195087"/><line stroke="#9467bd" stroke-width="1.5" marker-end="url(#arrow)" x1="16.537922570631352" y1="-33.20289162787375" x2="-84.11422339024239" y2="-17.66269198086997"/><line stroke="#9467bd" stroke-width="1.5" marker-end="url(#arrow)" x1="159.00517946323095" y1="-101.26627667508377" x2="89.88584036621037" y2="-173.79347623037515"/><line stroke="#9467bd" stroke-width="1.5" marker-end="url(#arrow)" x1="-148.7529354720882" y1="88.80901707745299" x2="-183.10436796869834" y2="-5.926391205874026"/><line stroke="#9467bd" stroke-width="1.5" marker-end="url(#arrow)" x1="4.008466883414869" y1="-68.00972997149142" x2="-84.11422339024239" y2="-17.66269198086997"/><line stroke="#9467bd" stroke-width="1.5" marker-end="url(#arrow)" x1="-31.216455576821392" y1="-103.99916986682769" x2="24.81927481117707" y2="-184.57795210152506"/><line stroke="#9467bd" stroke-width="1.5" marker-end="url(#arrow)" x1="-132.5355721153496" y1="-51.305029994724904" x2="-48.154194595814275" y2="-86.78296080583048"/><line stroke="#9467bd" stroke-width="1.5" marker-end="url(#arrow)" x1="-116.67292782285459" y1="79.12274578406743" x2="-27.897739266177645" y2="26.21617064168791"/><line stroke="#9467bd" stroke-width="1.5" marker-end="url(#arrow)" x1="-171.0444208385902" y1="-121.87005297873746" x2="-78.88194451621064" y2="-161.50803761673362"/><line stroke="#9467bd" stroke-width="1.5" marker-end="url(#arrow)" x1="-171.0444208385902" y1="-121.87005297873746" x2="-78.88194451621064" y2="-161.50803761673362"/><line stroke="#9467bd" stroke-width="1.5" marker-end="url(#arrow)" x1="-171.0444208385902" y1="-121.87005297873746" x2="-87.01096860444196" y2="-63.115882413104686"/><line stroke="#9467bd" stroke-width="1.5" marker-end="url(#arrow)" x1="-171.0444208385902" y1="-121.87005297873746" x2="-85.96676261774822" y2="-140.47667941104385"/><line stroke="#9467bd" stroke-width="1.5" marker-end="url(#arrow)" x1="38.889112964929545" y1="-60.34985709003222" x2="102.0806757090524" y2="38.69486125195087"/><line stroke="#9467bd" stroke-width="1.5" marker-end="url(#arrow)" x1="14.753025382544502" y1="11.165688901935123" x2="102.0806757090524" y2="38.69486125195087"/><line stroke="#9467bd" stroke-width="1.5" marker-end="url(#arrow)" x1="14.753025382544502" y1="11.165688901935123" x2="102.0806757090524" y2="38.69486125195087"/><line stroke="#9467bd" stroke-width="1.5" marker-end="url(#arrow)" x1="8.379776325261721" y1="78.7586596976998" x2="102.0806757090524" y2="38.69486125195087"/><line stroke="#9467bd" stroke-width="1.5" marker-end="url(#arrow)" x1="8.379776325261721" y1="78.7586596976998" x2="102.0806757090524" y2="38.69486125195087"/><line stroke="#9467bd" stroke-width="1.5" marker-end="url(#arrow)" x1="-25.429684653591025" y1="97.85848985027728" x2="102.0806757090524" y2="38.69486125195087"/><line stroke="#9467bd" stroke-width="1.5" marker-end="url(#arrow)" x1="4.008466883414869" y1="-68.00972997149142" x2="-49.02971702876031" y2="21.386548279420165"/><line stroke="#9467bd" stroke-width="1.5" marker-end="url(#arrow)" x1="52.74778169540627" y1="10.62095425853328" x2="-49.02971702876031" y2="21.386548279420165"/><line stroke="#9467bd" stroke-width="1.5" marker-end="url(#arrow)" x1="-25.429684653591025" y1="97.85848985027728" x2="-56.97664987796735" y2="-31.475277437327776"/><line stroke="#9467bd" stroke-width="1.5" marker-end="url(#arrow)" x1="-73.07762919107618" y1="41.224946855100654" x2="30.954941023113207" y2="48.29994296899531"/><line stroke="#9467bd" stroke-width="1.5" marker-end="url(#arrow)" x1="-55.38741275042886" y1="-61.521952881288854" x2="30.954941023113207" y2="48.29994296899531"/><line stroke="#9467bd" stroke-width="1.5" marker-end="url(#arrow)" x1="16.466175885734962" y1="-10.975537694313905" x2="30.954941023113207" y2="48.29994296899531"/><line stroke="#9467bd" stroke-width="1.5" marker-end="url(#arrow)" x1="-51.14870465687613" y1="1.97240081559159" x2="30.954941023113207" y2="48.29994296899531"/><line stroke="#9467bd" stroke-width="1.5" marker-end="url(#arrow)" x1="4.008466883414869" y1="-68.00972997149142" x2="-84.11422339024239" y2="-17.66269198086997"/><line stroke="#9467bd" stroke-width="1.5" marker-end="url(#arrow)" x1="38.889112964929545" y1="-60.34985709003222" x2="136.26484175180434" y2="-29.33827396037437"/><line stroke="#9467bd" stroke-width="1.5" marker-end="url(#arrow)" x1="45.51363726734069" y1="-19.733136119297374" x2="35.5959481746242" y2="-128.9229280678101"/><line stroke="#9467bd" stroke-width="1.5" marker-end="url(#arrow)" x1="-69.57410444784601" y1="71.63807360051378" x2="-70.99090502198868" y2="178.64839435840062"/><line stroke="#9467bd" stroke-width="1.5" marker-end="url(#arrow)" x1="-25.429684653591025" y1="97.85848985027728" x2="-70.99090502198868" y2="178.64839435840062"/><line stroke="#9467bd" stroke-width="1.5" marker-end="url(#arrow)" x1="16.466175885734962" y1="-10.975537694313905" x2="-48.154194595814275" y2="-86.78296080583048"/><line stroke="#9467bd" stroke-width="1.5" marker-end="url(#arrow)" x1="-83.31783803363555" y1="19.239673447531217" x2="-48.154194595814275" y2="-86.78296080583048"/><line stroke="#9467bd" stroke-width="1.5" marker-end="url(#arrow)" x1="82.10294562687581" y1="-12.605057131172833" x2="92.13151090512584" y2="-113.58885544054418"/><line stroke="#9467bd" stroke-width="1.5" marker-end="url(#arrow)" x1="-17.68240798596376" y1="4.578307323866847" x2="74.43929927201356" y2="14.161138527874645"/><line stroke="#9467bd" stroke-width="1.5" marker-end="url(#arrow)" x1="32.436412178848364" y1="117.26726574401562" x2="74.43929927201356" y2="14.161138527874645"/><line stroke="#9467bd" stroke-width="1.5" marker-end="url(#arrow)" x1="11.145022192955453" y1="-86.09508005580665" x2="74.43929927201356" y2="14.161138527874645"/><line stroke="#9467bd" stroke-width="1.5" marker-end="url(#arrow)" x1="82.10294562687581" y1="-12.605057131172833" x2="92.13151090512584" y2="-113.58885544054418"/><line stroke="#9467bd" stroke-width="1.5" marker-end="url(#arrow)" x1="82.10294562687581" y1="-12.605057131172833" x2="46.78564718580072" y2="81.42370371310432"/><line stroke="#9467bd" stroke-width="1.5" marker-end="url(#arrow)" x1="-25.429684653591025" y1="97.85848985027728" x2="-39.52863565665331" y2="-5.661662170704368"/><line stroke="#9467bd" stroke-width="1.5" marker-end="url(#arrow)" x1="-17.68240798596376" y1="4.578307323866847" x2="46.78564718580072" y2="81.42370371310432"/></g><g stroke-width="1.5"><circle id="agent-1469" class="has-link" r="5.196152422706632" stroke="#eee" fill="#e78ac3" cx="89.56196665007693" cy="-67.48710224446754"/><circle id="agent-2869" class="has-link" r="5.5677643628300215" stroke="#eee" fill="#e78ac3" cx="-42.572805050892775" cy="195.99022014586834"/><circle id="agent-2084" class="has-link" r="5.0990195135927845" stroke="#eee" fill="#e78ac3" cx="-7.956820379768428" cy="-157.78269865877073"/><circle id="agent-1838" class="has-link" r="5.5677643628300215" stroke="#eee" fill="#e78ac3" cx="22.72970534082593" cy="96.4866891472492"/><circle id="agent-1040" class="has-link" r="5.291502622129181" stroke="#eee" fill="#e78ac3" cx="-31.216455576821392" cy="-103.99916986682769"/><circle id="agent-1132" class="has-link" r="5.5677643628300215" stroke="#eee" fill="#e78ac3" cx="-15.27750816469371" cy="67.98114078682681"/><circle id="agent-1140" class="has-link" r="5.916079783099616" stroke="#eee" fill="#e78ac3" cx="-69.57410444784601" cy="71.63807360051378"/><circle id="agent-1596" class="has-link" r="5.196152422706632" stroke="#eee" fill="#e78ac3" cx="173.2694932050067" cy="24.627267433712376"/><circle id="agent-1066" class="has-link" r="5.196152422706632" stroke="#eee" fill="#e78ac3" cx="159.00517946323095" cy="-101.26627667508377"/><circle id="agent-1167" class="has-link" r="5.0990195135927845" stroke="#eee" fill="#e78ac3" cx="36.98347808947899" cy="153.09307589862632"/><circle id="agent-2125" class="has-link" r="5.196152422706632" stroke="#eee" fill="#e78ac3" cx="-30.12807691098623" cy="-171.2903660690845"/><circle id="agent-1160" class="has-link" r="5.0990195135927845" stroke="#eee" fill="#e78ac3" cx="12.572955477611524" cy="27.79586559371506"/><circle id="agent-2090" class="has-link" r="5.196152422706632" stroke="#eee" fill="#e78ac3" cx="98.99456827782022" cy="-89.82048700899531"/><circle id="agent-2834" class="has-link" r="5.0990195135927845" stroke="#eee" fill="#fc8d62" cx="84.05933959109528" cy="83.51062997039135"/><circle id="agent-2769" class="has-link" r="5.0990195135927845" stroke="#eee" fill="#fc8d62" cx="-144.26156881405055" cy="126.25544268939001"/><circle id="agent-2837" class="has-link" r="5.0990195135927845" stroke="#eee" fill="#66c2a5" cx="71.87698500195847" cy="-59.42776200679926"/><circle id="agent-2247" class="has-link" r="5.291502622129181" stroke="#eee" fill="#fc8d62" cx="-131.05614072679023" cy="26.87166446496049"/><circle id="agent-1453" class="has-link" r="5.830951894845301" stroke="#eee" fill="#fc8d62" cx="-32.691753614840174" cy="149.89665574009305"/><circle id="agent-2772" class="has-link" r="5.196152422706632" stroke="#eee" fill="#fc8d62" cx="46.79318327564028" cy="-164.7318192197584"/><circle id="agent-2838" class="has-link" r="6.557438524302" stroke="#eee" fill="#fc8d62" cx="8.379776325261721" cy="78.7586596976998"/><circle id="agent-1695" class="has-link" r="5.291502622129181" stroke="#eee" fill="#fc8d62" cx="82.10294562687581" cy="-12.605057131172833"/><circle id="agent-2037" class="has-link" r="5.744562646538029" stroke="#eee" fill="#fc8d62" cx="52.74778169540627" cy="10.62095425853328"/><circle id="agent-2703" class="has-link" r="5.830951894845301" stroke="#eee" fill="#fc8d62" cx="16.579179952405244" cy="-57.106782315738634"/><circle id="agent-2777" class="has-link" r="5.0990195135927845" stroke="#eee" fill="#fc8d62" cx="-155.40310214499874" cy="48.18581404835036"/><circle id="agent-1297" class="has-link" r="6.082762530298219" stroke="#eee" fill="#fc8d62" cx="46.78564718580072" cy="81.42370371310432"/><circle id="agent-2359" class="has-link" r="5.830951894845301" stroke="#eee" fill="#fc8d62" cx="-25.784808714418997" cy="-45.551115184547804"/><circle id="agent-1198" class="has-link" r="5.291502622129181" stroke="#eee" fill="#fc8d62" cx="92.13151090512584" cy="-113.58885544054418"/><circle id="agent-2162" class="has-link" r="5.5677643628300215" stroke="#eee" fill="#fc8d62" cx="-34.42907523319083" cy="63.58332908542933"/><circle id="agent-2515" class="has-link" r="5.385164807134504" stroke="#eee" fill="#fc8d62" cx="-39.322795578890904" cy="-196.70034821086432"/><circle id="agent-2937" class="has-link" r="5.291502622129181" stroke="#eee" fill="#fc8d62" cx="118.46808947952657" cy="-53.21467181895509"/><circle id="agent-1213" class="has-link" r="5.0990195135927845" stroke="#eee" fill="#66c2a5" cx="-187.72469346321358" cy="36.6166835098991"/><circle id="agent-2945" class="has-link" r="5.477225575051661" stroke="#eee" fill="#fc8d62" cx="-55.38741275042886" cy="-61.521952881288854"/><circle id="agent-2938" class="has-link" r="5.291502622129181" stroke="#eee" fill="#fc8d62" cx="-149.12187586376257" cy="-15.852735260650787"/><circle id="agent-2744" class="has-link" r="5.291502622129181" stroke="#eee" fill="#fc8d62" cx="-83.69266623801396" cy="-43.83381932519378"/><circle id="agent-2736" class="has-link" r="6.164414002968976" stroke="#eee" fill="#fc8d62" cx="47.243568830373306" cy="-86.96656684727841"/><circle id="agent-2784" class="has-link" r="5.291502622129181" stroke="#eee" fill="#fc8d62" cx="-8.692581426737647" cy="204.05795249586902"/><circle id="agent-2709" class="has-link" r="5.477225575051661" stroke="#eee" fill="#fc8d62" cx="11.145022192955453" cy="-86.09508005580665"/><circle id="agent-2369" class="has-link" r="5.196152422706632" stroke="#eee" fill="#fc8d62" cx="154.5561863183701" cy="85.50109588387177"/><circle id="agent-2942" class="has-link" r="5.291502622129181" stroke="#eee" fill="#fc8d62" cx="-51.14870465687613" cy="1.97240081559159"/><circle id="agent-2493" class="has-link" r="5.0990195135927845" stroke="#eee" fill="#fc8d62" cx="-86.70494288644745" cy="164.79032461655666"/><circle id="agent-2944" class="has-link" r="5.477225575051661" stroke="#eee" fill="#fc8d62" cx="-73.07762919107618" cy="41.224946855100654"/><circle id="agent-2146" class="has-link" r="6.082762530298219" stroke="#eee" fill="#fc8d62" cx="-56.97664987796735" cy="-31.475277437327776"/><circle id="agent-2690" class="has-link" r="6.164414002968976" stroke="#eee" fill="#fc8d62" cx="16.466175885734962" cy="-10.975537694313905"/><circle id="agent-2941" class="has-link" r="5.291502622129181" stroke="#eee" fill="#fc8d62" cx="-132.5355721153496" cy="-51.305029994724904"/><circle id="agent-1850" class="has-link" r="5.196152422706632" stroke="#eee" fill="#fc8d62" cx="16.537922570631352" cy="-33.20289162787375"/><circle id="agent-1397" class="has-link" r="6.082762530298219" stroke="#eee" fill="#fc8d62" cx="56.21606864162146" cy="206.32094034636324"/><circle id="agent-2946" class="has-link" r="5.656854249492381" stroke="#eee" fill="#fc8d62" cx="114.09840572928364" cy="-153.58490014761406"/><circle id="agent-2805" class="has-link" r="5.291502622129181" stroke="#eee" fill="#fc8d62" cx="-17.51089279706138" cy="-127.72291387272874"/><circle id="agent-2806" class="has-link" r="5.744562646538029" stroke="#eee" fill="#fc8d62" cx="-16.712635168167086" cy="-26.64306463560495"/><circle id="agent-2808" class="has-link" r="5.291502622129181" stroke="#eee" fill="#fc8d62" cx="-114.51842146427543" cy="-115.33291334801007"/><circle id="agent-1338" class="has-link" r="5.385164807134504" stroke="#eee" fill="#66c2a5" cx="-94.87676228915363" cy="70.18511873711812"/><circle id="agent-2807" class="has-link" r="5.196152422706632" stroke="#eee" fill="#fc8d62" cx="-119.94310002363933" cy="-9.794154152355816"/><circle id="agent-1345" class="has-link" r="5.385164807134504" stroke="#eee" fill="#fc8d62" cx="14.62093597630566" cy="-120.90197432137177"/><circle id="agent-1737" class="has-link" r="6.164414002968976" stroke="#eee" fill="#fc8d62" cx="-19.04473534794372" cy="109.63777948734712"/><circle id="agent-2148" class="has-link" r="5.385164807134504" stroke="#eee" fill="#fc8d62" cx="-110.6272496425486" cy="49.60424762515737"/><circle id="agent-2912" class="has-link" r="5.385164807134504" stroke="#eee" fill="#fc8d62" cx="100.67251625340883" cy="-31.748243697433864"/><circle id="agent-2914" class="has-link" r="5.196152422706632" stroke="#eee" fill="#fc8d62" cx="111.42354553432443" cy="69.32809666049582"/><circle id="agent-2012" class="has-link" r="5.385164807134504" stroke="#eee" fill="#fc8d62" cx="-49.20751100153741" cy="-143.28607304004197"/><circle id="agent-2851" class="has-link" r="5.0990195135927845" stroke="#eee" fill="#fc8d62" cx="-116.67292782285459" cy="79.12274578406743"/><circle id="agent-1362" class="has-link" r="6" stroke="#eee" fill="#fc8d62" cx="-67.70423683664775" cy="99.67108572239194"/><circle id="agent-2331" class="has-link" r="7.14142842854285" stroke="#eee" fill="#fc8d62" cx="102.0806757090524" cy="38.69486125195087"/><circle id="agent-1298" class="has-link" r="5.744562646538029" stroke="#eee" fill="#fc8d62" cx="-148.7529354720882" cy="88.80901707745299"/><circle id="agent-2825" class="has-link" r="5.291502622129181" stroke="#eee" fill="#fc8d62" cx="126.29885376724499" cy="63.73669540742741"/><circle id="agent-2874" class="has-link" r="5.385164807134504" stroke="#eee" fill="#fc8d62" cx="139.69014487130028" cy="39.992797628995774"/><circle id="agent-2776" class="has-link" r="5.196152422706632" stroke="#eee" fill="#fc8d62" cx="-17.68240798596376" cy="4.578307323866847"/><circle id="agent-2857" class="has-link" r="5.291502622129181" stroke="#eee" fill="#fc8d62" cx="144.2624796240794" cy="4.646505007679583"/><circle id="agent-2920" class="has-link" r="5.744562646538029" stroke="#eee" fill="#fc8d62" cx="102.09880500948657" cy="163.51336622857067"/><circle id="agent-2895" class="has-link" r="5.916079783099616" stroke="#eee" fill="#fc8d62" cx="-171.0444208385902" cy="-121.87005297873746"/><circle id="agent-2858" class="has-link" r="5.291502622129181" stroke="#eee" fill="#fc8d62" cx="186.5863778869119" cy="88.40161051156406"/><circle id="agent-2859" class="has-link" r="5.291502622129181" stroke="#eee" fill="#fc8d62" cx="-95.77156832825192" cy="-32.747879139594914"/><circle id="agent-2873" class="has-link" r="5.385164807134504" stroke="#eee" fill="#fc8d62" cx="81.13002048995067" cy="-42.47563105257712"/><circle id="agent-2896" class="has-link" r="5.656854249492381" stroke="#eee" fill="#fc8d62" cx="-87.01096860444196" cy="-63.115882413104686"/><circle id="agent-2246" class="has-link" r="5.291502622129181" stroke="#eee" fill="#fc8d62" cx="-218.1072129927913" cy="-0.6462087122349357"/><circle id="agent-2854" class="has-link" r="5.385164807134504" stroke="#eee" fill="#fc8d62" cx="1.3416393934476973" cy="-200.0264414917986"/><circle id="agent-2105" class="has-link" r="5.830951894845301" stroke="#eee" fill="#fc8d62" cx="35.75362464263158" cy="209.15297739838996"/><circle id="agent-2853" class="has-link" r="5.385164807134504" stroke="#eee" fill="#fc8d62" cx="-88.05753955809584" cy="-186.0324952191899"/><circle id="agent-2702" class="has-link" r="5.196152422706632" stroke="#eee" fill="#fc8d62" cx="89.48422067113373" cy="-146.8616223859566"/><circle id="agent-2325" class="has-link" r="7.483314773547883" stroke="#eee" fill="#fc8d62" cx="14.753025382544502" cy="11.165688901935123"/><circle id="agent-1828" class="has-link" r="6.48074069840786" stroke="#eee" fill="#fc8d62" cx="4.008466883414869" cy="-68.00972997149142"/><circle id="agent-1211" class="has-link" r="6.244997998398398" stroke="#eee" fill="#fc8d62" cx="56.021712509764576" cy="114.55911986129068"/><circle id="agent-2078" class="has-link" r="6" stroke="#eee" fill="#fc8d62" cx="-28.62035148235079" cy="170.22518103842148"/><circle id="agent-2947" class="has-link" r="5.830951894845301" stroke="#eee" fill="#fc8d62" cx="125.62807257269728" cy="-75.14608868745762"/><circle id="agent-2211" class="has-link" r="5.916079783099616" stroke="#eee" fill="#fc8d62" cx="-25.429684653591025" cy="97.85848985027728"/><circle id="agent-2818" class="has-link" r="5.291502622129181" stroke="#eee" fill="#fc8d62" cx="45.51363726734069" cy="-19.733136119297374"/><circle id="agent-2735" class="has-link" r="5.5677643628300215" stroke="#eee" fill="#fc8d62" cx="112.14057704487587" cy="7.0983812185861455"/><circle id="agent-2887" class="has-link" r="5.656854249492381" stroke="#eee" fill="#fc8d62" cx="-83.31783803363555" cy="19.239673447531217"/><circle id="agent-2184" class="has-link" r="6.164414002968976" stroke="#eee" fill="#fc8d62" cx="38.889112964929545" cy="-60.34985709003222"/><circle id="agent-2768" class="has-link" r="5.385164807134504" stroke="#eee" fill="#fc8d62" cx="32.436412178848364" cy="117.26726574401562"/><circle id="agent-1884" class="has-link" r="5.5677643628300215" stroke="#eee" fill="#fc8d62" cx="-100.5181936324123" cy="-3.6836223828229793"/><circle id="agent-2948" class="has-link" r="5.477225575051661" stroke="#eee" fill="#fc8d62" cx="159.85212075231703" cy="-72.81699830252512"/><circle id="agent-1330" class="has-link" r="6.708203932499369" stroke="#eee" fill="#66c2a5" cx="-84.11422339024239" cy="-17.66269198086997"/><circle id="agent-2893" class="has-link" r="5.656854249492381" stroke="#eee" fill="#fc8d62" cx="-85.96676261774822" cy="-140.47667941104385"/><circle id="agent-1904" class="has-link" r="5.196152422706632" stroke="#eee" fill="#8da0cb" cx="127.49110200616953" cy="-109.41194709011683"/><circle id="agent-2003" class="has-link" r="5.196152422706632" stroke="#eee" fill="#8da0cb" cx="-203.6919461612278" cy="-87.6586047276374"/><circle id="agent-1893" class="has-link" r="5.196152422706632" stroke="#eee" fill="#8da0cb" cx="150.11185639032448" cy="-142.12796426916861"/><circle id="agent-2010" class="has-link" r="5.291502622129181" stroke="#eee" fill="#8da0cb" cx="-128.37122503379797" cy="63.5250445392209"/><circle id="agent-2022" class="has-link" r="5.656854249492381" stroke="#eee" fill="#8da0cb" cx="-8.696701119560997" cy="152.75699181350458"/><circle id="agent-2041" class="has-link" r="5.477225575051661" stroke="#eee" fill="#8da0cb" cx="63.4652139614732" cy="56.98624776471381"/><circle id="agent-2043" class="has-link" r="5.291502622129181" stroke="#eee" fill="#8da0cb" cx="-113.9745007493568" cy="131.67732897042572"/><circle id="agent-2076" class="has-link" r="5.291502622129181" stroke="#eee" fill="#8da0cb" cx="89.88584036621037" cy="-173.79347623037515"/><circle id="agent-2089" class="has-link" r="5.196152422706632" stroke="#eee" fill="#8da0cb" cx="166.0879091240302" cy="-6.557543130090547"/><circle id="agent-2245" class="has-link" r="5.196152422706632" stroke="#eee" fill="#8da0cb" cx="-155.03325055294943" cy="-72.75006106570947"/><circle id="agent-1907" class="has-link" r="5.0990195135927845" stroke="#eee" fill="#8da0cb" cx="145.03482172571196" cy="-55.653135740986635"/><circle id="agent-2280" class="has-link" r="5.0990195135927845" stroke="#eee" fill="#8da0cb" cx="136.26484175180434" cy="-29.33827396037437"/><circle id="agent-2304" class="has-link" r="5.656854249492381" stroke="#eee" fill="#8da0cb" cx="-48.154194595814275" cy="-86.78296080583048"/><circle id="agent-2313" class="has-link" r="5.5677643628300215" stroke="#eee" fill="#8da0cb" cx="30.954941023113207" cy="48.29994296899531"/><circle id="agent-2319" class="has-link" r="5.196152422706632" stroke="#eee" fill="#8da0cb" cx="-39.52863565665331" cy="-5.661662170704368"/><circle id="agent-2338" class="has-link" r="5.0990195135927845" stroke="#eee" fill="#66c2a5" cx="178.5946804142835" cy="51.55898343681652"/><circle id="agent-1913" class="has-link" r="5.385164807134504" stroke="#eee" fill="#8da0cb" cx="90.85697421106208" cy="100.26419009076096"/><circle id="agent-2387" class="has-link" r="5.385164807134504" stroke="#eee" fill="#8da0cb" cx="-64.85018686448251" cy="-5.769398569063808"/><circle id="agent-2390" class="has-link" r="5.196152422706632" stroke="#eee" fill="#8da0cb" cx="135.27036948264285" cy="132.58514434538233"/><circle id="agent-2391" class="has-link" r="5.0990195135927845" stroke="#eee" fill="#8da0cb" cx="45.14398723680589" cy="173.75673485873665"/><circle id="agent-2425" class="has-link" r="5.0990195135927845" stroke="#eee" fill="#8da0cb" cx="24.81927481117707" cy="-184.57795210152506"/><circle id="agent-2465" class="has-link" r="5.196152422706632" stroke="#eee" fill="#8da0cb" cx="-70.99090502198868" cy="178.64839435840062"/><circle id="agent-2466" class="has-link" r="5.196152422706632" stroke="#eee" fill="#8da0cb" cx="-141.8338460542563" cy="-103.65774753231074"/><circle id="agent-2476" class="has-link" r="5.196152422706632" stroke="#eee" fill="#8da0cb" cx="-78.88194451621064" cy="-161.50803761673362"/><circle id="agent-2488" class="has-link" r="5.385164807134504" stroke="#eee" fill="#8da0cb" cx="-126.44042116357917" cy="155.6988971627563"/><circle id="agent-2490" class="has-link" r="5.0990195135927845" stroke="#eee" fill="#8da0cb" cx="-179.05445888817658" cy="71.25016753521065"/><circle id="agent-1917" class="has-link" r="5.291502622129181" stroke="#eee" fill="#8da0cb" cx="-52.52235408457158" cy="78.60817728129855"/><circle id="agent-2498" class="has-link" r="5.0990195135927845" stroke="#eee" fill="#8da0cb" cx="-183.10436796869834" cy="-5.926391205874026"/><circle id="agent-2513" class="has-link" r="5.385164807134504" stroke="#eee" fill="#fc8d62" cx="35.5959481746242" cy="-128.9229280678101"/><circle id="agent-1918" class="has-link" r="5.196152422706632" stroke="#eee" fill="#8da0cb" cx="-38.458302621185474" cy="34.65274529367019"/><circle id="agent-2540" class="has-link" r="5.196152422706632" stroke="#eee" fill="#8da0cb" cx="-126.17521107010363" cy="-145.09039033735354"/><circle id="agent-2541" class="has-link" r="5.196152422706632" stroke="#eee" fill="#8da0cb" cx="194.4032508609083" cy="-6.531109895533569"/><circle id="agent-1921" class="has-link" r="5.0990195135927845" stroke="#eee" fill="#8da0cb" cx="123.64844385103642" cy="112.21727053489252"/><circle id="agent-1925" class="has-link" r="5.196152422706632" stroke="#eee" fill="#8da0cb" cx="66.36957921855675" cy="-140.10560393539728"/><circle id="agent-1901" class="has-link" r="5.385164807134504" stroke="#eee" fill="#8da0cb" cx="108.63432406701455" cy="-8.227149875978718"/><circle id="agent-1937" class="has-link" r="5.196152422706632" stroke="#eee" fill="#8da0cb" cx="-70.4127702611206" cy="130.90194082090275"/><circle id="agent-1899" class="has-link" r="5.196152422706632" stroke="#eee" fill="#8da0cb" cx="73.77625749109492" cy="143.32009549451016"/><circle id="agent-1946" class="has-link" r="5.196152422706632" stroke="#eee" fill="#fc8d62" cx="-110.16550788574976" cy="89.95858376312988"/><circle id="agent-1947" class="has-link" r="5.196152422706632" stroke="#eee" fill="#8da0cb" cx="-106.71465428145055" cy="-80.32063958952716"/><circle id="agent-1950" class="has-link" r="5.291502622129181" stroke="#eee" fill="#8da0cb" cx="185.3955909872883" cy="121.91309926413763"/><circle id="agent-1954" class="has-link" r="5.385164807134504" stroke="#eee" fill="#fc8d62" cx="-75.20571136677171" cy="-110.88113561835657"/><circle id="agent-1955" class="has-link" r="5.385164807134504" stroke="#eee" fill="#8da0cb" cx="-95.79202374703692" cy="-98.17760909232398"/><circle id="agent-1958" class="has-link" r="5.0990195135927845" stroke="#eee" fill="#fc8d62" cx="60.14346830821498" cy="35.12448902101455"/><circle id="agent-1963" class="has-link" r="5.196152422706632" stroke="#eee" fill="#8da0cb" cx="-27.897739266177645" cy="26.21617064168791"/><circle id="agent-1966" class="has-link" r="5.291502622129181" stroke="#eee" fill="#fc8d62" cx="74.43929927201356" cy="14.161138527874645"/><circle id="agent-1972" class="has-link" r="5.196152422706632" stroke="#eee" fill="#8da0cb" cx="-49.02971702876031" cy="21.386548279420165"/><circle id="agent-1974" class="has-link" r="5.0990195135927845" stroke="#eee" fill="#8da0cb" cx="41.628222756682135" cy="-197.38636398978454"/><circle id="agent-1984" class="has-link" r="5.916079783099616" stroke="#eee" fill="#8da0cb" cx="90.62898233961148" cy="138.0105699238798"/><circle id="agent-2891" class="has-link" r="5.744562646538029" stroke="#eee" fill="#8da0cb" cx="-168.56103199283564" cy="-38.581441561233774"/><circle id="agent-2609" class="has-link" r="5.196152422706632" stroke="#eee" fill="#fc8d62" cx="193.69474297932243" cy="-94.17647953065779"/></g></g></svg>