<svg xmlns="http://www.w3.org/2000/svg" width="928" height="620" fill="none" viewBox="0 0 928 620">
  <path stroke="#2CA02C" stroke-width="1.5" d="m560.45 436.389 51.183 23.676m-51.183-23.676-5.084-57.274m5.084 57.274-37.074-6.384m37.074 6.384-22.342 27.431m22.342-27.431-1.879-37.62m1.879 37.62-35.648 47.184m35.648-47.184 17.812-75.773m-17.812 75.773-98.172-61.84m98.172 61.84-38.746-39.925m38.746 39.925-9.014-81.612m9.014 81.612-12.535 23.384m115.495-25.146-39.17-18.325M173.103 381.4l26.936-28.289m110.212 220.75-24.536-19.568m43.043-234.409 64.132-17.539m-64.132 17.539 185.378-50.512m-185.378 50.512-128.719 33.227m128.719-33.227-95.059 54.689M692.031 92.385l-7.545 26.719m7.545-26.719-29.298.853m-45.012 260.046 33.86 11.547m-33.86-11.547-35.355 19.777m35.355-19.777 46.598 42.175m-46.598-42.175 6.519 63.018m-6.519-63.018-166.449-68.742M329.35 196.687l90.236 26.814m-90.236-26.814-18.142 34.866m18.142-34.866-44.511 41m44.511-41 7.476-22.093m77.063 141.06 48.389 58.895m-48.389-58.895 4.622-58.475m-4.622 58.475 11.126-41.987m39.196 147.699-51.19 43.443m51.19-43.443 99.325-5.57m-99.325 5.57-18.986 23.099m18.986-23.099 45.762-49.809m-45.762 49.809-52-71.425m362.816-55.74-.72 31.218m-497.014 22.556 5.744-38.405m-5.744 38.405-25.059-44.331m25.059 44.331-36.599-52.661m36.599 52.661-13.199-10.702m13.199 10.702 39.69-72.577m-39.69 72.577-5.535 46.906m139.624-91.557-100.174-71.771m100.174 71.771-18.314-15.79m18.314 15.79 82.49 58.828m-82.49-58.828 50.896 71.225m-50.896-71.225-13.744-71.969m13.744 71.969 97.148-48.012m-97.148 48.012 53.677 45.581m-53.677-45.581 30.108.116m-30.108-.116.829 46.617m61.41 49.858-.693-126.924m.693 126.924-6.256-167.957m6.256 167.957-60.6 65.01m60.6-65.01-101.38 81.997m101.38-81.997-59.991 40.064m59.991-40.064 84.95-1.03m-84.95 1.03-28.396 44.666m28.396-44.666-42.433-26.903m42.433 26.903 20.251-37.647m-20.251 37.647 51.181 83.774m-51.181-83.774 74.648-118.781m-74.648 118.781-11.343-25.25m11.343 25.25-29.619-44.576m29.619 44.576 48.083-3.335m-48.083 3.335-8.562-50.894m8.562 50.894 77.816-45.022m-77.816 45.022-68.684-23.796m68.684 23.796 5.35 52.054M240.692 267.79l-37.936 55.982m37.937-55.982 11.541 35.854m-11.541-35.854 36.366 14.393m-36.367-14.393-45.427 8.441m45.428-8.441 76.29 7.608m-104.202 68.11 26.167-31.73m-26.167 31.73-4.831-32.753m431.422-73.33 55.318-12.622m-55.318 12.622-6.465-23.327m6.465 23.327 30.982-27.748m-30.982 27.748 53.099 23.3m-53.099-23.3-80.801 161.344m80.801-161.344 37.383-12.527m-37.383 12.527-155.659 3.332m155.659-3.332-56.754-75.46m56.754 75.46-114.281-65.322m114.281 65.322 31.068 49.078M545.276 129.811l-20.185 42.292m20.185-42.292-1.684 49.042m-13.07 48.75-110.936-4.102m110.936 4.102-27.054 82.396m27.054-82.396-98.445-29.425m98.445 29.425-69.223-25.996m69.223 25.996-20.477-36.524m20.477 36.524 79.91 31.177m-79.91-31.177-46.809 13.154m46.809-13.154 44.432-50.177m-44.432 50.177-5.431-55.5m5.431 55.5 139.918 58.9m-139.918-58.9-65.463 121.302m65.463-121.302 20.915 127.175m-208.991-9.128-49.212-9.804m49.212 9.804 69.765 4.291m239.37 14.89-33.86-11.547m33.86 11.547-69.215 8.23M735.758 168.93l-16.936-25.439m-24.132 81.312-55.318 12.622m55.318-12.622 35.535 5.959m-496.091-.99-11.231 82.28m11.231-82.28 77.074 1.781m-77.074-1.781-38.386-11.152m38.386 11.152-38.869 46.459m305.903 197.525-6.051-46.647m-75.531-203.608-90.236-26.814m90.236 26.814 110.936 4.102m-110.936-4.102 10.739 75.37m-10.739-75.37 53.342 49.374m-53.342-49.374 67.741 3.112m-67.741-3.112 36.854 41.928m-36.854-41.928 47.779 8.341m-47.779-8.341-19.146 38.163m19.146-38.163 94.55 45.872m-94.55-45.872-5.4-49.052m5.4 49.052-19.434-40.826m19.434 40.826 12.491-25.323m-12.491 25.323 14.527 34.728m-14.527-34.728-13.684 191.272m13.684-191.272-5.956 216.362m5.956-216.362 22.984-7.019m-22.984 7.019 190.846 35.279m-190.846-35.279-82.76-48.907m82.76 48.907 64.127 17.256m-64.127-17.256-18.812 117.105m18.812-117.105 42.692 151.048m-42.692-151.048 105.505-51.398m-105.505 51.398-32.832-44.453m32.832 44.453-1.075 33.678m214.396-43.081 6.465 23.327m-6.465-23.327-25.471 87.573m25.471-87.573-57.953-36.672m-108.975 74.455 75.747 60.579m-75.747-60.579-47.468 5.298m47.468-5.298-40.964 21.786m-202.112 38.385 11.231-82.28m-11.231 82.28-30.179-14.14m30.179 14.14 10.796 62.521m-10.796-62.521 41.191 25.221m166.231-38.402-10.739-75.37m10.739 75.37 31.953 75.678M186.516 319.37l6.208-21.458m-6.208 21.458 13.523 33.741m-13.523-33.741-30.308-5.091m30.308 5.091 52.432-7.592m-52.432 7.592 54.178-24.056m478.128-151.823 16.936 25.439M287.19 196.995l24.018 34.558m161.72 41.322.693 126.924m-.693-126.924-53.342-49.374m53.342 49.374 14.399-46.262m-14.399 46.262-57.35 18.239m57.35-18.239-16.488-7.446m16.488 7.446-5.563-41.033m5.563 41.033 19.963-75.526m-19.963 75.526-82.332-81.579m82.332 81.579 41.208-3.503m-41.208 3.503 10.49-17.312m-10.49 17.312 52.832 32.236m-52.832-32.236-40.896-25.569m40.896 25.569 128.944 8.846m-128.944-8.846-41.74 100.021m41.74-100.021 37.117-81.796m-37.117 81.796-30.358-56.393m30.358 56.393-14.731 25.318m14.731-25.318 75.341 8.143m-75.341-8.143 22.459-52.901m-22.459 52.901 29.228-32.184m-29.228 32.184-72.154 67.731m72.154-67.731-10.65 101.674m10.65-101.674-28.926 82.348m28.926-82.348 48.776 123.589m-48.776-123.589 37.045 98.682m-37.045-98.682-75.29-41.52m75.29 41.52-54.417-15.696m54.417 15.696-47.913.792m47.913-.792-7.869 76.03m7.869-76.03 70.664-94.022m-70.664 94.022L441.49 303.44m31.438-30.565 2.553 52.679m-2.553-52.679-29.38 138.682m29.38-138.682-67.991 103.128m82.39-149.39-67.741-3.112m67.741 3.112-14.399 46.262m14.399-46.262 60.942 54.405m-60.942-54.405 21.203 28.699m-92.952 35.802 57.35-18.239m-57.35 18.239L372.3 271.039m43.278 20.075-39.15-34.49m39.15 34.49-59.876 51.423m59.876-51.423 68.135-50.357m-68.135 50.357 46.7 83.435m-46.7-83.435 86.469 46.516M311.208 231.553l18.142-34.866m-18.142 34.866 100.174 71.771m-100.174-71.771-77.074-1.781m77.074 1.781-24.018-34.558m24.018 34.558-26.369 6.134m26.369-6.134-72.26 80.225m72.26-80.225 25.618-56.959m-25.618 56.959-55.718 18.993m55.718-18.993 86.43-.198m-86.43.198 5.775 43.845m-5.775-43.845 140.064 52.989m43.845 142.567 6.051 46.647m-6.051-46.647-3.496 44.464m3.496-44.464 15.738 41.35m-15.738-41.35-30.987 24.694m30.987-24.694-46.053-60.527m46.053 60.527 53.152-146.091m-53.152 146.091-32.839-52.56m32.839 52.56 89.896-43.561m-89.896 43.561 26.587-30.645m-26.587 30.645-57.416 68.971m57.416-68.971-51.569-15.552m15.126-303.129 10.648 45.8m181.26 321.658-38.949-15.821m38.949 15.821 13.045-17.073m-13.045 17.073-26.342-59.584M503.468 309.999l27.054-82.396m-27.054 82.396L372.3 271.039m131.168 38.96 10.668-40.627m-10.668 40.627-35.025-1.769m35.025 1.769 100.799 22.224m-100.799-22.224 51.898 69.116m-51.898-69.116 40.65 25.825m-40.65-25.825-69.355-51.77m69.355 51.77 21.623 2.785m-21.623-2.785 55.103 88.77m-55.103-88.77 38.258 2.461m-38.258-2.461 44.801-28.981m-44.801 28.981-186.485-34.601m186.485 34.601 5.062-54.687m-5.062 54.687 71.98 30.476m-71.98-30.476 47.968 44.779M327.039 226.042l-68.037-7.767m68.037 7.767 156.674 14.715m-156.674-14.715L220.012 260.97m313.092 31.293-26.377-4.179m26.377 4.179-31.057 45.367m109.586 122.435-51.183-23.676m51.183 23.676 38.949 15.821m-38.949-15.821 51.994-1.252m-51.994 1.252-56.267-80.95m56.267 80.95-73.993-44.779m48.381-94.742 36.034-115.697m-36.034 115.697-44.295-8.084m44.295 8.084-120.962 28.36m120.962-28.36 38.219 95.758m-46.472-273.395 44.287 61.94m-44.287-61.94-70.087.951m-333.71 199.346 8.759-78.971m-8.759 78.971 64.044-7.612m-64.044 7.611 26.068 9.908m-26.068-9.908 20.148 50.876m469.508 64.734-13.045 17.073m13.045-17.073-51.994 1.252m51.994-1.252-39.387-42.511M483.676 210.224l24.005-66.366m-24.005 66.366 39.37-4.481m-39.37 4.481 64.593 70.794m-64.593-70.794-65.165 46.955m65.165-46.955-58.661 63.443m58.661-63.443 24.854 45.088m-24.854-45.088 11.509 84.135m-79.69-159.383-27.631-2.172m27.631 2.172-4.8-45.967m4.8 45.967 16.537 112.33m162.004 182.789-35.465-31.326M456.44 265.429l-36.854-41.928m36.854 41.928 16.488 7.446m-16.488-7.446 10.925-33.587m-10.925 33.587 57.696 3.944m-57.696-3.944-22.327-7.2m22.327 7.2 5.838 109.12m-69.388-72.204-64.132 17.539m64.132-17.539-20.59-31.306m20.59 31.306 132.201 10.439M392.89 302.345l-43.709-24.358m23.119-6.948 43.278 20.075M372.3 271.039l131.168 38.96M372.3 271.039l20.59 31.306m-20.59-31.306 20.768 16.495M372.3 271.039l33.832-29.183M372.3 271.039l-29.103-33.97m29.103 33.97 39.911 78.902m239.675 36.888-39.513-23.387m-159.412 28.882-39.331 47.539m39.331-47.539-7.736 52.141m7.736-52.141-3.897-25.742m3.897 25.742-34.388 39.832m34.388-39.832 95.308-111.306m-95.308 111.306-52.187-51.718m52.187 51.718 9.317-17.775m-9.317 17.775 68.743 4.14m-68.743-4.14 57.012-20.767m-57.012 20.767 12.098-43.419m-12.098 43.419-9.413 19.233m9.413-19.233-40.75-42.383m40.75 42.383-48.024-16.321m-202.181-52.231 37.936-55.982m-37.936 55.982-14.421 45.722m288.125-18.242 112.532-65.026M476.46 351.252l-77.761-.616m77.761.616 78.906 27.863m-78.906-27.863-168.318 1.689M630.413 59.348l-26.35-15.825M467.365 231.842l6.256 167.957m-6.256-167.957-47.779-8.341m47.779 8.341 5.563 41.033m-5.563-41.033-10.925 33.587m10.925-33.587 80.904 49.176m-80.904-49.176 23.124-65.225m-23.124 65.225-48.854 25.337m48.854-25.337 88.523 78.705m-88.523-78.705-59.778 44.231m59.778-44.231-6.045-51.19m31.571 16.697-19.963 75.526m19.963-75.526 32.199-25.246m-134.494 19.193 82.332 81.579m-82.332-81.579-20.825-45.144m20.825 45.144 7.042 40.059m-7.042-40.059 27.915 65.883m-27.915-65.883-30.922-37.938m396.686 52.683 11.08 29.556m-367 26.067 19.146-38.163m-19.146 38.163 82.978-6.101m-82.978 6.101.334 78.942m-.334-78.942 41.05 41.776m-258.76-39.207-8.759 78.971m8.759-78.971-.441-38.205m.441 38.205 56.218 47.545m-56.218-47.545 25.22 46.522m-25.22-46.522 13.018-45.613m-13.018 45.613 37.282-3.263m-37.282 3.263 38.656-25.035m292.75 30.174-185.378 50.512m185.378-50.511-94.55-45.872m94.55 45.871-41.208 3.503m41.208-3.503-10.668 40.627m10.668-40.626-57.696-3.944m57.696 3.943-121.068 18.162m121.068-18.162 11.624 35.739m-11.624-35.739 93.3 32.299m-93.3-32.298 28.55-31.245m-28.55 31.244 29.982 66.452m-29.982-66.452 86.512 73.208m-86.512-73.207-80.023-11.144m80.023 11.144-31.893-81.286m31.893 81.286 75.537-50.847m-75.537 50.846 10.955 43.412m-10.955-43.412 45.61-41.285m-45.61 41.286 96.296-10.593m-96.296 10.592-5.084-55.677m5.084 55.677 64.126 91.244m-64.126-91.243 8.91-63.63m-8.91 63.629-51.858 105.177m51.858-105.177-70.134 85.851m70.134-85.85 35.72-60.344m-35.72 60.344-116.498-38.018m116.498 38.017 52.031 29.962m-52.031-29.962 60.677.642m-60.677-.641-5.606-14.061m5.606 14.061-44.814-115.145m44.814 115.144-14.577 121.516m14.577-121.516 61.312 71.103m-61.312-71.103L441.49 303.44m72.646-34.068 37.301 85.405M387.864 132.804l27.631 2.172m-27.631-2.172 42.386-24.217m-42.386 24.217-23.017-33.278m23.017 33.278 102.625 33.813m-102.625-33.813-8.594-40.018m8.594 40.018-70.881 142.594m70.881-142.594 81.458 21.424m41.323 280.575-1.454 54.291m1.454-54.291 47.926-36.034m-47.926 36.034 14.157 48.77m-14.157-48.77-.672-63.246m.672 63.246-35.164-109.249M259.002 218.275l68.037 7.767m-68.037-7.767-38.99 42.695m306.875 3.427-31.702 29.962m175.169-84.682-30.982 27.748M250.511 350.287l-50.472 2.824m50.472-2.824-11.563-38.509m11.563 38.509-16.812 24.286m16.812-24.286-62.176 19.207m62.176-19.207 57.631 2.654m-57.631-2.654 66.472-74.889m-124.259 22.514 30.179 14.14m-30.179-14.14-6.208 21.458m6.208-21.458 7.315 55.199m-7.315-55.199-36.516 16.367m36.516-16.367-38.081-16.417m38.081 16.417 84.335-15.729m-84.335 15.729 71.37 39.361m-81.805-111.245.441 38.205m-.441-38.205 39.097 13.17m171.682 48.336 18.314 15.79m-18.314-15.79L372.3 271.039m20.768 16.495 121.068-18.162m-121.068 18.162 13.064-45.678m-13.064 45.678 38.964-40.228m-38.964 40.228 65.129 10.659m-65.129-10.659 25.505 144.622m-25.505-144.622-43.887-9.547m27.247-21.363 39.15 34.49m139.726 173.392-17.664-49.22m-196.839 92.875 16.621-37.886m227.009-31.781-25.86-39.725m-75.153-143.206-10.49 17.312m10.49-17.312-82.978 6.101m82.978-6.101-77.286-13.707m77.286 13.707 136.141 66.701m-136.141-66.701 45.466 108.46m-45.466-108.46-25.221 42.63m25.221-42.63 64.851 25.455m-64.851-25.455-85.78-24.208m85.78 24.208L447.1 190.748m36.318 64.815-38.252 17.478m23.277 35.189 35.025 1.769m-35.025-1.769 56.648 4.554m-56.648-4.554 90.128 90.539m-90.128-90.539 40.609-94.535m-40.609 94.535-151.46-32.832m272.009 10.828L476.46 351.252m112.532-65.026 18.444 15.445m-18.444-15.445 11.656 56.354m-11.656-56.354-63.901 26.558m63.901-26.558 30.567 36.038m-30.567-36.038 21.44-27.446m-21.44 27.446-105.279-45.469m105.279 45.469 23.381 77.216m-23.381-77.216 57.772 5.905m-57.772-5.905-14.038-108.8m155.271 53.336-35.535-5.959m-168.93 80.308-52.832-32.236m52.832 32.236-11.624-35.739m11.624 35.739-42.047-64.354m42.047 64.354 22.509-24.093m-22.509 24.093-63.482 69.438m63.482-69.438 59.253 78.437m-59.253-78.437 30.128 5.436m-30.128-5.436 52.375 23.834m-86.514 142.628 3.496-44.464m109.15-94.886-100.799-22.224m100.799 22.224-48.901 46.892m48.901-46.892-3.619 10.357m3.619-10.357-45.696 66.546m45.696-66.546 7.05-45.304m-7.05 45.304-29.454-62.209m29.454 62.209-28.819 8.252m36.637-97.282 9.97-38.346m-9.97 38.346-63.816 37.825m63.816-37.825-37.272 26.821m6.578-20.488-33.122 31.492m204.606 136.443 12.295-28.866m-395.184 75.004 43.035 1.21m-43.035-1.21 31.979-37.773m-25.082 115.781-4.642-59.811m4.642 59.811 32.081 4.435m-32.081-4.435-15.41 32.176m15.41-32.176L437.7 496.08m-60.817 45.527 19.657-38.968m210.608-268.733-32.335 36.108m7.553 103.047 35.355-19.777m-35.355 19.777 69.215-8.23m-69.215 8.23-136.094-37.115m136.094 37.115-133.302-6.479m133.302 6.479-88.494-10.909m88.494 10.909 54.829-1.841m-54.829 1.841 41.874 43.241m99.544-83.141-34.093-23.929M378.403 446.199l-6.162 35.597m6.162-35.597 35.227-6.336m-35.227 6.336 83.875-71.65m-83.875 71.65-12.051 55.215m214.327-20.7-42.571-16.894m42.571 16.894-22.108-81.945m22.108 81.945-32.764-20.941M406.132 241.856 372.3 271.039m33.832-29.183-13.064 45.678m13.064-45.678 77.286 13.707m-77.286-13.707 52.065 56.337m149.239 3.478 25.471-87.573m-25.471 87.573-93.3-32.299m93.3 32.299-18.444-15.445m18.444 15.445-52.07 77.444m52.07-77.444 2.996-42.891m-2.996 42.891-97.463 69.886m97.463-69.886 63.004-15.168M509.191 489.094l1.454-54.291m-73.817-207.98 21.369 71.37m-21.369-71.37 46.885 13.934m-46.885-13.934-39.19 4.532M238.015 335.592l-64.044 7.612m64.044-7.612-37.976 17.519m37.976-17.519 14.219-31.948m-14.219 31.948 46.824-97.905m-46.824 97.905-13.695 43.639m13.695-43.639 6.476 45.096m-6.476-45.096 26.079 1.681m-26.079-1.681 78.968-60.194m97.203-100.949 5.4 49.052m-5.4-49.052 28.384 42.033m235.921 170.893-59.764 13.379m59.764-13.379-10.482-53.817M283.037 309.57l-5.744 38.405m5.744-38.405-30.803-5.926m30.803 5.926 33.946-34.172m-33.946 34.172-24.392-36.421m284.041-35.021-28.55 31.245m-115.437 81.263 77.761.616m-77.761-.616 156.667 28.479m-156.667-28.479-90.557 2.305m90.557-2.305-81.716-75.238m129.289 60.548 136.094 37.115m-136.094-37.115-14.24-88.64m14.24 88.64-58.901 33.381m58.901-33.381 16.006 38.603m-16.006-38.603-2.27 19.277m2.27-19.277 18.787 12.959m-18.787-12.959-41.335 40.057m25.116 126.401 15.172-57.939m-15.172 57.939-33.513.235M293.234 335.846l49.212 9.804m-49.212-9.804 62.468 6.691m-62.468-6.691-54.286-24.068m54.286 24.068 14.908 17.095m-108.103.17L173.103 381.4m26.936-28.289 128.719-33.227m-128.719 33.227-13.523-33.741m13.523 33.741-26.068-9.908m26.068 9.908 50.472-2.824m-50.472 2.824-7.315-55.199m7.315 55.199 37.976-17.519m-37.976 17.519-23.799-30.883m23.799 30.883-43.831-38.832m43.831 38.832-20.917 47.336m20.917-47.336.367 55.729m-.367-55.729 38.909-41.333m-38.909 41.333 45.22-68.766m-45.22 68.766 7.911-42.356m-7.911 42.356 33.66 21.462m-33.66-21.462-11.704 16.383m11.704-16.383-4.774-76.88m4.774 76.88-5.92 40.968m316.736 74.38-15.738-41.35m126.938-222.262-36.034 115.697m36.034-115.697-44.287-61.94m44.287 61.94-9.97 38.346m-56.719 135.922 5.084 57.274m-5.084-57.274-51.898-69.116m51.898 69.116 56.267 80.95m-56.267-80.95-78.906-27.863m78.906 27.863 48.901-46.892m-48.901 46.892 52.07-77.444m-52.07 77.444-156.667-28.479m156.667 28.479-31.99 50.89m31.99-50.89 51.006 33.255m-51.006-33.255-30.275-66.331m30.275 66.331-78.217 91.268m78.217-91.268 3.205 19.654m-3.205-19.654-17.726 36.171m17.726-36.171 36.628 25.362m-36.628-25.362-97.169-80.922m97.169 80.922 22.896-18.499m-22.896 18.499-7.097-98.097m7.097 98.097 57.007-15.673m-57.007 15.673-93.088-4.566m93.088 4.566 29.647 4.433m-29.647-4.433-33.662 17.349m33.662-17.349.522-68.568m-.522 68.568 22.769-50.17m-22.769 50.17 63.361 21.639m-63.361-21.639 20.082-38.64m-20.082 38.64-15.984 8.972m15.984-8.972-3.93-24.338m3.93 24.338-111.818 32.442m79.828 18.448 37.074 6.384m-37.074-6.384 31.99-50.89m-31.99 50.89 35.195-31.236m-35.195 31.236-61.098-55.456m61.098 55.456 24.539 29.768m144.556-199.048-53.099-23.3m53.099 23.3 9.755 54.809M400.152 182.675l19.434 40.826m-167.352 80.143 25.059 44.331m-25.059-44.331-11.541-35.854m11.541 35.854-14.219 31.948m14.219-31.948 30.803 5.926m-30.803-5.926-6.975-19.299m6.975 19.299-44.284 7.111m44.284-7.111 64.749-28.246m-64.749 28.246 6.411-30.495m-6.411 30.495-33.376-26.4m33.376 26.4-30.848-64.446m322.732 96.626-40.65-25.825m40.65 25.825-29.982-66.452m29.982 66.452 14.453 62.945m-14.453-62.945 34.144 24.792m-6.369-115.97-23.624 36.372m-205.072-43.949 29.103 33.97m38.395-182.03 4.8 45.967M600.648 342.58l-86.512-73.208m86.512 73.208-11.656-56.354m11.656 56.354 3.619-10.357m-3.619 10.357-42.077 56.189m42.077-56.189-22.386 18.036m22.386-18.036 11.725 20.862m-11.725-20.862-25.2-2.105m-143.416-93.169 40.896 25.569m-40.896-25.569-16.537-112.33m16.537 112.33-38.964 40.228m38.964-40.228 14.24 88.64m-14.24-88.64 70.124-6.615m-70.124 6.615 33.027 101.599m-33.027-101.599-19.821 102.635m194.161 62.429-51.006-33.255m51.006 33.255-21.359-28.822m-408.773-61.32 23.799 30.883m-23.799-30.883 12.095 47.266m-12.095-47.266 43.772-61.258M572.24 426.582l-45.851-12.713m-18.708-270.011 70.087-.951m-70.087.951-24.005 66.366m24.005-66.366 60.291-21.24m-60.291 21.24 1.371 69.837m-1.371-69.837-17.192 22.759m17.192-22.759 74.937 18.107m-74.937-18.107-190.698 131.54m190.698-131.54 13.011-40.787M156.208 314.279l30.308 5.091m-30.308-5.091 36.516-16.367m-36.516 16.367 43.831 38.832m-43.831-38.832-1.565-32.784m1.565 32.784 39.057-38.048m217.756 188.578 51.19-43.443m-51.19 43.443 60.6-65.01m-60.6 65.01-43.035-1.21m43.035 1.21-40.78 16.987m40.78-16.987-28.032-26.107m28.032 26.107 64.128 5.574m-64.128-5.574-7.119-50.036m7.119 50.036.609-24.946m-.609 24.946-50.672-29.739m50.672 29.739 32.204-20.344m-32.204 20.344-9.242 32.779m9.242-32.779-11.056-38.983m11.056 38.983-20.417-11.962m20.417 11.962 21.801 7.057m-21.801-7.057 5.552-32.653m-5.552 32.653 12.966 46.828m-12.966-46.828 108.683-68.345m-108.683 68.345-33.295 44.14m33.295-44.14L437.7 496.08m-24.679-31.271-55.599 5.466m55.599-5.466 86.538-73.921m-86.538 73.921 52.038-115.904m-52.038 115.904-16.481 37.83m16.481-37.83-46.669 36.605m46.669-36.605-.81-114.868m.81 114.868-8.084-88.806m59.193 75.8 30.987-24.694m-30.987 24.694 4.944 50.78m-4.944-50.78-1.852-77.254m139.594-92.828-128.944-8.846m128.944 8.846-53.603-.703m53.603.703 87.819 27.511m-87.819-27.511 66.137 51.837M480.738 10.73l30.804 3.912m120.77 288.889-107.221 9.253m107.221-9.253-21.88-44.751m21.88 44.751 38.128-17.028m-38.128 17.028-56.864 36.944m56.864-36.944 35.697 30.027m-288.552-30.559 45.558-29.332m-45.558 29.332 32.754 46.942M308.742 143.084l28.084 31.51m18.876 167.943 59.876-51.423m-59.876 51.423-62.468-6.691m62.468 6.691 106.576 32.012m-106.576-32.012-78.643-60.354m78.643 60.354-91.608-5.264m91.608 5.264 109.357 6.367m-196.227 28.928-4.738-40.559m167.983-139.095 98.445 29.425m-98.445-29.425-12.491 25.323m12.491-25.323 50.166-10.091m-50.166 10.091 10.493 18.304m-10.493-18.304-13.379-48.171m13.379 48.171 51.636 42.579m-51.636-42.579 30.201 176.371m-30.201-176.371-45.323-19.13m47.359 79.181-14.527-34.728m14.527 34.728 69.355 51.77m-69.355-51.77 22.327 7.2m-22.327-7.2 80.023 11.144m-80.023-11.144 28.165 116.32m-28.165-116.32-117.13 17.169m117.13-17.169 35.209-104.001m12.921 33.859 31.893 81.286m-31.893-81.286-50.166 10.091m50.166-10.091-20.944 13.52m0 0 69.223 25.996m-69.223-25.996 20.944-13.52m-20.944 13.52-36.284 72.06m164.658-55.141-75.537 50.847m75.537-50.847 23.749-41.143m-23.749 41.143-41.404 62.492m41.404-62.492-23.506 80.808m23.506-80.808-14.86 51.488m14.86-51.488 33.4-33.649m-9.651-7.494-23.749 41.143M538.108 463.82l22.342-27.431m-22.342 27.431 42.571 16.894m-42.571-16.894 51.798-13.624m-51.798 13.624 23.256 34.67m-23.256-34.67 20.463-65.051m-20.463 65.051-13.306 19.753m13.306-19.753-75.83-89.271m75.83 89.271 13.329-109.043m12.099 61.019-99.325 5.57m99.325-5.57 26.37 34.4m-26.37-34.4-69.664-53.644m69.664 53.644-24.154-27.709m24.154 27.709 60.704.506m-251.999 65.494 101.38-81.997m-101.38 81.997 4.642 59.811m-4.642-59.811 6.162-35.597m-6.162 35.597 40.78-16.987m-40.78 16.987 33.661-67.023m-33.661 67.023 41.389-41.933m-41.389 41.933 31.538 15.792m-31.538-15.792 20.363-28.949m-20.363 28.949 3.646-66.998m-3.646 66.998 46.332-49.64m-46.332 49.64 65.46 14.284m-65.46-14.284 127.318-90.908m-127.318 90.908 24.299 20.843m-24.299-20.843-5.889 19.618m197.829-25.988-5.61-76.657m5.61 76.657-39.379 8.147m-139.813-44.871 28.032 26.107m-28.032-26.107 60.236 5.763m-60.236-5.763-27.567 31.573m27.567-31.573 19.948-62.699m120.154-63.219-21.623-2.785m21.623 2.785L392.89 302.345m132.201 10.439-10.955-43.412m10.955 43.412-56.648-4.554m56.648 4.554 63.901-26.558m-63.901 26.558 30.275 66.331m-30.275-66.331 107.221-9.253m-107.221 9.253 36.651 7.992m-36.651-7.992 94.468 9.48m-94.468-9.48 33.48 85.985m-33.48-85.985 23.178-31.766m-23.178 31.766 87.282 50.658m-87.282-50.658-34.602-146.167m34.602 146.167-62.813 61.765m62.813-61.765-106.58-55.605m106.58 55.605-100.076-39.117m100.076 39.117-16.561-57.472m16.561 57.472-29.906-18.425m29.906 18.425 50.357 27.691m-50.357-27.691 26.346 41.993m10.305-34.001-36.651-7.992m139.228 82.675-46.598-42.175m46.598 42.175-40.079 20.843M430.25 108.587l-42.386 24.217m42.386-24.217 39.072 45.641m7.827 316.155 78.217-91.268m-78.217 91.268-64.128-5.574m64.128 5.574-51.162 41.254m193.572-189.373-136.141-66.701m136.141 66.701-30.567-36.038m30.567 36.038-94.468-9.48m94.468 9.48-9.127-63.484m9.127 63.484-7.186 41.178m7.186-41.178 27.205-30.133m-27.205 30.133-34.546 61.284m34.546-61.284-.832 78.49m.832-78.49-68.123 32.513m-145.534 59.996 13.684-191.272m-13.684 191.272 7.119 50.036m-7.119-50.036-33.661 67.023m33.661-67.023-43.553 20.297m43.553-20.297 43.162-48.191m-43.162 48.191 28.92 57.093m-28.92-57.093 77.811-174.016m-77.811 174.016 12.671 17.383m-12.671-17.383 56.376-40.224m-56.376 40.224 20.085 96.864m-20.085-96.864L437.7 496.08m-31.798-81.307-48.48 55.502m48.48-55.502-.965-38.77m4.027 170.039-32.081-4.435m32.081 4.435 17.023-34.405m-17.023 34.405L437.7 496.08m-28.736 49.962 16.831-72.159m-16.831 72.159-12.424-43.403m17.09-62.776 59.991-40.064m-59.991 40.064 5.956-216.362m-5.956 216.362 39.331-47.539m-39.331 47.539-35.227 6.336m35.227-6.336-.609 24.946m.609-24.946-41.389 41.933m41.389-41.933 31.595 4.602m-31.595-4.602-11.665-14.037m11.665 14.037 35.434-73.281m-35.434 73.281-21.026 12.984m21.026-12.984-37.743-25.065m37.743 25.065 4.943-7.707m-4.943 7.707-12.856-99.257m12.856 99.257 30.372-84.64m-30.372 84.64 108.074-43.399M413.63 439.863l-15.75-36.374m15.75 36.374 24.071 56.217m-24.071-56.217 51.429-90.958m-51.429 90.958-17.09 62.776m17.09-62.776-47.278 61.551m47.278-61.551 125.752-51.776M413.63 439.863l25.265-46.308m-25.265 46.308 29.918-28.306m-29.918 28.306 65.341 11.99m-117.498 121.93 15.41-32.176m107.066-159.55 74.622 16.712m-74.622-16.712-18.89-33.152m18.89 33.152-71.738-32.116m214.615 23.991-41.813 9.616m41.813-9.616-105.122 22.532m105.122-22.532 43.614-87.429m-43.614 87.429-8.099 26.822M362.349 435.07l50.672 29.739m-50.672-29.739 43.553-20.297m-43.553 20.297-4.927 35.205m4.927-35.205 42.588-59.067m184.969 74.193-51.798 13.624m51.798-13.624-26.37-34.4m26.37 34.4-96.034-88.044m96.034 88.044-50.524-62.109m50.524 62.109-41.991 9.577m41.991-9.577 34.334-33.894m-62.876 82.188-23.256-34.67m23.256 34.67-2.793-99.721m2.793 99.721-36.562-14.917m36.562 14.917-13.449-38.717m10.656-61.004 1.879 37.62m-1.879-37.62-84.95 1.03m84.95-1.03 80.801-161.344m-80.801 161.344-55.103-88.77m55.103 88.77 35.465 31.326m-35.465-31.326-47.926 36.034m47.926-36.034 25.86 39.725m-25.86-39.725-90.128-90.539m90.128 90.539 45.696-66.546m-45.696 66.546 22.108 81.945m-22.108-81.945-3.205-19.654m3.205 19.654-35.195 31.236m35.195-31.236-14.453-62.945m14.453 62.945 42.077-56.189m-42.077 56.189-20.463 65.051m20.463-65.051 5.61 76.657m-5.61-76.657-33.48-85.985m33.48 85.985-74.622-16.712m74.622 16.712 2.793 99.721m-2.793-99.721-20.931 16.517m20.931-16.517-16.845-86.309m16.845 86.309 13.616 44.357m-13.616-44.357-33.769 84.804m33.769-84.804 19.691-38.153m-19.691 38.153 53.802-35.327m-53.802 35.327-96.293-24.22m96.293 24.22-36.867-2.305m36.867 2.305-48.598-27.212m48.598 27.212-56.524-61.139m56.524 61.139-93.512-49.864m93.512 49.864-19.189-10.682m19.189 10.682-7.135-43.992m7.135 43.992-10.656 61.004m-102.69-15.308 18.986-23.099m-18.986 23.099 28.396-44.666m-28.396 44.666 7.736-52.141m-7.736 52.141-15.172 57.939m15.172-57.939-32.204 20.344m32.204-20.344-60.236-5.763m60.236 5.763-31.595-4.602m31.595 4.602-14.037-71.569m14.037 71.569-43.26-18.639m43.26 18.639 17.053-69.916m-17.053 69.916 76.479-48.001m-76.479 48.001 64.748-72.908m-64.748 72.908-7.524 51.615m7.524-51.615-39.215 41.139m39.215-41.139 19.834-95.56m-19.834 95.56 94.157-56.378m-94.157 56.378-40.288-68.462m17.991 12.111 39.35-13.565m-31.09-1.653 42.433 26.903m-42.433-26.903 41.74-100.021m-41.74 100.021 14.037 71.569m-14.037-71.569-29.223 52.93m29.223-52.93 31.091 1.653m-177.44-136.862 44.511-41m-44.511 41 26.369-6.134m-26.369 6.134-46.824 97.905m46.824-97.905-7.83 58.238m7.83-58.238 112.799-6.332m-112.799 6.332 32.144 37.711m-32.144-37.711-63.453 1.511m247.688 263.385-4.944-50.78m13.669-345.649-8.477 48.074m-290.2 246.219 20.917-47.336m-20.917 47.336 9.213-30.953m349.305 45.792 73.993 44.779m-73.993-44.779 17.664 49.22m-17.664-49.22 17.726-36.171m-17.726 36.171 20.931-16.517m-20.931 16.517-79.443-117.093m79.443 117.093 10.629-134.268M537.64 415.286l-75.362-40.737m75.362 40.737 10.275 44.487m-10.275-44.487-58.669 36.567m58.669-36.567 27.319 42.886m-54.914-267.093 20.477 36.524m-20.477-36.524-37.117 81.796m37.117-81.796 33.547-12.226m24.38-56.235-60.291 21.24m60.291-21.24-9.487-16.129m9.487 16.129 6.982 54.808M442.57 216.482l-22.984 7.019m22.984-7.019 30.358 56.393m-30.358-56.393-28.384-42.033m28.384 42.033-10.493-18.304m10.493 18.304 19.708 158.067M442.57 216.482l82.52-44.379m-82.52 44.379-24.059 40.697m24.059-40.697-17.555 57.185m116.711 38.793-75.747-60.579m75.747 60.579-38.258-2.461m38.258 2.461 44.295 8.084m-44.295-8.084 16.845 86.309m-16.845-86.309-33.196-57.148m33.196 57.148 9.71 42.318m-351.03 54.062-.367-55.729m.367 55.729-12.071-39.346m12.071 39.346 13.958-42.909m24.584-54.153-26.167 31.73m26.167-31.73-52.432 7.592m52.432-7.592 72.26-80.225m-72.26 80.225-56.218-47.545m56.218 47.545 11.563 38.509m-11.563-38.509 54.286 24.068m-54.286-24.068-38.909 41.333m38.909-41.333 6.311-27.433m-6.311 27.433-30.998-1.023m30.998 1.023 16.541-61.232m-16.541 61.232 69.194 41.163m-69.194-41.163 38.061-15.853m-38.061 15.853 78.035-36.38m-78.035 36.38 19.697-38.629m-19.697 38.629-20.09-34.534m20.09 34.534-18.936-50.808m18.936 50.808-24.584 54.153m224.455 174.123-1.118-43.974m122.045-267.993-45.61 41.285m45.61-41.285-9.89-19.058M403.779 497.588l9.242-32.779m-9.242 32.779-31.538-15.792m31.538 15.792 14.794-65.432m-14.794 65.432 22.016-23.705m-22.016 23.705-37.427 3.826m37.427-3.826 39.769-86.031m26.508 200.741-31.184.662m0 0 31.184-.662M224.32 379.231l13.695-43.639m372.417-76.812-79.91-31.177m79.91 31.177-190.846-35.279m190.846 35.279-96.296 10.593m96.296-10.593-21.44 27.446m21.44-27.446-2.996 42.891m2.996-42.891 21.88 44.751m-21.88-44.751 9.127 63.484m-9.127-63.484 1.941 104.662m-1.941-104.662-35.478-81.354m35.478 81.354 60.008 27.723m-60.008-27.723 57.577 74.778M558.485 106.489l9.487 16.129m-9.487-16.129-14.893 72.364m223.848 56.744-11.08-29.556m-511.101 78.304-45.22 68.766m45.22-68.766 6.975 19.299m-6.975-19.299-6.311 27.433m6.311-27.433 31.75 11.58m-31.75-11.58 71.724-8.947m84.982 150.428-31.979 37.773m31.979-37.773 11.056 38.983m-11.056-38.983 11.665 14.037m-11.665-14.037 43.26 18.639m-43.26-18.639 29.223-52.93m-29.223 52.93 47.099-59.244m-47.099 59.244-26.078-11.028m26.078 11.028 108.008-54.269M387.372 481.551l31.201-49.395m-31.201 49.395-29.95-11.276m214.765-27.149-13.616-44.357m17.549 194.558-30.117 8.603m-17.119-237.907-45.466-108.46m45.466 108.46 49.251-35.078m-49.251 35.078 46.564-23.548m-46.564 23.548 19.031 95.75m-19.031-95.75-89.989 29.532m10.169-26.973 46.053 60.527m-46.053-60.527 3.897 25.742m-3.897-25.742 133.302 6.479m-133.302-6.479-43.162 48.191m43.162-48.191-35.434 73.281m35.434-73.281-47.099 59.244m47.099-59.244-48.29-25.976m48.29 25.976 20.258-212.354m-20.258 212.354 15.995-17.677m28.813 13.247-82.49-58.828m82.49 58.828-20.251 37.647m20.251-37.647 88.494 10.909m-88.494-10.909 69.664 53.644m-69.664-53.644 96.034 88.044m-96.034-88.044-75.299 70.004m75.299-70.004-93.098-21.546m93.098 21.546-31.594 12.397m31.594-12.397-49.87-6.929m49.87 6.929-96.234-130.797m96.234 130.797-48.706-89.111m48.706 89.111-28.813-13.247m28.813 13.247-81.661-12.211m81.661 12.211 130.368 54.15m-99.438 67.271 35.648-47.184m-35.648 47.184-51.181-83.774m51.181 83.774-14.157-48.77m14.157 48.77 13.306-19.753m-13.306 19.753 39.379-8.147m-39.379 8.147 36.562 14.917m-36.562-14.917 33.769-84.804m-33.769 84.804-62.524-109.024m62.524 109.024 23.113-23.8M154.643 281.495l38.081 16.417m-38.081-16.417 1.565 32.784m520.547-89.381-37.383 12.527m-220.674-87.418 13.379 48.171m-13.379-48.171 28.402 40.741m144.894 213.729-36.628-25.362m-97.169-80.922 14.731-25.318m-14.731 25.318-65.129-10.659m65.129 10.659 25.221-42.63m-25.221 42.63-52.065-56.337m52.065 56.337-21.369-71.37m21.369 71.37 97.169 80.922m-97.169-80.922 79.443 117.093m-79.443-117.093 4.081 76.356m-4.081-76.356-60.559-66.838m60.559 66.838L447.1 190.748m11.097 107.445-13.031-25.152m13.031 25.152-19.302 95.362M336.826 174.594l-7.476 22.093m7.476-22.093 82.76 48.907m-82.76-48.907-25.618 56.959m25.618-56.959-28.084-31.51m83.862 309.763 20.417 11.962m-20.417-11.962-20.363 28.949m20.363-28.949 21.026-12.984m-21.026 12.984 69.674-78.298m-69.674 78.298-26.252 48.567m26.252-48.567 46.291-59.292M310.158 51.118l17.366-23.27m-17.366 23.27 25.01 5.398m-25.01-5.398 43.364-16.753m81.3 437.501-21.801-7.057m21.801 7.057-28.92-57.093M207.95 310.755l4.831 32.753m-4.831-32.753-25.22-46.522m25.22 46.522-7.911 42.356m7.911-42.356 44.284-7.111m-44.284 7.111 30.998 1.023m-30.998-1.023 100.192 42.186M207.95 310.755l-12.685-34.524m12.685 34.524 12.062-49.785M327.524 27.849l-17.366 23.27m17.366-23.27 7.644 28.667m-7.644-28.667 25.998 6.516m11.325 65.161 23.017 33.278M285.715 554.293l24.536 19.568m198.801-360.166 5.084 55.677m-5.084-55.677-40.609 94.535m40.609-94.535-1.371-69.837m-131.794 270.94-3.646 66.998m3.646-66.998 37.743 25.065m-37.743-25.065 26.078 11.028m-26.078-11.028 42.686 17.358m-42.686-17.358 24.887-74.192m-24.887 74.192 86.391-40.249m115.984-13.933-17.812 75.773m17.812-75.773-64.126-91.244m64.126 91.244-22.896 18.499m22.896-18.499-34.144-24.792m34.144 24.792 22.386-18.036m-22.386 18.036-19.691 38.153m19.691-38.153 34.111 2.826m-1.056-76.523-7.05 45.304m7.05-45.304-63.048-5.901m-314.57 93.555 95.059-54.689m-95.059 54.689-10.796-62.521m10.796 62.521 16.812-24.286m-16.812 24.286-33.66-21.462m33.66 21.462-45.364-5.079m45.364 5.079-39.58 19.506m289.594-153.322 155.659-3.332m-155.659 3.332 46.809-13.154m-46.809 13.154-64.127-17.256m64.127 17.256-68.135 50.357m68.135-50.357-156.674-14.715m156.674 14.715 105.279 45.469m-105.279-45.469 42.047 64.354m-42.047-64.354-46.885-13.934m46.885 13.934-51.636-42.579m51.636 42.579-77.811 174.016m77.811-174.016 64.556 40.261m-64.556-40.261 41.378-68.654m-41.378 68.654 72.175 69.79M418.573 432.156l34.388-39.832m-34.388 39.832-25.505-144.622m25.505 144.622-5.552 32.653m5.552-32.653-46.332 49.64m46.332-49.64-12.671-17.383m12.671 17.383-4.943 7.707m4.943-7.707-14.794 65.432m14.794-65.432-31.201 49.395m31.201-49.395 75.299-70.004m-75.299 70.004-42.686-17.358m42.686 17.358-17.799-91.55m17.799 91.55 43.705-57.607m-43.705 57.607 25.429-76.933m-25.429 76.933 7.414 79.481m-7.414-79.481-61.151 38.119m61.151-38.119 46.486-83.251m-46.486 83.251 24.975-20.599m-24.975 20.599-13.636-56.153m118.109-170.26-39.37 4.481m39.37-4.481-8.91 63.63m34.133 11.645-74.648 118.781m74.648-118.781-75.341-8.143m75.341 8.143-60.942-54.405m60.942 54.405-53.152 146.091m53.152-146.091-44.801 28.981m44.801-28.981-64.593-70.794m64.593 70.794-95.308 111.306m95.308-111.306-80.904-49.176m80.904 49.176-64.851-25.455m64.851 25.455-22.509 24.093m22.509-24.093 63.816-37.825m-63.816 37.825 33.122-31.492m-33.122 31.492 7.097 98.097m-7.097-98.097 23.624-36.372m-23.624 36.372 53.603.703m-53.603-.703 41.404-62.492m-41.404 62.492-23.178 31.766m23.178-31.766L537.64 415.286m10.629-134.268 63.048 5.901m-63.048-5.901-64.556-40.261m64.556 40.261-46.113-40.327m46.113 40.327 36.744 102.53m-36.744-102.53-26.565 115.446m26.565-115.446-38.296 90.539m38.296-90.539 7.619 29.529m-7.619-29.529 29.866 47.927m-29.866-47.927-39.739-25.706m39.739 25.706-53.084 13.341m53.084-13.341 38.924-21.625m-38.924 21.625-4.677-102.165m4.677 102.165-8.887 107.069m-351.047-18.593 14.421-45.722m-14.421 45.722 62.176-19.207m-62.176 19.207 11.704-16.383m-11.704 16.383-12.095-47.266m12.095 47.266-9.213 30.953m9.213-30.953 12.071 39.346m-12.071-39.346 45.364 5.079m-45.364-5.079 31.677-108.524m392.361 102.472 39.513 23.387m-39.513-23.387-23.381-77.216m23.381 77.216-57.007 15.673m57.007-15.673-11.725-20.862m11.725 20.862-87.282-50.658m87.282 50.658 7.186-41.178m-7.186 41.178-53.802 35.327m53.802-35.327-1.941-104.662m1.941 104.662-34.111-2.826m34.111 2.826-150.095 11.107m150.095-11.107-27.36 20.106m27.36-20.106-36.925-22.967m36.925 22.967-60.937-8.665m60.937 8.665 55.636-29.884M541.846 21.188l-30.304-6.546m135.222 277.489-57.772-5.905m57.772 5.905-27.205 30.133m-129.07-155.647-23.124 65.225m23.124-65.225-102.625-33.813m102.625 33.813 17.192-22.759m-17.192 22.759 34.602 146.167m-34.602-146.167 84.465 10.809m-84.465-10.809L447.1 190.748m127.854-13.322-44.432 50.177m44.432-50.177 57.953 36.672m-57.953-36.672 14.038 108.8m-14.038-108.8-6.982-54.808m6.982 54.808 35.478 81.354m-35.478-81.354-84.465-10.809m84.465 10.809-105.632-23.198m37.405 133.856 26.377 4.179m-26.377-4.179-4.68 49.546M379.27 92.786l8.594 40.018m107.523 87.17-22.459 52.901m22.459-52.901 13.143 35.338m-6.374-14.621-29.228 32.184m29.228-32.184-70.124 6.615m70.124-6.615 46.113 40.327M255.49 250.546l55.718-18.993m-55.719 18.993-16.541 61.232m16.541-61.232-36.631 26.698m168.513 92.083 58.901-33.381m-58.901 33.381 13.403-28.721m-13.403 28.721 74.907 5.222m-74.907-5.222 17.566 6.676m-4.163-35.397 18.812-117.105m-18.812 117.105 72.154-67.731m-72.154 67.731 52.187 51.718m-52.187-51.718-.334-78.942m.334 78.942 12.856 99.257m-12.856-99.257 48.29 25.976m-48.29-25.976 93.098 21.546m-93.098-21.546-24.887 74.192m24.887-74.192 17.799 91.55m-17.799-91.55-13.403 28.721m13.403-28.721 61.504 33.943m-61.504-33.943 43.228 14.617m-43.228-14.617 17.737-83.427m-17.737 83.427 64.285 8.299m-64.285-8.299 42.774 70.951m-42.774-70.951 11.437 9.335m-104.069 3 168.318-1.689m-168.318 1.689-57.631-2.654m57.631 2.654 90.557-2.305m-90.557 2.305-14.908-17.095m14.908 17.095-69.194-41.163m69.194 41.163L207.95 310.755m100.192 42.186-31.133-57.016m185.269 78.624 98.172 61.84m-98.172-61.84-48.389-58.895m48.389 58.895-50.896-71.225m50.896 71.225 11.343 25.25m-11.343-25.25-42.692-151.048m42.692 151.048-31.953-75.678m31.953 75.678 10.65-101.674m-10.65 101.674-46.7-83.435m46.7 83.435 32.839 52.56m-32.839-52.56-5.838-109.12m5.838 109.12-9.317 17.775m9.317-17.775 51.858-105.177m-51.858 105.177 63.482-69.438m-63.482 69.438-83.875 71.65m83.875-71.65-16.006-38.603m16.006 38.603 93.088 4.566m-93.088-4.566 61.098 55.456m-61.098-55.456 1.852 77.254m-1.852-77.254-106.576-32.012m106.576 32.012-30.201-176.371m30.201 176.371-28.165-116.32m28.165 116.32 75.83 89.271m-75.83-89.271 62.813-61.765m-62.813 61.765-56.376 40.224m56.376-40.224 96.293 24.22m-96.293-24.22-17.053 69.916m17.053-69.916-39.35 13.565m39.351-13.565-31.091-1.653m31.09 1.653 75.362 40.737m-75.362-40.737L442.57 216.482m19.708 158.067 31.594-12.397m-31.594 12.397 62.524 109.024m-62.524-109.024-4.081-76.356m4.081 76.356-69.674 78.298m69.674-78.298-86.391 40.249m86.391-40.249-43.705 57.607m43.705-57.607 150.095-11.107m-150.095 11.107-74.907-5.222m74.907 5.222-61.504-33.943m61.504 33.943-18.276-19.326m18.276 19.326 47.695-2.992m-47.695 2.992-64.398 28.94m64.398-28.94L437.701 496.08m24.577-121.531 46.252-119.237m-46.252 119.237 39.769-36.919m-39.769 36.919-36.483 99.334m36.483-99.334 2.781-25.644m-2.781 25.644-65.738 128.09m65.738-128.09 32.907-80.19m-32.907 80.19L441.49 303.44m20.788 71.109 85.637 85.224m-85.637-85.224-18.73 37.008m18.73-37.008 161.962 41.753m-161.962-41.753-57.341 1.454m57.341-1.454-32.268 27.256m344.297-76.386.72-31.218m-498.018 1.724 7.83-58.238m-7.83 58.238-38.061 15.853m38.061-15.853-31.75-11.58m31.75 11.58 31.133 57.016m61.629-206.789 20.825 45.144M195.748 218.62l38.386 11.152m-38.386-11.152-13.018 45.613m261.272 90.99 29.619 44.576m-29.619-44.576 28.926-82.348m-28.926 82.348 70.134-85.851m-70.134 85.851 2.27-19.277m-2.27 19.277-30.372 84.64m30.372-84.64 49.87 6.929m-49.87-6.929-25.429 76.933m25.429-76.933-43.228-14.617m43.228 14.617 18.276 19.326m-18.276-19.326-6.301 140.857m6.301-140.857 64.528-99.911m-64.528 99.911 21.057-6.318m-21.057 6.318 95.38 32.864m-95.38-32.864-2.512-51.783m2.512 51.783-31.791-5.282m172.802 33.607-89.896 43.561m89.896-43.561-59.253-78.437m59.253 78.437-29.647-4.433m29.647 4.433 21.359 28.822m-21.359-28.822 34.546-61.284m-34.546 61.284 41.813-9.616m-41.813 9.616-36.744-102.53m36.744 102.53 27.36-20.106m-27.36 20.106-58.624 30.321m58.624-30.321-63.309 12.917m63.309-12.917-75.04-11.991m75.04 11.991-29.125-73.001m29.125 73.001 33.714 17.206m-33.714-17.206-85.454 7.34m85.454-7.34 52.182-12.328m-52.182 12.328-89.828-89.189m89.828 89.189-45.631 4.539m45.631-4.539-37.098 76.225m162.628-170.677-40.103-2.593m-120.584-77.474-35.72 60.344m35.72-60.344 9.89 19.058M765.17 388.595l-12.295 28.866m-326.888 94.176-12.966-46.828m12.966 46.828 51.162-41.254m-51.162 41.254-20.085-96.864m20.085 96.864-17.023 34.405m17.023-34.405-7.414-79.481m7.414 79.481-29.447-8.998m129.849-88.77 45.851 12.713m-45.851-12.713 58.624-30.321m-58.624 30.321-26.83-22.981m26.83 22.981-82.841-2.312M335.168 56.516l-25.01-5.398m25.01 5.398-7.644-28.667m7.644 28.667 18.354-22.151m-76.463 247.818-36.366-14.393m36.366 14.393-84.335 15.729m84.335-15.729 78.643 60.354m-78.643-60.354-12.965 55.09m12.965-55.09 39.924-6.785m-39.924 6.785-18.414-9.034m-17.951 22.165 36.599 52.661m-36.599-52.661-54.178 24.056m54.178-24.056-45.429-19.083m45.429 19.083 76.289-19.916m-76.289 19.916 17.951-22.165m431.046 36.083 34.093 23.929m-34.093-23.929-87.819-27.511m87.819 27.511-19.251-22.729m31.786 29.031-9.755-54.809m9.755 54.809-31.786-29.031m31.786 29.031-65.031 55.686m-115.491 25.244 38.746 39.925m-38.746-39.925-48.083 3.335m48.083-3.335-48.776-123.589m48.776 123.589-26.587 30.645m26.587-30.645-68.743-4.14m68.743 4.14 33.662-17.349m-33.662 17.349-108.683 68.345m108.683-68.345L413.63 439.863m108.074-43.399 105.122-22.532m-105.122 22.532 36.867 2.305m-36.867-2.305-76.479 48.001m76.479-48.001 26.565-115.446m-26.565 115.447 63.309-12.917m-63.309 12.916-11.731-24.907m11.731 24.907 44.463-97.13m-44.463 97.13 97.023 4.29m-97.023-4.29-22.145-5.576m22.145 5.576-56.645-47.559m56.645 47.559 53.744-55.989m-53.744 55.989 17.678-8.377m-17.678 8.377-116.767-20.461m116.767 20.461 26.614 30.601m-26.614-30.601 13.77 41.267m-13.77-41.267-42.733 55.389m31.002-80.296-45.762 49.809m45.762-49.809-37.045-98.682m37.045 98.682-57.012 20.767m57.012-20.767.672 63.246m-.672-63.246 97.463-69.886m-97.463 69.886 48.598 27.212m-48.598-27.212-64.748 72.908m64.748-72.908-108.008 54.269m108.008-54.269 38.296-90.539m-38.296 90.539-47.695 2.992m47.695-2.992 75.04 11.991m-75.04-11.991 11.731 24.907m-11.731-24.907-10.414 19.331m10.414-19.331-44.914-22.652m44.914 22.652 29.409 16.53m-29.409-16.53 41.464-16.78m-41.464 16.78-34.492-46.003m107.137-163.589 56.754 75.46m-56.754-75.46-74.937-18.107m74.937 18.107-57.527 10.138m-280.6 208.585-6.476-45.096m6.476 45.096 19.603-43.415m115.632 171.676 33.295-44.14m-33.295 44.14-22.304-38.674m-93.328-133.002 13.199 10.702m-13.199-10.702-41.191-25.221m41.191 25.221-71.37-39.361m71.37 39.361-26.079-1.681m26.079 1.681 91.608 5.264m-91.608-5.264 4.738 40.559m-4.738-40.559 12.965-55.09m-12.965 55.09-19.603 43.415m19.603-43.415-6.77 41.033m6.77-41.033 52.889-61.875m-121.718.833 45.427-8.441m-45.427 8.441 38.869-46.459m-38.869 46.459 4.774 76.88m-4.774-76.88-39.057 38.048m39.057-38.048 12.685 34.524m-12.685-34.524 45.429 19.083m-45.429-19.083 63.38-3.082m-63.38 3.082 24.747-15.261m305.079-88.867 114.281 65.322m-114.281-65.322 20.185-42.292m-20.185 42.292 5.431 55.5m-5.431-55.5-105.505 51.398m105.504-51.398-32.199 25.246m32.199-25.246-82.52 44.379m82.521-44.379-41.378 68.654m41.378-68.654 57.527-10.138m-57.527 10.138-16.561 83.209m16.561-83.209-29.906 122.256M386.754 179.048l32.832 44.453m-32.832-44.453 45.323 19.13m-59.569 136.61 39.703 15.153m-14.331 53.548 15.75 36.374m-15.75-36.374 64.398-28.94m-64.398 28.94 7.057-27.486m32.764 120.077 57.416-68.971M437.7 496.08l-60.817 45.527M437.7 496.08l-24.679-31.271m24.68 31.271-65.46-14.284M437.7 496.08l-31.798-81.307M437.7 496.08l-28.736 49.962m28.737-49.962-24.071-56.217m24.071 56.217 7.524-51.615m-7.524 51.615 1.118 43.974m-1.118-43.974 24.577-121.531M437.701 496.08l6.301-140.857m-6.301 140.857-11.906-22.197M437.7 496.08l-41.16 6.559m41.16-6.559-71.348 5.334m71.349-5.334 5.847-84.523m-5.847 84.523 41.27-44.227m-81.333-220.498 13.744 71.969m-13.744-71.969 75.29 41.52m-75.29-41.52-86.43.198m86.43-.198-7.042-40.059m7.042 40.059 116.498 38.018m-116.498-38.018 85.78 24.208m-85.78-24.208 39.19-4.532m-39.19 4.532-112.799 6.332m112.799-6.332 96.234 130.797m-96.234-130.797 60.559 66.838m-60.559-66.838 47.528 41.686m-87.744 197.234-16.621 37.886m16.621-37.886 55.599-5.466m-55.599 5.466 27.567-31.573m-27.567 31.573 48.48-55.502m-48.48 55.502 4.927-35.205m-4.927 35.205 29.95 11.276m-29.95-11.276 61.151-38.119m-61.151 38.119 22.304 38.674m-22.304-38.674 48.588 15.329m-48.588-15.329 54.789-120.334m153.956-50.607-52.031-29.962m52.031 29.962 23.506-80.808m-23.506 80.808-44.463 97.13m44.463-97.13 9.281 41.141m-.635-70.461-60.677-.642m60.677.642 29.454 62.209m-29.454-62.209 37.272-26.821m-37.272 26.821 32.335-36.108m-32.335 36.108 14.86-51.488m-14.86 51.488-66.283-14.702m66.283 14.702-75.254 120.874m-81.048-133.709-4.622 58.475m4.622-58.475 1.075-33.678m-1.075 33.678 47.468-5.298m-47.468 5.298 54.417 15.696m-54.417-15.696 65.165-46.955m-65.165 46.955 48.854-25.337m-48.854 25.337-27.915-65.883m27.915 65.883 106.58 55.605m-106.58-55.605 24.059-40.697m-24.059 40.697-17.737 83.427m17.737-83.427 22.979 46.261m-22.979-46.261 56.97 68.375m-56.97-68.375 25.037 154.378m-25.037-154.378-13.574 118.824m20.078-102.336-11.126 41.987m11.126-41.987 40.964-21.786m-40.964 21.786 47.913-.792m-47.913.792 58.661-63.443m-58.661 63.443-45.558 29.332m45.558-29.332 36.284-72.06m-36.284 72.06 100.076 39.117m-100.076-39.117 17.555-57.185m-17.555 57.185 16.475 29.773m-16.475-29.773 18.533 137.89m-18.533-137.89-12.804 76.274m12.804-76.274-20.078 102.336m150.951-65.456-88.523-78.705m88.523 78.705-30.128-5.436m30.128 5.436-.522 68.568m.522-68.568-72.175-69.79m72.175 69.79-7.619-29.529m7.619 29.529 29.125 73.001m-29.125-73.001 22.247 18.398m-22.247-18.398-16.506 77.54m-193.589 12.517 59.144-24.601m-59.144 24.601-34.481 26.741m-53.988-49.039 6.77-41.033m406.346-50.77-31.068-49.078m31.068 49.078-139.918-58.9m139.918 58.9-63.004 15.168m63.004-15.168-38.128 17.028m38.128-17.028-43.614 87.429m43.614-87.429-60.008-27.723m60.008 27.723 40.103 2.593m-40.103-2.593 19.251 22.729m-19.251-22.729 31.786 29.031m-31.786-29.031-2.431 47.055M447.1 190.748l36.318 64.815M447.1 190.748l-28.402-40.741m28.402 40.741 11.097 107.445M447.1 190.748l43.389-24.131m-45.323 106.424 38.252-17.478m-38.252 17.478 48.706 89.111m-48.706-89.111 13.031 25.152m-13.031-25.152-47.528-41.686m9.949 44.718 59.778-44.231m-59.778 44.231 15.039 47.819m-15.039-47.819 4.624 73.868m-95.228-74.543-39.69 72.577m39.69-72.577-76.29-7.608m76.29 7.608-5.775-43.845m5.775 43.845 186.485 34.601m-186.485-34.601 70.881-142.594m-70.881 142.594-66.472 74.889m66.472-74.889 151.46 32.832m-151.46-32.832-78.968 60.194m78.968-60.194-33.946 34.172m33.946-34.172 81.716 75.238m-81.716-75.238-64.749 28.246m64.749-28.246 190.698-131.54m-190.698 131.54 117.13-17.169m-117.13 17.169-32.144-37.711m32.144 37.711-78.035 36.38m78.035-36.38-71.724 8.947m71.724-8.947-39.924 6.785m39.924-6.785-76.289 19.916m76.289-19.916-52.889 61.875m52.889-61.875-58.338-2.249m0 0 24.392 36.421m-24.392-36.421-6.411 30.495m6.411-30.495-19.697 38.629m19.697-38.629 18.414 9.034m-18.414-9.034-17.951 22.165m17.951-22.165-63.38 3.082m63.38-3.082 58.338 2.249m261.152 53.547-52.375-23.834m52.375 23.834-22.769 50.17m22.769-50.17-49.251 35.078m49.251-35.078-29.866-47.927m29.866 47.927-22.247-18.398M353.522 34.365l-43.364 16.753m43.364-16.753-25.998-6.516m25.998 6.516-18.354 22.151m87.458 267.376-15.039-47.819m15.039 47.819 42.433 25.013m-42.433-25.013-10.415 26.049m49.109-169.289 6.045 51.19m217.121-112.738 7.545-26.719m-7.545 26.719-21.753-25.866m-176.105 19.507-17.306 41.483m39.208 101.084-97.148 48.012m97.148-48.012-21.203-28.699m21.203 28.699-5.062 54.687m5.062-54.687-24.854-45.088m24.854 45.088 5.606 14.061m-5.606-14.061 16.561 57.472m-16.561-57.472 33.196 57.148m-33.196-57.148 39.739 25.706m-39.739-25.706-13.143-35.338m13.143 35.338-46.252 119.237m46.252-119.237-64.528 99.911m64.528-99.911 16.561-83.209m-16.561 83.209 66.283 14.702m-66.283-14.702 24.56-41.829m-24.56 41.829-67.04 48.128m177.237 97.314 59.764-13.379m-59.764 13.379-63.361-21.639m63.361 21.639.832-78.49m-.832 78.49 8.099-26.822m-8.099 26.822-33.714-17.206m33.714 17.206-97.023-4.29m97.023 4.29-119.168-9.866m119.168 9.866-79.345-12.667m79.345 12.667 49.282-67.196M406.01 485.604l39.215-41.139m-39.215 41.139-48.588-15.329M502.047 337.63l-86.469-46.516m86.469 46.516 31.057-45.367m-31.057 45.367 56.524 61.139m-56.524-61.139 4.68-49.546m-4.68 49.546-39.769 36.919m-36.483 99.334-16.831 72.159m16.831-72.159-22.016 23.705m22.016-23.705 36.483-99.334m-36.483 99.334 11.906 22.197m31.621-341.852-10.648-45.8m10.648 45.8 44.814 115.145m-44.814-115.145-81.458-21.424m81.458 21.424-35.209 104.001m35.209-104.001-39.072-45.641m39.072 45.641 8.477-48.074m-8.477 48.074-20.258 212.354m20.258-212.354 105.632 23.198m-105.632-23.198 17.306-41.483m-17.306 41.483 25.863 140.131m-25.863-140.131-.491-43.872m30.728 280.532 14.577-121.516m-14.577 121.516-86.538 73.921m86.538-73.921-127.318 90.908m127.318-90.908 85.454-7.34m-85.454 7.34 26.83 22.981m-26.83-22.981 22.145 5.576m-22.145-5.576 10.414-19.331m-10.414 19.331 75.254-120.874m-75.254 120.874 119.168 9.866m-119.168-9.866-4.374-96.529m4.374 96.529-87.348-40.947m87.348 40.947-20.588 60.965m67.032 150.077 30.117-8.603m61.075-222.107-54.829 1.841m54.829-1.841-52.182 12.328m52.182-12.328 65.031-55.686m-65.031 55.686-97.813 16.867m-74.323-39.182-53.677-45.581m53.677 45.581 8.562 50.894m-8.562-50.894 65.463-121.302m-65.463 121.302 7.869-76.03m-7.869 76.029 120.962-28.36m-120.962 28.361-12.098 43.419m12.098-43.419-18.787-12.959m18.787 12.959-33.027-101.599m33.027 101.599-52.038 115.904m52.038-115.905-109.357-6.367m109.357 6.368-51.429 90.958m51.429-90.958 18.89 33.152m-18.89-33.152 93.512 49.864m-93.512-49.864-19.834 95.56m19.834-95.56-15.995 17.677m15.995-17.677 28.813 13.247m-28.813-13.247-46.486 83.251m46.486-83.251-64.285-8.299m64.285 8.299-2.781 25.644m2.781-25.644-21.057 6.318m21.057-6.318 56.645 47.559m-56.645-47.559 44.914 22.652m-44.914-22.652-42.433-25.013m42.433 25.013 30.126-54.546m-30.126 54.546 74.323 39.182m-74.323-39.182L441.49 303.44m23.569 45.465 86.377 5.873m-86.377-5.873-21.511 62.652m21.511-62.652-52.848 1.036m52.848-1.036-60.122 27.098m-8.397 126.636-19.657 38.968m19.657-38.968 33.513-.235m-33.513.235 16.481-37.83m-16.481 37.83-24.299-20.843m24.299 20.843 12.424 43.403m-12.424-43.403 17.09-62.776m-17.09 62.776 65.738-128.09m-65.738 128.09 29.447 8.998m-29.447-8.998 41.16-6.559m-41.16 6.559 47.008-91.082m51.637-117.198-11.509-84.135m11.509 84.135 31.702-29.962m-31.702 29.962 29.906 18.425m-29.906-18.425 53.084-13.341m-53.084 13.341-32.907 80.19m32.907-80.19 89.828 89.189m-89.828-89.189 29.906-122.256m-29.906 122.256-25.863-140.131m25.863 140.131 4.374 96.529m-4.374-96.529-30.126 54.546m30.126-54.546-90.248 81.644m182.256-116.61-38.924 21.625M366.352 501.414l12.051-55.215m-12.051 55.215 46.669-36.605m-46.669 36.605 5.889-19.618m-5.889 19.618 47.278-61.551m-47.278 61.551 37.427-3.826m-37.427 3.826 26.252-48.567m-26.252 48.567 71.348-5.334m95.39-282.597-24.56 41.829m35.062-76.459 1.684-49.042m-1.684 49.042-70.664 94.022m70.664-94.022-33.547 12.226m33.547-12.226 14.893-72.364m-14.893 72.364 4.677 102.165m114.464-187.78 29.298-.853m-29.298.853 21.753 25.866m-465.628 158.14 33.376 26.4m-33.376-26.4 20.09 34.534m-20.09-34.534 36.631-26.698M511.542 14.642l-30.804-3.912m30.804 3.912 30.304 6.546M349.181 277.987l43.709 24.358m-43.709-24.358 43.887 9.547m182.38 52.941-71.98-30.476m71.98 30.476-61.312-71.103m61.312 71.103 28.819-8.252m-28.819 8.252-20.082 38.64m20.082-38.64 25.2 2.105m-25.2-2.105 56.864-36.944m-56.864 36.944-50.357-27.691m50.357 27.691-46.564 23.548m46.564-23.548 36.925 22.967m-36.925-22.967-53.744 55.989m53.744-55.989-9.281-41.141M220.012 260.97l107.027-34.928M220.012 260.97l-37.282 3.263m37.282-3.263 38.99-42.695m-38.99 42.695-43.772 61.258m43.772-61.258 18.936 50.808m-18.936-50.808-12.062 49.785m12.062-49.785-31.677 108.524m31.677-108.524-24.747 15.261m19.099 89.7-13.958 42.909m13.958-42.909 24.584-54.153m300.434 76.309 15.984-8.972m-15.984 8.972 24.154 27.709m-24.154-27.709L413.63 439.863m125.752-51.776 50.524 62.109m-50.524-62.109 19.189 10.682m-19.189-10.682-94.157 56.378m94.157-56.378 8.887-107.069m-8.887 107.069-95.38-32.864m95.38 32.864 45.631-4.539m-45.631 4.539-17.678 8.377m17.678-8.377-29.409-16.53m29.409 16.53 16.506-77.54m-16.506 77.54 79.345 12.667m-79.345-12.667 97.813-16.867m-97.813 16.867-74.323-39.182m74.323 39.182 8.533 71.686m-8.533-71.686-127.171-38.146m29.279-46.501-30.108-.116m30.108.116 31.438-30.565M441.49 303.44l-41.05-41.776m41.05 41.776 72.646-34.068M441.49 303.44l20.788 71.109M441.49 303.44l2.512 51.783m-2.512-51.783-22.979-46.261m22.979 46.261-16.475-29.773m16.475 29.773 67.04-48.128m-67.04 48.128 23.569 45.465M441.49 303.44l-29.279 46.501m29.279-46.501-36.553 72.563m63.894-265.647.491 43.872m-247.936 84.97-38.656 25.035m38.656-25.035-39.097-13.17m39.097 13.17 30.848 64.446m-30.848-64.446 63.453-1.511m266.597 117.09 9.014 81.612m-9.013-81.612-77.816 45.022m77.816-45.021-20.915-127.175m20.914 127.175-47.968-44.779m47.969 44.778-37.301-85.405m37.3 85.405 3.93 24.338m-3.929-24.338L538.108 463.82m13.329-109.043-26.346-41.993m26.345 41.993 68.123-32.513m-68.123 32.513 7.135 43.992m-7.135-43.991-9.71-42.318m9.71 42.317 60.937 8.665m-60.936-8.665-41.464 16.78m41.463-16.779-86.377-5.873m202.95-15.347 10.482 53.817m-10.482-53.817-66.137-51.837m66.137 51.837-35.697-30.027m35.697 30.027-57.577-74.778m57.577 74.778-55.636 29.884m55.636-29.884 2.431-47.055m-2.431 47.055-49.282 67.196M604.063 43.523l26.35 15.825m-82.498 400.425 12.535-23.384m-12.535 23.384 32.764 20.941m-32.764-20.941-24.539-29.768m24.539 29.768 41.991-9.577m-41.991 9.577 13.449 38.717m-13.449-38.717 10.656-61.004m-10.656 61.004-10.275-44.487m10.275 44.487-19.031-95.75m19.031 95.75-23.113 23.8m23.113-23.8-85.637-85.224m85.637 85.224 37.098-76.225m-37.098 76.225-8.533-71.686m-63.901-62.533-2.553-52.679m2.553 52.679 35.164 109.249m-35.164-109.249 34.492 46.003m-34.492-46.003-56.97-68.375m20.384 136.376-25.265 46.308m25.265-46.308 89.989-29.532m-89.989 29.532 19.302-95.362m-19.302 95.362-46.291 59.292m50.944-41.29 29.38-138.682m-29.38 138.682 51.569 15.552m-51.569-15.552 9.413-19.233m-9.413 19.233 111.818-32.442m-111.818 32.442-29.918 28.306m29.918-28.306-39.769 86.031m39.769-86.031-24.975 20.599m24.975-20.599-42.774-70.951m42.774 70.951 18.73-37.008m-18.73 37.008 82.841 2.312m-82.841-2.312-5.847 84.523m5.847-84.523-25.037-154.378m25.037 154.378-18.533-137.89m18.533 137.89 21.511-62.652m-21.511 62.652-47.008 91.082m47.008-91.082-38.611-35.554m7.274-26.062 52 71.425m-52-71.425-.829-46.617m.829 46.617-69.765-4.291m69.765 4.291L372.3 271.039m39.911 78.902 40.75 42.383m-40.75-42.383 19.821-102.635m-19.821 102.635.81 114.868m-.81-114.868-32.754-46.942m32.754 46.942 71.738 32.116m-71.738-32.116 81.661 12.211m-81.661-12.211-11.437-9.335m11.437 9.335 31.791 5.282m-31.791-5.282-39.703-15.153m39.703 15.153-54.789 120.334m54.789-120.334 12.804-76.274m-12.804 76.274-4.624-73.868m4.624 73.868 10.415-26.049m-10.415 26.049 87.348 40.947m-87.348-40.947 52.848-1.036m-52.848 1.036 127.171 38.146m-127.171-38.146 29.279-46.501m-29.279 46.501-7.274 26.062m7.274-26.062-41.654 1.238m253.683 65.123 39.17 18.325m-39.17-18.325-6.519-63.018m6.519 63.018 26.342 59.584m-26.342-59.584-38.219-95.758m38.219 95.758 39.387 42.511m-39.387-42.511-41.874-43.241m41.874 43.241-60.704-.506m60.704.506 40.079-20.843m-40.079 20.843-34.334 33.894m34.334-33.894-130.368-54.15m130.368 54.15-161.962-41.753m-57.341 1.454 68.684 23.796m-68.684-23.796 67.991-103.128m-67.991 103.128 48.024 16.321m-48.024-16.321 41.335-40.057m-41.335 40.057 8.084 88.806m-8.084-88.806-19.948 62.699m19.948-62.699.965 38.77m-.965-38.77-42.588 59.067m42.588-59.067 40.288 68.462m-40.288-68.462 13.636 56.153m-13.636-56.153-17.566-6.676m17.566 6.676 57.341-1.454m-57.341 1.454 116.767 20.461m-116.767-20.461-7.057 27.486m7.057-27.486 13.574-118.824m-13.574 118.824 20.078-102.336m-20.078 102.336-59.144 24.601m59.144-24.601 60.122-27.098m-60.122 27.098 90.248-81.644m-90.248 81.644 36.553-72.563m-36.553 72.563 38.611 35.554m-38.611-35.554 7.274-26.062m136.107 77.124-26.614-30.601m13.77 41.267-13.77-41.267m-42.733 55.389-5.35-52.054m5.35 52.054-65.341-11.99m65.341 11.99 58.669-36.567m-58.669 36.567 42.733-55.389m-42.733 55.389-41.27 44.227m41.27-44.227 20.588-60.965m65.4 67.284-27.319-42.886m-107.63-13.481 32.268-27.256M359.674 153.358l30.922 37.938m232.477-6.419-33.4 33.649M370.557 351.179l41.654-1.238m-140.453 44.94 5.535-46.906m34.019 79.37 34.481-26.741m174.899-297.533-13.011 40.787m-56.409 140.684 166.449 68.742m-166.449-68.742-140.064-52.989M194.119 394.079l-20.148-50.876m20.148 50.876 5.92-40.968m-5.92 40.968 39.58-19.506" opacity=".75"/>
  <path fill="#FC8D62" stroke="#EEE" stroke-width="1.5" d="M560.45 443.245a6.857 6.857 0 1 0-.001-13.713 6.857 6.857 0 0 0 .001 13.713Zm102.96-3.422a5.196 5.196 0 1 0 0-10.391 5.196 5.196 0 0 0 0 10.391Zm-490.307-53.227a5.196 5.196 0 1 0 0-10.391 5.196 5.196 0 0 0 0 10.391Zm137.148 192.461a5.196 5.196 0 1 0 0-10.391 5.196 5.196 0 0 0 0 10.391Zm18.507-253.429a5.744 5.744 0 1 0 0-11.489 5.745 5.745 0 0 0 0 11.489ZM692.031 97.77a5.385 5.385 0 1 0 0-10.77 5.385 5.385 0 0 0 0 10.77Zm-74.31 261.43a5.916 5.916 0 1 0 0-11.833 5.916 5.916 0 0 0 0 11.833ZM329.35 202.432a5.745 5.745 0 1 0-.001-11.49 5.745 5.745 0 0 0 .001 11.49Zm84.539 118.79a5.568 5.568 0 1 0 0-11.136 5.568 5.568 0 0 0 0 11.136Z"/>
  <path fill="#66C2A5" stroke="#EEE" stroke-width="1.5" d="M464.211 427.282a5.916 5.916 0 1 0 0-11.832 5.916 5.916 0 0 0 0 11.832Z"/>
  <path fill="#FC8D62" stroke="#EEE" stroke-width="1.5" d="M775.027 299.397a5.197 5.197 0 1 0-.002-10.394 5.197 5.197 0 0 0 .002 10.394Zm-497.734 54.661a6.082 6.082 0 1 0 .001-12.165 6.082 6.082 0 0 0-.001 12.165Zm134.089-44.177a6.557 6.557 0 1 0 0-13.115 6.557 6.557 0 0 0 0 13.115Zm62.239 97.729a7.81 7.81 0 0 0 7.81-7.811 7.81 7.81 0 1 0-15.62 0 7.81 7.81 0 0 0 7.81 7.811ZM240.693 273.706a5.916 5.916 0 1 0 0-11.833 5.916 5.916 0 0 0 0 11.833Z"/>
  <path fill="#66C2A5" stroke="#EEE" stroke-width="1.5" d="M212.781 348.893a5.385 5.385 0 1 0 0-10.77 5.385 5.385 0 0 0 0 10.77Zm426.591-104.759a6.71 6.71 0 1 0 0-13.419 6.71 6.71 0 0 0 0 13.419Z"/>
  <path fill="#FC8D62" stroke="#EEE" stroke-width="1.5" d="M545.276 135.196a5.386 5.386 0 1 0 0-10.772 5.386 5.386 0 0 0 0 10.772Zm-14.754 99.407a7 7 0 1 0 0-14 7 7 0 0 0 0 14Z"/>
  <path fill="#66C2A5" stroke="#EEE" stroke-width="1.5" d="M342.446 351.035a5.385 5.385 0 1 0 0-10.77 5.385 5.385 0 0 0 0 10.77Z"/>
  <path fill="#FC8D62" stroke="#EEE" stroke-width="1.5" d="M651.581 370.216a5.385 5.385 0 1 0 0-10.77 5.385 5.385 0 0 0 0 10.77Zm84.177-196.089a5.196 5.196 0 1 0 0-10.392 5.196 5.196 0 0 0 0 10.392Z"/>
  <path fill="#66C2A5" stroke="#EEE" stroke-width="1.5" d="M694.69 230.188a5.385 5.385 0 1 0 0-10.77 5.385 5.385 0 0 0 0 10.77Z"/>
  <path fill="#FC8D62" stroke="#EEE" stroke-width="1.5" d="M234.134 235.516a5.744 5.744 0 1 0 0-11.489 5.744 5.744 0 0 0 0 11.489Zm267.034 243.436a5.196 5.196 0 1 0 0-10.392 5.196 5.196 0 0 0 0 10.392Zm-81.582-246.907a8.544 8.544 0 1 0 0-17.087 8.544 8.544 0 0 0 0 17.087Zm213.321-12.379a5.568 5.568 0 1 0 0-11.136 5.568 5.568 0 0 0 0 11.136Zm-166.928 37.783a5.568 5.568 0 1 0 0-11.136 5.568 5.568 0 0 0 0 11.136Zm-243.076 60.348a5.745 5.745 0 1 0-.001-11.49 5.745 5.745 0 0 0 .001 11.49Z"/>
  <path fill="#66C2A5" stroke="#EEE" stroke-width="1.5" d="M430.325 304.257a5.385 5.385 0 1 0 0-10.77 5.385 5.385 0 0 0 0 10.77Z"/>
  <path fill="#FC8D62" stroke="#EEE" stroke-width="1.5" d="M186.516 325.287a5.916 5.916 0 0 0 5.916-5.917 5.916 5.916 0 1 0-11.832 0 5.917 5.917 0 0 0 5.916 5.917Zm532.306-176.6a5.196 5.196 0 1 0 0-10.391 5.196 5.196 0 0 0 0 10.391ZM287.19 202.191a5.196 5.196 0 1 0 0-10.392 5.196 5.196 0 0 0 0 10.392Zm185.738 80.327c5.326 0 9.644-4.317 9.644-9.643 0-5.326-4.318-9.644-9.644-9.644-5.326 0-9.644 4.318-9.644 9.644 0 5.326 4.318 9.643 9.644 9.643Z"/>
  <path fill="#66C2A5" stroke="#EEE" stroke-width="1.5" d="M487.327 232.357a5.744 5.744 0 1 0 0-11.489 5.744 5.744 0 0 0 0 11.489Z"/>
  <path fill="#FC8D62" stroke="#EEE" stroke-width="1.5" d="M415.578 297.359a6.245 6.245 0 1 0 0-12.49 6.245 6.245 0 0 0 0 12.49Zm-104.37-58.95a6.857 6.857 0 1 0-.001-13.713 6.857 6.857 0 0 0 .001 13.713Zm183.909 195.556a6.856 6.856 0 1 0-.001-13.711 6.856 6.856 0 0 0 .001 13.711Z"/>
  <path fill="#66C2A5" stroke="#EEE" stroke-width="1.5" d="M458.674 113.624a5.196 5.196 0 1 0 0-10.392 5.196 5.196 0 0 0 0 10.392Z"/>
  <path fill="#FC8D62" stroke="#EEE" stroke-width="1.5" d="M650.582 481.454a5.567 5.567 0 0 0 5.567-5.568 5.567 5.567 0 1 0-11.135 0 5.568 5.568 0 0 0 5.568 5.568ZM503.468 317.549a7.55 7.55 0 0 0 7.549-7.55 7.55 7.55 0 1 0-15.099 0 7.55 7.55 0 0 0 7.55 7.55Z"/>
  <path fill="#66C2A5" stroke="#EEE" stroke-width="1.5" d="M327.039 231.61a5.568 5.568 0 1 0 0-11.136 5.568 5.568 0 0 0 0 11.136Z"/>
  <path fill="#FC8D62" stroke="#EEE" stroke-width="1.5" d="M533.104 297.648a5.385 5.385 0 1 0 0-10.77 5.385 5.385 0 0 0 0 10.77Zm78.529 168.333a5.916 5.916 0 1 0 0-11.832 5.917 5.917 0 1 0 0 11.832Zm-25.612-139.693a5.745 5.745 0 1 0 0-11.49 5.745 5.745 0 0 0 0 11.49Zm-8.253-177.996a5.385 5.385 0 1 0 0-10.77 5.385 5.385 0 0 0 0 10.77ZM173.971 348.948a5.745 5.745 0 1 0 0-11.49 5.745 5.745 0 0 0 0 11.49ZM663.627 464.38a5.567 5.567 0 1 0 0-11.135 5.568 5.568 0 0 0 0 11.135ZM483.676 216.469a6.245 6.245 0 1 0 0-12.49 6.245 6.245 0 0 0 0 12.49Z"/>
  <path fill="#66C2A5" stroke="#EEE" stroke-width="1.5" d="M415.495 140.543a5.567 5.567 0 1 0 0-11.135 5.567 5.567 0 0 0 0 11.135Z"/>
  <path fill="#FC8D62" stroke="#EEE" stroke-width="1.5" d="M594.036 435.291a5.197 5.197 0 1 0-.002-10.394 5.197 5.197 0 0 0 .002 10.394ZM456.44 271.512a6.082 6.082 0 1 0 .001-12.165 6.082 6.082 0 0 0-.001 12.165Zm-63.55 36.578a5.745 5.745 0 1 0 0-11.49 5.745 5.745 0 0 0 0 11.49Zm-20.59-30.806a6.245 6.245 0 1 0 0-12.49 6.245 6.245 0 0 0 0 12.49Zm279.586 114.742a5.196 5.196 0 1 0 0-10.393 5.196 5.196 0 0 0 0 10.393Zm-198.925 7.439a7.14 7.14 0 0 0 7.141-7.141 7.141 7.141 0 1 0-14.283 0 7.142 7.142 0 0 0 7.142 7.141Zm-250.205-70.308a5.385 5.385 0 1 0 0-10.77 5.385 5.385 0 0 0 0 10.77Zm273.704 27.839a5.743 5.743 0 0 0 5.744-5.744 5.744 5.744 0 1 0-11.489 0 5.744 5.744 0 0 0 5.745 5.744ZM630.413 64.544a5.196 5.196 0 1 0-.001-10.393 5.196 5.196 0 0 0 .001 10.393ZM467.365 238.55a6.708 6.708 0 1 0 0-13.416 6.708 6.708 0 1 0 0 13.416Zm25.526-35.815a5.385 5.385 0 1 0 0-10.77 5.385 5.385 0 0 0 0 10.77Zm-102.295-5.523a5.916 5.916 0 1 0 0-11.833 5.916 5.916 0 0 0 0 11.833Zm365.764 14.026a5.197 5.197 0 1 0-.002-10.394 5.197 5.197 0 0 0 .002 10.394Zm-355.92 56.171a5.745 5.745 0 1 0-.001-11.49 5.745 5.745 0 0 0 .001 11.49Zm-217.71 3.069a6.245 6.245 0 1 0 0-12.49 6.245 6.245 0 0 0 0 12.49Zm331.406 8.328a9.434 9.434 0 1 0 0-18.867 9.434 9.434 0 1 0 0 18.867ZM387.864 139.049a6.245 6.245 0 1 0 0-12.49 6.245 6.245 0 0 0 0 12.49ZM510.645 440.72a5.917 5.917 0 1 0-.001-11.833 5.917 5.917 0 0 0 .001 11.833Z"/>
  <path fill="#66C2A5" stroke="#EEE" stroke-width="1.5" d="M259.002 223.66a5.385 5.385 0 1 0 0-10.77 5.385 5.385 0 0 0 0 10.77Z"/>
  <path fill="#FC8D62" stroke="#EEE" stroke-width="1.5" d="M526.887 269.594a5.196 5.196 0 1 0 0-10.393 5.196 5.196 0 0 0 0 10.393Zm143.467-54.721a5.196 5.196 0 1 0 0-10.392 5.196 5.196 0 0 0 0 10.392ZM250.511 356.37a6.083 6.083 0 1 0 0-12.166 6.083 6.083 0 0 0 0 12.166Zm-57.787-52.213a6.245 6.245 0 1 0 0-12.49 6.245 6.245 0 0 0 0 12.49Zm-10.435-72.744a5.385 5.385 0 1 0 .001-10.77 5.385 5.385 0 0 0-.001 10.77Zm210.779 62.524a6.403 6.403 0 1 0 0-12.805 6.403 6.403 0 0 0 0 12.805Zm-16.64-32.117a5.196 5.196 0 1 0 .001-10.393 5.196 5.196 0 0 0-.001 10.393Zm178.876 207.882a5.196 5.196 0 1 0 0-10.392 5.196 5.196 0 0 0 0 10.392Zm-214.503 43.656a5.197 5.197 0 1 0-.002-10.394 5.197 5.197 0 0 0 .002 10.394Zm243.63-69.668a5.196 5.196 0 1 0 0-10.392 5.196 5.196 0 0 0 0 10.392ZM483.418 262.272a6.709 6.709 0 1 0-.001-13.417 6.709 6.709 0 0 0 .001 13.417Zm-14.975 51.874a5.916 5.916 0 1 0 0-11.833 5.916 5.916 0 0 0 0 11.833Zm120.549-21.212a6.708 6.708 0 1 0 0-13.416 6.708 6.708 0 1 0 0 13.416Zm141.233-56.976a5.196 5.196 0 1 0 .001-10.393 5.196 5.196 0 0 0-.001 10.393ZM525.76 311.515a6.404 6.404 0 1 0-.001-12.807 6.404 6.404 0 0 0 .001 12.807Zm-34.139 165.254a5.196 5.196 0 1 0 0-10.391 5.196 5.196 0 0 0 0 10.391Zm112.646-138.301a6.245 6.245 0 1 0 0-12.49 6.245 6.245 0 0 0 0 12.49Zm7.818-89.708a5.567 5.567 0 1 0 .001-11.135 5.567 5.567 0 0 0-.001 11.135Zm-30.694 5.962a5.196 5.196 0 1 0 .001-10.393 5.196 5.196 0 0 0-.001 10.393Zm171.484 167.936a5.196 5.196 0 1 0 0-10.393 5.196 5.196 0 0 0 0 10.393Zm-382.889 46.326a5.385 5.385 0 1 0 0-10.77 5.385 5.385 0 0 0 0 10.77Zm6.897 78.539a5.916 5.916 0 1 0 0-11.832 5.916 5.916 0 0 0 0 11.832Z"/>
  <path fill="#FC8D62" stroke="#EEE" stroke-width="1.5" d="M607.148 239.102a5.196 5.196 0 1 0 0-10.391 5.196 5.196 0 0 0 0 10.391Zm-24.782 140.204a6.245 6.245 0 1 0 0-12.49 6.245 6.245 0 0 0 0 12.49Zm141.418-40.949a5.197 5.197 0 1 0 0-10.394 5.197 5.197 0 0 0 0 10.394ZM378.403 451.943a5.745 5.745 0 1 0 0-11.49 5.745 5.745 0 0 0 0 11.49Zm202.276 34.339a5.568 5.568 0 1 0 0-11.136 5.568 5.568 0 0 0 0 11.136ZM406.132 247.601a5.745 5.745 0 1 0 0-11.49 5.745 5.745 0 0 0 0 11.49Zm201.304 60.315a6.245 6.245 0 1 0 0-12.49 6.245 6.245 0 0 0 0 12.49Z"/>
  <path fill="#8DA0CB" stroke="#EEE" stroke-width="1.5" d="M509.191 494.29a5.196 5.196 0 1 0 .001-10.393 5.196 5.196 0 0 0-.001 10.393Z"/>
  <path fill="#FC8D62" stroke="#EEE" stroke-width="1.5" d="M436.828 232.391a5.568 5.568 0 1 0 0-11.136 5.568 5.568 0 0 0 0 11.136ZM238.015 341.996a6.404 6.404 0 1 0-.001-12.807 6.404 6.404 0 0 0 .001 12.807Zm176.171-162.161a5.385 5.385 0 1 0 0-10.77 5.385 5.385 0 0 0 0 10.77ZM678.491 392.76a5.385 5.385 0 1 0 0-10.77 5.385 5.385 0 0 0 0 10.77Zm-395.454-77.445a5.745 5.745 0 1 0 0-11.49 5.745 5.745 0 0 0 0 11.49Zm259.649-71.991a5.196 5.196 0 1 0 .001-10.393 5.196 5.196 0 0 0-.001 10.393ZM398.699 356.381a5.745 5.745 0 1 0-.001-11.49 5.745 5.745 0 0 0 .001 11.49Zm47.573-14.19a6.245 6.245 0 1 0 0-12.49 6.245 6.245 0 0 0 0 12.49Zm-16.219 165.598a5.385 5.385 0 1 0 0-10.77 5.385 5.385 0 0 0 0 10.77ZM293.234 341.591a5.745 5.745 0 1 0 0-11.49 5.745 5.745 0 0 0 0 11.49Zm-93.195 19.33a7.81 7.81 0 1 0 0-15.621 7.81 7.81 0 0 0 0 15.621Zm310.816 112.734a5.196 5.196 0 1 0 0-10.392 5.196 5.196 0 0 0 0 10.392Zm111.2-263.24a5.567 5.567 0 0 0 5.567-5.568 5.567 5.567 0 1 0-11.135 0 5.568 5.568 0 0 0 5.568 5.568Zm-66.689 177.7a9 9 0 1 0 0-18 9 9 0 0 0 0 18Zm-31.99 47.806a5.916 5.916 0 1 0 0-11.832 5.916 5.916 0 0 0 0 11.832ZM692.471 266.11a5.385 5.385 0 1 0 .001-10.77 5.385 5.385 0 0 0-.001 10.77Zm-292.319-78.239a5.196 5.196 0 1 0 0-10.392 5.196 5.196 0 0 0 0 10.392ZM252.234 310.352a6.708 6.708 0 1 0 0-13.416 6.708 6.708 0 1 0 0 13.416Zm291.884 31.217a5.745 5.745 0 1 0 0-11.49 5.745 5.745 0 0 0 0 11.49Zm27.775-91.727a5.196 5.196 0 1 0 0-10.391 5.196 5.196 0 0 0 0 10.391Z"/>
  <path fill="#66C2A5" stroke="#EEE" stroke-width="1.5" d="M343.197 242.265a5.196 5.196 0 1 0 0-10.392 5.196 5.196 0 0 0 0 10.392Zm67.498-148.06a5.196 5.196 0 1 0 0-10.392 5.196 5.196 0 0 0 0 10.392Z"/>
  <path fill="#FC8D62" stroke="#EEE" stroke-width="1.5" d="M600.648 348.825a6.245 6.245 0 1 0 0-12.49 6.245 6.245 0 0 0 0 12.49Z"/>
  <path fill="#66C2A5" stroke="#EEE" stroke-width="1.5" d="M432.032 253.551a6.245 6.245 0 1 0 0-12.49 6.245 6.245 0 0 0 0 12.49Z"/>
  <path fill="#FC8D62" stroke="#EEE" stroke-width="1.5" d="M606.372 417.755a5.385 5.385 0 1 0 0-10.77 5.385 5.385 0 0 0 0 10.77ZM176.24 327.796a5.568 5.568 0 1 0 0-11.136 5.568 5.568 0 0 0 0 11.136Zm396 103.982a5.196 5.196 0 1 0 0-10.392 5.196 5.196 0 0 0 0 10.392Zm-64.559-281.516a6.404 6.404 0 1 0-.001-12.807 6.404 6.404 0 0 0 .001 12.807ZM156.208 320.195a5.916 5.916 0 1 0 0-11.832 5.916 5.916 0 0 0 0 11.832Zm256.813 153.389a8.775 8.775 0 1 0 0-17.55 8.775 8.775 0 0 0 0 17.55Zm51.109-16.213a5.568 5.568 0 1 0 0-11.136 5.568 5.568 0 0 0 0 11.136Zm137.742-169.906a5.745 5.745 0 1 0 0-11.49 5.745 5.745 0 0 0 0 11.49ZM480.739 15.927a5.197 5.197 0 1 0-.001-10.394 5.197 5.197 0 0 0 .001 10.393Z"/>
  <path fill="#66C2A5" stroke="#EEE" stroke-width="1.5" d="M632.312 309.447a5.916 5.916 0 1 0 0-11.833 5.916 5.916 0 0 0 0 11.833Zm-252.855-1.063a5.385 5.385 0 1 0 0-10.77 5.385 5.385 0 0 0 0 10.77Z"/>
  <path fill="#FC8D62" stroke="#EEE" stroke-width="1.5" d="M308.742 148.28a5.196 5.196 0 1 0 .001-10.393 5.196 5.196 0 0 0-.001 10.393Zm46.96 200.34a6.082 6.082 0 1 0 .001-12.165 6.082 6.082 0 0 0-.001 12.165Zm-86.87 34.408a5.197 5.197 0 1 0 0-10.394 5.197 5.197 0 0 0 0 10.394Zm163.245-178.447a6.403 6.403 0 1 0 0-12.807 6.403 6.403 0 0 0 0 12.807Z"/>
  <path fill="#66C2A5" stroke="#EEE" stroke-width="1.5" d="M434.113 264.474a6.245 6.245 0 1 0 0-12.49 6.245 6.245 0 0 0 0 12.49Z"/>
  <path fill="#FC8D62" stroke="#EEE" stroke-width="1.5" d="M482.243 193.655a5.568 5.568 0 1 0 0-11.136 5.568 5.568 0 0 0 0 11.136Z"/>
  <path fill="#66C2A5" stroke="#EEE" stroke-width="1.5" d="M461.299 207.175a5.568 5.568 0 1 0 0-11.136 5.568 5.568 0 0 0 0 11.136Z"/>
  <path fill="#FC8D62" stroke="#EEE" stroke-width="1.5" d="M589.673 224.609a6.083 6.083 0 1 0-.002-12.166 6.083 6.083 0 0 0 .002 12.166Zm23.749-42.03a5.196 5.196 0 1 0 0-10.392 5.196 5.196 0 0 0 0 10.392Zm-75.314 287.644a6.403 6.403 0 1 0 0-12.807 6.403 6.403 0 0 0 0 12.807Zm25.428-48.511a5.916 5.916 0 1 0 0-11.833 5.916 5.916 0 0 0 0 11.833Zm-191.295 67.364a7.28 7.28 0 1 0 .001-14.56 7.28 7.28 0 0 0-.001 14.56Zm191.94-8.265a5.385 5.385 0 1 0 0-10.77 5.385 5.385 0 0 0 0 10.77Z"/>
  <path fill="#66C2A5" stroke="#EEE" stroke-width="1.5" d="M384.989 444.447a5.745 5.745 0 1 0 0-11.49 5.745 5.745 0 0 0 0 11.49Zm140.102-123.601a8.063 8.063 0 1 0-.001-16.125 8.063 8.063 0 0 0 .001 16.125Z"/>
  <path fill="#FC8D62" stroke="#EEE" stroke-width="1.5" d="M561.742 325.972a5.196 5.196 0 1 0 0-10.392 5.196 5.196 0 0 0 0 10.392Zm102.577 74.872a5.385 5.385 0 1 0 0-10.77 5.385 5.385 0 0 0 0 10.77ZM430.25 113.972a5.385 5.385 0 1 0 0-10.77 5.385 5.385 0 0 0 0 10.77Zm46.899 361.979a5.568 5.568 0 1 0 0-11.136 5.568 5.568 0 0 0 0 11.136Zm142.41-147.13a6.557 6.557 0 0 0 6.557-6.557 6.557 6.557 0 1 0-13.114 0 6.557 6.557 0 0 0 6.557 6.557Zm-213.657 93.093a7.142 7.142 0 1 0 0-14.283 7.142 7.142 0 0 0 0 14.283Zm3.062 130.044a5.916 5.916 0 1 0 0-11.833 5.916 5.916 0 0 0 0 11.833Zm4.666-103.551a8.544 8.544 0 1 0 0-17.089 8.544 8.544 0 0 0 0 17.089Zm-52.157 130.572a5.196 5.196 0 1 0 0-10.392 5.196 5.196 0 0 0 0 10.392Zm122.476-191.355a5.567 5.567 0 1 0 .001-11.135 5.567 5.567 0 0 0-.001 11.135Zm142.877-7.947a5.745 5.745 0 1 0 0-11.49 5.745 5.745 0 0 0 0 11.49Z"/>
  <path fill="#66C2A5" stroke="#EEE" stroke-width="1.5" d="M362.349 440.814a5.743 5.743 0 0 0 5.744-5.744 5.744 5.744 0 1 0-11.489 0 5.744 5.744 0 0 0 5.745 5.744Z"/>
  <path fill="#FC8D62" stroke="#EEE" stroke-width="1.5" d="M589.906 456.279a6.083 6.083 0 1 0 0-12.166 6.083 6.083 0 0 0 0 12.166Zm-28.542 47.955a5.745 5.745 0 1 0 0-11.49 5.745 5.745 0 0 0 0 11.49Zm-2.793-95.926a9.54 9.54 0 1 0 0-19.077 9.54 9.54 0 0 0 0 19.077Zm-113.346 43.838a7.681 7.681 0 1 0 0-15.362 7.681 7.681 0 0 0 0 15.362Zm-22.297-58.836a5.196 5.196 0 1 0 0-10.391 5.196 5.196 0 0 0 0 10.391Zm8.26-14.498a5.916 5.916 0 1 0 0-11.833 5.916 5.916 0 0 0 0 11.833Zm-146.349-134.88a6.245 6.245 0 1 0 0-12.49 6.245 6.245 0 0 0 0 12.49Zm184.235 263.847a5.196 5.196 0 1 0 .001-10.393 5.196 5.196 0 0 0-.001 10.393Z"/>
  <path fill="#66C2A5" stroke="#EEE" stroke-width="1.5" d="M477.799 111.351a5.196 5.196 0 1 0 0-10.393 5.196 5.196 0 0 0 0 10.393Z"/>
  <path fill="#FC8D62" stroke="#EEE" stroke-width="1.5" d="M179.122 405.832a5.385 5.385 0 1 0 0-10.77 5.385 5.385 0 0 0 0 10.77Zm358.518 16.162a6.709 6.709 0 1 0 .001-13.417 6.709 6.709 0 0 0-.001 13.417Zm-27.595-225.347a5.568 5.568 0 1 0 0-11.136 5.568 5.568 0 0 0 0 11.136Zm57.927-68.461a5.568 5.568 0 1 0 0-11.136 5.568 5.568 0 0 0 0 11.136ZM442.57 222.885a6.403 6.403 0 1 0 0-12.807 6.403 6.403 0 0 0 0 12.807Zm99.156 95.657a6.082 6.082 0 1 0 .002-12.164 6.082 6.082 0 0 0-.002 12.164Zm-341.32 95.866a5.567 5.567 0 0 0 5.567-5.568 5.567 5.567 0 1 0-11.135 0 5.568 5.568 0 0 0 5.568 5.568Zm38.542-94.949a7.681 7.681 0 1 0 0-15.362 7.681 7.681 0 0 0 0 15.362ZM438.819 545.25a5.196 5.196 0 1 0 0-10.391 5.196 5.196 0 0 0 0 10.391Zm120.927-311.777a5.386 5.386 0 1 0-.002-10.772 5.386 5.386 0 0 0 .002 10.772ZM403.779 503.671a6.083 6.083 0 1 0 0-12.166 6.083 6.083 0 0 0 0 12.166Zm66.277 113.824a5.197 5.197 0 1 0-.002-10.394 5.197 5.197 0 0 0 .002 10.394Zm-31.184.661a5.197 5.197 0 1 0-.002-10.394 5.197 5.197 0 0 0 .002 10.394ZM224.32 384.428a5.196 5.196 0 1 0 0-10.393 5.196 5.196 0 0 0 0 10.393Zm386.112-118.793a6.856 6.856 0 1 0 0-13.711 6.856 6.856 0 0 0 0 13.711Zm-51.947-153.76a5.385 5.385 0 1 0 0-10.77 5.385 5.385 0 0 0 0 10.77ZM767.44 240.794a5.196 5.196 0 1 0 0-10.393 5.196 5.196 0 0 0 0 10.393Zm-522.181 49.467a5.916 5.916 0 1 0 0-11.832 5.916 5.916 0 0 0 0 11.832Zm156.706 141.968a6.403 6.403 0 1 0 0-12.807 6.403 6.403 0 0 0 0 12.807Z"/>
  <path fill="#66C2A5" stroke="#EEE" stroke-width="1.5" d="M387.372 486.936a5.385 5.385 0 1 0 .001-10.77 5.385 5.385 0 0 0-.001 10.77Z"/>
  <path fill="#FC8D62" stroke="#EEE" stroke-width="1.5" d="M572.187 448.322a5.196 5.196 0 1 0 0-10.391 5.196 5.196 0 0 0 0 10.391Zm3.933 150.201a5.197 5.197 0 1 0 0-10.394 5.197 5.197 0 0 0 0 10.394Z"/>
  <path fill="#66C2A5" stroke="#EEE" stroke-width="1.5" d="M528.884 369.939a5.916 5.916 0 1 0 0-11.833 5.916 5.916 0 0 0 0 11.833Z"/>
  <path fill="#FC8D62" stroke="#EEE" stroke-width="1.5" d="M449.064 373.139a6.558 6.558 0 1 0 0-13.115 6.558 6.558 0 0 0 0 13.115Zm44.808-3.707a7.28 7.28 0 0 0 7.28-7.28 7.28 7.28 0 1 0-7.28 7.28Zm30.93 120.698a6.558 6.558 0 1 0 0-13.115 6.558 6.558 0 0 0 0 13.115ZM154.643 286.88a5.385 5.385 0 1 0 0-10.77 5.385 5.385 0 0 0 0 10.77Zm522.112-56.786a5.196 5.196 0 1 0 0-10.391 5.196 5.196 0 0 0 0 10.391Zm-258.057-74.701a5.386 5.386 0 1 0 0-10.772 5.386 5.386 0 0 0 0 10.772Z"/>
  <path fill="#8DA0CB" stroke="#EEE" stroke-width="1.5" d="M591.994 409.673a5.196 5.196 0 1 0 0-10.391 5.196 5.196 0 0 0 0 10.391Z"/>
  <path fill="#FC8D62" stroke="#EEE" stroke-width="1.5" d="M458.197 305.193a7 7 0 1 0 0-14 7 7 0 0 0 0 14ZM336.826 180.339a5.745 5.745 0 1 0-.001-11.49 5.745 5.745 0 0 0 .001 11.49Zm55.778 278.591a6.083 6.083 0 1 0 0-12.166 6.083 6.083 0 0 0 0 12.166ZM310.158 56.686a5.568 5.568 0 1 0 0-11.136 5.568 5.568 0 0 0 0 11.136Zm124.664 420.565a5.385 5.385 0 1 0 0-10.77 5.385 5.385 0 0 0 0 10.77ZM207.95 317.158a6.404 6.404 0 1 0 0-12.807 6.404 6.404 0 0 0 0 12.807ZM327.524 33.416a5.567 5.567 0 0 0 5.567-5.567 5.567 5.567 0 1 0-11.135 0 5.568 5.568 0 0 0 5.568 5.567Zm37.323 71.306a5.196 5.196 0 1 0 0-10.391 5.196 5.196 0 0 0 0 10.391Zm-79.132 454.767a5.196 5.196 0 1 0 0-10.391 5.196 5.196 0 0 0 0 10.391Zm223.337-340.226a5.568 5.568 0 1 0-.002-11.136 5.568 5.568 0 0 0 .002 11.136ZM375.887 420.881a6.082 6.082 0 1 0 0-12.166 6.083 6.083 0 0 0 0 12.166Zm202.375-54.02a6.245 6.245 0 1 0 0-12.49 6.245 6.245 0 0 0 0 12.49Zm33.055-74.557a5.385 5.385 0 1 0 0-10.77 5.385 5.385 0 0 0 0 10.77Zm-377.618 88.352a6.083 6.083 0 1 0 0-12.166 6.083 6.083 0 0 0 0 12.166Zm250.014-132.757a7.142 7.142 0 1 0-.001-14.283 7.142 7.142 0 0 0 .001 14.283Zm-65.14 192.068a7.81 7.81 0 0 0 7.81-7.811 7.81 7.81 0 1 0-15.62 0 7.81 7.81 0 0 0 7.81 7.811Z"/>
  <path fill="#66C2A5" stroke="#EEE" stroke-width="1.5" d="M523.046 211.128a5.385 5.385 0 1 0 .001-10.77 5.385 5.385 0 0 0-.001 10.77Z"/>
  <path fill="#FC8D62" stroke="#EEE" stroke-width="1.5" d="M548.269 290.346a9.327 9.327 0 0 0 9.327-9.328 9.327 9.327 0 0 0-9.327-9.327 9.328 9.328 0 0 0 0 18.655Zm-359.934 85.551a6.403 6.403 0 1 0 0-12.805 6.403 6.403 0 0 0 0 12.805Zm424.038-5.175a7.28 7.28 0 0 0 7.28-7.28 7.28 7.28 0 0 0-7.28-7.28 7.28 7.28 0 0 0-7.28 7.28 7.28 7.28 0 0 0 7.28 7.28ZM541.846 26.384a5.196 5.196 0 1 0 0-10.392 5.196 5.196 0 0 0 0 10.392Zm104.918 271.133a5.385 5.385 0 1 0 0-10.77 5.385 5.385 0 0 0 0 10.77ZM490.489 172.7a6.084 6.084 0 1 0-.001-12.167 6.084 6.084 0 0 0 .001 12.167Z"/>
  <path fill="#66C2A5" stroke="#EEE" stroke-width="1.5" d="M574.954 183.671a6.245 6.245 0 1 0 0-12.49 6.245 6.245 0 0 0 0 12.49Z"/>
  <path fill="#FC8D62" stroke="#EEE" stroke-width="1.5" d="M506.727 293.469a5.385 5.385 0 1 0 0-10.77 5.385 5.385 0 0 0 0 10.77Z"/>
  <path fill="#66C2A5" stroke="#EEE" stroke-width="1.5" d="M379.27 97.983a5.196 5.196 0 1 0 0-10.392 5.196 5.196 0 0 0 0 10.392Z"/>
  <path fill="#FC8D62" stroke="#EEE" stroke-width="1.5" d="M495.387 225.359a5.385 5.385 0 1 0 0-10.77 5.385 5.385 0 0 0 0 10.77Zm6.769 20.9a5.568 5.568 0 1 0 0-11.136 5.568 5.568 0 0 0 0 11.136Zm-246.667 9.855a5.568 5.568 0 1 0 0-11.136 5.568 5.568 0 0 0 0 11.136Zm131.882 118.958a5.745 5.745 0 1 0 0-11.49 5.745 5.745 0 0 0 0 11.49Zm13.403-26.917a7.55 7.55 0 1 0 0-15.1 7.55 7.55 0 0 0 0 15.1Zm-92.632 11.031a6.245 6.245 0 1 0 0-12.49 6.245 6.245 0 0 0 0 12.49Zm154.136 26.982c6.417 0 11.619-5.202 11.619-11.619s-5.202-11.619-11.619-11.619c-6.416 0-11.618 5.202-11.618 11.619s5.202 11.619 11.618 11.619Zm312.029-55.553a5.196 5.196 0 1 0 0-10.391 5.196 5.196 0 0 0 0 10.391Zm-497.298-28.946a5.745 5.745 0 1 0 0-11.49 5.745 5.745 0 0 0 0 11.49Zm92.762-150.32a5.196 5.196 0 1 0 0-10.393 5.196 5.196 0 0 0 0 10.393Zm-174.023 72.657a5.385 5.385 0 1 0 0-10.77 5.385 5.385 0 0 0 0 10.77Zm248.254 138.633a7.416 7.416 0 1 0 0-14.832 7.416 7.416 0 1 0 0 14.832Zm141.011 28.72a7.81 7.81 0 0 0 7.81-7.811 7.81 7.81 0 1 0-15.62 0 7.81 7.81 0 0 0 7.81 7.811Zm125.53-97.067a5.196 5.196 0 1 0 .001-10.393 5.196 5.196 0 0 0-.001 10.393Zm-160.687-79.878a5.385 5.385 0 1 0 0-10.77 5.385 5.385 0 0 0 0 10.77ZM765.17 393.791a5.196 5.196 0 1 0 0-10.392 5.196 5.196 0 0 0 0 10.392ZM425.987 517.719a6.083 6.083 0 1 0 0-12.166 6.083 6.083 0 0 0 0 12.166Zm100.402-98.105a5.745 5.745 0 1 0-.001-11.49 5.745 5.745 0 0 0 .001 11.49ZM335.168 62.084a5.568 5.568 0 1 0 0-11.136 5.568 5.568 0 0 0 0 11.136Zm-58.109 226.182a6.083 6.083 0 1 0-.002-12.166 6.083 6.083 0 0 0 .002 12.166Zm-36.365 12.964a5.917 5.917 0 1 0 0-11.833 5.917 5.917 0 0 0 0 11.833Zm448.997 13.569a5.567 5.567 0 1 0 0-11.135 5.568 5.568 0 0 0 0 11.135Zm12.535 6.302a5.567 5.567 0 1 0 0-11.135 5.568 5.568 0 0 0 0 11.135Zm-180.522 83.907a8.544 8.544 0 1 0 0-17.089 8.544 8.544 0 0 0 0 17.089Zm-11.731-25.77a7.681 7.681 0 1 0 0-15.362 7.681 7.681 0 0 0 0 15.362Zm72.645-211.705a5.568 5.568 0 1 0 0-11.136 5.568 5.568 0 0 0 0 11.136Zm-338.127 218.54a5.385 5.385 0 1 0 0-10.77 5.385 5.385 0 0 0 0 10.77Z"/>
  <path fill="#66C2A5" stroke="#EEE" stroke-width="1.5" d="M379.726 514.334a5.385 5.385 0 1 0 .001-10.77 5.385 5.385 0 0 0-.001 10.77Z"/>
  <path fill="#FC8D62" stroke="#EEE" stroke-width="1.5" d="M264.094 343.981a6.708 6.708 0 1 0 0-13.416 6.708 6.708 0 1 0 0 13.416Zm-68.829-61.347a6.403 6.403 0 1 0 0-12.807 6.403 6.403 0 0 0 0 12.807ZM525.09 178.811a6.709 6.709 0 1 0 .001-13.417 6.709 6.709 0 0 0-.001 13.417Zm-138.336 5.622a5.385 5.385 0 1 0 .001-10.77 5.385 5.385 0 0 0-.001 10.77Zm-14.246 155.551a5.196 5.196 0 1 0 0-10.392 5.196 5.196 0 0 0 0 10.392Zm25.372 69.073a5.568 5.568 0 1 0 0-11.136 5.568 5.568 0 0 0 0 11.136Zm39.82 94.573a7.55 7.55 0 0 0 7.55-7.55 7.55 7.55 0 1 0-15.099 0 7.55 7.55 0 0 0 7.549 7.55Zm-40.062-265.419a6.856 6.856 0 1 0-.001-13.711 6.856 6.856 0 0 0 .001 13.711Zm-40.216 238.773a6.71 6.71 0 1 0-.002-13.418 6.71 6.71 0 0 0 .002 13.418Zm208.745-171.905a5.745 5.745 0 1 0 0-11.49 5.745 5.745 0 0 0 0 11.49Zm8.646-28.82a6.245 6.245 0 1 0 0-12.49 6.245 6.245 0 0 0 0 12.49Zm-156.302-11.8a7.28 7.28 0 1 0 0-14.56 7.28 7.28 0 0 0 0 14.56Z"/>
  <path fill="#66C2A5" stroke="#EEE" stroke-width="1.5" d="M425.015 280.667a7 7 0 1 0 0-14 7 7 0 0 0 0 14Z"/>
  <path fill="#FC8D62" stroke="#EEE" stroke-width="1.5" d="M555.888 316.95a6.403 6.403 0 1 0 0-12.805 6.403 6.403 0 0 0 0 12.805Zm-210.095 89.04a5.385 5.385 0 1 0 0-10.77 5.385 5.385 0 0 0 0 10.77Zm-88.469-22.488a5.197 5.197 0 1 0 0-10.394 5.197 5.197 0 0 0 0 10.394Zm413.116-90.291a6.708 6.708 0 1 0 0-13.416 6.708 6.708 0 1 0 0 13.416ZM447.1 196.492a5.745 5.745 0 1 0 0-11.49 5.745 5.745 0 0 0 0 11.49Zm-1.934 82.294a5.745 5.745 0 1 0 0-11.49 5.745 5.745 0 0 0 0 11.49Zm-37.579 2.855a5.568 5.568 0 1 0 0-11.136 5.568 5.568 0 0 0 0 11.136Zm-90.604 1.819a8.062 8.062 0 0 0 8.062-8.062 8.062 8.062 0 1 0-8.062 8.062Zm-58.338-4.066a6.245 6.245 0 1 0 0-12.49 6.245 6.245 0 0 0 0 12.49Zm319.49 55.468a5.916 5.916 0 0 0 5.916-5.917 5.916 5.916 0 1 0-11.832 0 5.917 5.917 0 0 0 5.916 5.917ZM353.522 39.933a5.568 5.568 0 1 0 0-11.136 5.568 5.568 0 0 0 0 11.136Zm69.104 289.527a5.567 5.567 0 0 0 5.567-5.568 5.567 5.567 0 1 0-11.135 0 5.568 5.568 0 0 0 5.568 5.568Zm38.694-143.611a5.196 5.196 0 1 0 0-10.393 5.196 5.196 0 0 0 0 10.393Zm223.166-61.36a5.385 5.385 0 1 0 0-10.77 5.385 5.385 0 0 0 0 10.77Zm-197.858-6.548a5.196 5.196 0 1 0 0-10.391 5.196 5.196 0 0 0 0 10.391Zm21.902 144.787a7.417 7.417 0 1 0-.001-14.833 7.417 7.417 0 0 0 .001 14.833Zm110.197 144.583a6.557 6.557 0 1 0 0-13.115 6.557 6.557 0 0 0 0 13.115Z"/>
  <path fill="#66C2A5" stroke="#EEE" stroke-width="1.5" d="M406.01 490.989a5.385 5.385 0 1 0 .001-10.77 5.385 5.385 0 0 0-.001 10.77Z"/>
  <path fill="#FC8D62" stroke="#EEE" stroke-width="1.5" d="M502.047 343.546a5.916 5.916 0 1 0 0-11.832 5.916 5.916 0 0 0 0 11.832Zm-76.252 136.082a5.745 5.745 0 1 0-.001-11.49 5.745 5.745 0 0 0 .001 11.49Z"/>
  <path fill="#66C2A5" stroke="#EEE" stroke-width="1.5" d="M469.322 161.084a6.856 6.856 0 1 0-.001-13.711 6.856 6.856 0 0 0 .001 13.711Z"/>
  <path fill="#FC8D62" stroke="#EEE" stroke-width="1.5" d="M499.559 397.888a7 7 0 1 0 0-14 7 7 0 0 0 0 14Zm46.444 209.238a5.196 5.196 0 1 0 0-10.391 5.196 5.196 0 0 0 0 10.391Zm91.192-230.162a5.745 5.745 0 1 0 0-11.49 5.745 5.745 0 0 0 0 11.49Zm-172.136-18.84a9.22 9.22 0 1 0-9.22-9.219 9.22 9.22 0 0 0 9.22 9.219ZM396.54 509.348a6.709 6.709 0 1 0-.001-13.417 6.709 6.709 0 0 0 .001 13.417Zm98.645-208.134a6.856 6.856 0 1 0 0-13.711 6.856 6.856 0 0 0 0 13.711Zm92.008-36.625a5.196 5.196 0 1 0 0-10.392 5.196 5.196 0 0 0 0 10.392Zm-220.841 243.07a6.245 6.245 0 1 0 0-12.49 6.245 6.245 0 0 0 0 12.49Zm166.738-288.98a5.196 5.196 0 1 0 0-10.392 5.196 5.196 0 0 0 0 10.392Zm10.502-33.91a5.916 5.916 0 1 0 0-11.832 5.916 5.916 0 0 0 0 11.832Zm119.141-86.146a5.385 5.385 0 1 0 0-10.77 5.385 5.385 0 0 0 0 10.77ZM218.858 282.811a5.567 5.567 0 1 0 .001-11.135 5.567 5.567 0 0 0-.001 11.135ZM511.542 20.027a5.385 5.385 0 1 0 0-10.77 5.385 5.385 0 0 0 0 10.77ZM349.181 283.372a5.385 5.385 0 1 0 0-10.77 5.385 5.385 0 0 0 0 10.77Zm226.267 63.958a6.855 6.855 0 1 0 0-13.711 6.855 6.855 0 0 0-6.855 6.856 6.855 6.855 0 0 0 6.855 6.855Z"/>
  <path fill="#66C2A5" stroke="#EEE" stroke-width="1.5" d="M220.012 267.373a6.403 6.403 0 1 0 0-12.805 6.403 6.403 0 0 0 0 12.805Z"/>
  <path fill="#FC8D62" stroke="#EEE" stroke-width="1.5" d="M214.364 371.317a5.385 5.385 0 1 0 0-10.77 5.385 5.385 0 0 0 0 10.77Zm325.018 24.451a7.681 7.681 0 1 0 0-15.362 7.681 7.681 0 0 0 0 15.362ZM441.49 310.44a7 7 0 1 0 0-14 7 7 0 0 0 0 14Zm27.341-194.888a5.196 5.196 0 1 0 0-10.392 5.196 5.196 0 0 0 0 10.392Zm-247.445 129.39a5.744 5.744 0 1 0 0-11.489 5.745 5.745 0 0 0 0 11.489Zm330.051 117.116a7.28 7.28 0 1 0-.002-14.562 7.28 7.28 0 0 0 .002 14.562Zm116.572-22.255a6.245 6.245 0 1 0 0-12.49 6.245 6.245 0 0 0 0 12.49ZM604.063 48.72a5.196 5.196 0 1 0 0-10.392 5.196 5.196 0 0 0 0 10.391Zm-56.148 418.053a7 7 0 1 0 0-14 7 7 0 0 0 0 14Zm-72.434-135.475a5.744 5.744 0 1 0 0-11.489 5.744 5.744 0 0 0 0 11.489ZM438.895 399.3a5.745 5.745 0 1 0-.001-11.49 5.745 5.745 0 0 0 .001 11.49Zm4.653 19.807a7.55 7.55 0 1 0 0-15.1 7.55 7.55 0 0 0 0 15.1Z"/>
  <path fill="#66C2A5" stroke="#EEE" stroke-width="1.5" d="M412.211 358.367a8.426 8.426 0 1 0-8.426-8.426 8.426 8.426 0 0 0 8.426 8.426Z"/>
  <path fill="#FC8D62" stroke="#EEE" stroke-width="1.5" d="M624.24 423.157a6.856 6.856 0 1 0 0-13.711 6.856 6.856 0 0 0 0 13.711Z"/>
  <path fill="#66C2A5" stroke="#EEE" stroke-width="1.5" d="M404.937 384.309a8.307 8.307 0 1 0 0-16.613 8.307 8.307 0 1 0 0 16.613Z"/>
  <path fill="#FC8D62" stroke="#EEE" stroke-width="1.5" d="M548.318 432.261a5.196 5.196 0 1 0 0-10.392 5.196 5.196 0 0 0 0 10.392Zm-12.844 10.667a5.197 5.197 0 1 0-.002-10.394 5.197 5.197 0 0 0 .002 10.394Zm-56.503 15.008a6.084 6.084 0 1 0-.001-12.167 6.084 6.084 0 0 0 .001 12.167Z"/>
  <path fill="#8DA0CB" stroke="#EEE" stroke-width="1.5" d="M564.959 463.369a5.196 5.196 0 1 0 0-10.393 5.196 5.196 0 0 0 0 10.393ZM430.01 407.001a5.197 5.197 0 1 0-.002-10.394 5.197 5.197 0 0 0 .002 10.394Z"/>
  <path fill="#FC8D62" stroke="#EEE" stroke-width="1.5" d="M359.674 158.554a5.196 5.196 0 1 0 .001-10.393 5.196 5.196 0 0 0-.001 10.393Zm263.399 31.52a5.196 5.196 0 1 0 0-10.393 5.196 5.196 0 0 0 0 10.393Z"/>
  <path fill="#8DA0CB" stroke="#EEE" stroke-width="1.5" d="M370.557 356.375a5.196 5.196 0 1 0 0-10.391 5.196 5.196 0 0 0 0 10.391Zm-98.799 43.702a5.196 5.196 0 1 0 0-10.392 5.196 5.196 0 0 0 0 10.392Z"/>
  <path fill="#66C2A5" stroke="#EEE" stroke-width="1.5" d="M311.312 432.541a5.197 5.197 0 1 0 0-10.394 5.197 5.197 0 0 0 0 10.394Z"/>
  <path fill="#8DA0CB" stroke="#EEE" stroke-width="1.5" d="M520.692 108.267a5.196 5.196 0 1 0 0-10.391 5.196 5.196 0 0 0 0 10.391Zm-69.42 181.66a5.385 5.385 0 1 0 0-10.77 5.385 5.385 0 0 0 0 10.77Z"/>
  <path fill="#FC8D62" stroke="#EEE" stroke-width="1.5" d="M194.119 399.647a5.567 5.567 0 0 0 5.567-5.568 5.567 5.567 0 1 0-11.135 0 5.568 5.568 0 0 0 5.568 5.568Z"/>
  <circle cx="331" cy="43" r="34.5" stroke="#F5B90F" stroke-width="5"/>
</svg>
